<svg width="48" height="48" viewBox="0 0 48 48" fill="none" xmlns="http://www.w3.org/2000/svg">
<path d="M15.0906 25.6327L15.9886 18.8699L8.1875 13.454L15.3151 15.8673L16.9988 13.2856L23.1443 9.46924L36.6981 16.9336L37.3997 28.3267L31.3664 36.7171L26.5959 37.4467L29.0653 32.9288V28.5792L27.2694 25.1838L25.4454 23.9771L22.6392 26.8675V29.9262L20.4504 31.9747L17.6723 32.3114L16.4376 33.013L14.4172 32.3675L13.5753 29.3369L15.0906 27.2042V25.6327Z" fill="white"/>
<path d="M27.5501 13.3978C26.0628 13.0891 24.4353 13.1733 24.4353 13.1733C24.4353 13.1733 23.9021 15.6428 20.5908 16.2882C20.6189 16.2882 24.9684 17.7754 27.5501 13.3978Z" fill="#94A6C3"/>
<path d="M28.8971 35.7909C30.6931 34.3878 32.04 32.4516 32.6574 30.2628C32.6854 30.1786 32.938 30.0383 33.1064 29.9261C33.387 29.7577 33.6676 29.6174 33.7237 29.3929C33.836 28.7475 33.8921 28.074 33.8921 27.4005C33.8921 27.148 33.6395 26.8954 33.387 26.6428C33.1905 26.4745 32.9941 26.278 32.9941 26.1377C32.7135 23.5841 31.5349 21.1989 29.6548 19.4591L29.4583 19.6555C31.2823 21.3673 32.4609 23.6964 32.7135 26.1658C32.7416 26.3903 32.966 26.6148 33.1905 26.8393C33.387 27.0076 33.6115 27.2602 33.6115 27.3724C33.6115 28.0179 33.5553 28.6633 33.4431 29.3087C33.415 29.4209 33.1625 29.5332 32.966 29.6454C32.6854 29.7857 32.4329 29.9261 32.3767 30.1505C31.7033 32.5358 30.1599 34.6123 28.1114 35.9593C28.4762 35.1736 29.6267 32.62 30.2441 31.3291L30.1318 27.176L26.568 23.7244L24.5476 24.0051L22.3307 27.5969C22.3307 27.5969 23.369 28.9158 21.9098 30.4592C20.4786 31.9746 19.3562 32.3113 19.3562 32.3113L18.3179 31.7501C18.6266 31.3572 19.2439 30.7679 19.721 30.375C20.5347 29.7016 21.3485 29.6454 21.3485 28.9158C21.3766 27.4005 19.749 27.8214 19.749 27.8214L19.1597 28.3827L18.9072 30.4592L17.6725 32.0026L17.5322 31.9746L15.5117 31.5256C15.5117 31.5256 16.7464 30.8801 16.9429 30.1505C17.1393 29.449 16.55 27.1199 16.5219 26.9796C16.55 27.0076 17.1112 27.4847 17.3638 28.2704C17.8128 27.0357 18.4021 25.8571 18.5704 25.7449C18.7388 25.6326 21.0118 24.426 21.0118 24.426L20.2541 26.4183L20.8154 26.1097L22.1623 22.7984C22.1623 22.7984 23.4812 22.153 24.4634 22.153C26.2313 22.1249 28.841 19.9642 27.6624 16.0917C27.9991 16.232 33.836 19.1504 34.8462 24.875C35.6038 29.2806 33.1064 33.4057 28.8971 35.7909Z" fill="#94A6C3"/>
<path d="M22.2183 14.0151C22.8637 13.2575 22.6112 12.135 22.6112 12.135L20.731 14.9131C20.703 14.9131 21.4045 14.9412 22.2183 14.0151Z" fill="#1B314F"/>
<path d="M15.9046 29.1964L16.1291 28.074C16.1291 28.074 15.2031 29.7015 15.1189 29.926C15.0347 30.1786 15.175 30.6276 15.5398 30.5995C15.9046 30.5715 16.3536 30.0383 16.3536 29.6454C16.3536 29.1403 15.9046 29.1964 15.9046 29.1964Z" fill="#1B314F"/>
<path d="M32.5731 11.3493C32.5731 11.3493 33.9762 11.4054 35.4354 11.5738C32.1522 8.99212 29.0373 8.23446 26.5118 8.23446C23.0322 8.23446 20.675 9.66561 20.5347 9.74979L21.6291 8.00996C21.6291 8.00996 17.2515 7.58904 15.7081 12.2192C15.3152 11.2371 14.9504 9.80591 14.9504 9.80591C14.9504 9.80591 12.6774 11.7983 13.7438 15.1096C11.134 14.1555 7.40184 12.8366 7.26153 12.8085C7.0651 12.7804 7.00898 12.8646 7.00898 12.8646C7.00898 12.8646 6.95286 12.9488 7.12123 13.0891C7.4299 13.3417 13.3228 17.6912 14.6137 18.5331C14.3331 19.5433 14.3331 20.0203 14.6137 20.4974C15.0065 21.1428 15.0346 21.4795 14.9785 21.9566C14.9224 22.4336 14.4172 26.5587 14.305 27.0638C14.1928 27.5689 13.0142 29.3649 13.0703 29.898C13.1264 30.4312 13.856 32.7042 14.5014 32.9567C14.9785 33.1251 16.1571 33.4899 16.9428 33.4899C17.2234 33.4899 17.476 33.4338 17.5882 33.3216C18.0653 32.9006 18.2056 32.8164 18.5423 32.8164C18.5704 32.8164 18.5984 32.8164 18.6265 32.8164C18.7668 32.8164 18.9352 32.8445 19.1316 32.8445C19.5806 32.8445 20.1699 32.7603 20.5908 32.3675C21.2082 31.7501 22.2745 30.9083 22.6112 30.5154C23.0322 29.9822 23.2567 29.2526 23.1444 28.523C23.0602 27.8495 23.425 27.2602 23.846 26.6709C24.3791 25.9694 25.3613 24.7066 25.3613 24.7066C27.2975 26.1658 28.5042 28.3827 28.5042 30.8521C28.5042 35.2297 24.6878 38.7655 19.9734 38.7655C19.2438 38.7655 18.5423 38.6813 17.8408 38.5129C20.0015 39.2706 21.8255 39.5232 23.3128 39.5232C26.4837 39.5232 28.1674 38.3726 28.1674 38.3726C28.1674 38.3726 27.5781 39.1303 26.6241 40.0002C26.6521 40.0002 26.6521 40.0002 26.6521 40.0002C31.8996 39.2706 34.4532 34.9491 34.4532 34.9491C34.4532 34.9491 34.2568 36.3522 34.0043 37.3063C40.9916 32.0588 39.813 25.4924 39.785 25.2679C39.8411 25.352 40.5426 26.1939 40.9074 26.6429C42.03 15.0815 32.5731 11.3493 32.5731 11.3493ZM21.8255 29.8138C21.7133 29.9542 21.2362 30.3751 20.8995 30.6838C20.5627 30.9924 20.1979 31.3011 19.9173 31.5817C19.8051 31.694 19.5806 31.7501 19.2438 31.7501C19.1316 31.7501 19.0194 31.7501 18.9352 31.7501C18.879 31.7501 18.8229 31.7501 18.7668 31.7501C18.7107 31.7501 18.6826 31.7501 18.6546 31.7501C18.5704 31.7501 18.4862 31.7501 18.402 31.7501C18.8229 31.1889 20.0576 29.898 20.4786 29.6174C20.9837 29.2807 21.2362 28.9439 20.9275 28.3546C20.6189 27.7653 19.8051 27.9057 19.8051 27.9057C19.8051 27.9057 20.2821 27.7092 20.7031 27.7092C20.1699 27.5689 19.4964 27.7092 19.1877 28.0179C18.851 28.3266 18.9071 29.421 18.7668 30.1225C18.6265 30.8521 18.1494 31.2169 17.4198 31.8904C17.027 32.2552 16.7464 32.3675 16.5219 32.3675C16.0448 32.2833 15.4836 32.143 15.0907 32.0027C14.8101 31.6379 14.3892 30.4312 14.2769 29.9261C14.3611 29.6455 14.6979 29.0562 14.8662 28.7194C15.203 28.074 15.3994 27.7092 15.4555 27.3725C15.5678 26.8954 15.9326 23.949 16.0729 22.7143C16.4377 23.1913 16.9428 23.977 16.8305 24.4821C17.6443 23.3316 17.055 22.2091 16.7744 21.7602C16.5219 21.3112 16.1851 20.4132 16.4657 19.4591C16.7464 18.505 17.7566 15.8672 17.7566 15.8672C17.7566 15.8672 18.0933 16.4565 18.5704 16.3443C19.0474 16.232 22.8919 10.4513 22.8919 10.4513C22.8919 10.4513 23.9301 12.7243 22.8357 14.38C21.7133 16.0356 20.6189 16.3443 20.6189 16.3443C20.6189 16.3443 22.1623 16.6249 23.5934 15.5866C24.1827 16.9616 24.7439 18.3928 24.772 18.5892C24.6878 18.7856 23.5653 21.4795 23.4531 21.6479C23.397 21.704 23.0041 21.8163 22.7235 21.8724C22.2464 22.0127 21.9658 22.0969 21.8536 22.1811C21.6571 22.3495 20.7592 24.8189 20.3382 26.0255C19.8331 26.1658 19.328 26.4465 18.9632 27.0077C19.1597 26.8674 19.777 26.7832 20.226 26.7271C20.6189 26.699 21.8255 27.3444 22.1342 28.5511C22.1342 28.5791 22.1342 28.5791 22.1342 28.6072C22.1903 29.0562 22.05 29.4771 21.8255 29.8138ZM19.1877 30.1506C19.4403 29.7858 19.4122 29.1684 19.4403 28.972C19.4683 28.7756 19.5245 28.4108 19.749 28.3546C19.9734 28.2985 20.5066 28.3827 20.5066 28.7756C20.5066 29.1404 20.1138 29.2246 19.8331 29.4771C19.6367 29.6735 19.2438 30.0945 19.1877 30.1506ZM30.3843 24.7908C30.6649 23.3597 30.693 22.125 30.6088 21.1147C31.7032 22.5739 32.3767 24.3418 32.5731 26.1658C32.6012 26.3903 32.8257 26.6148 33.0502 26.8393C33.2466 27.0077 33.4711 27.2322 33.4711 27.3725C33.4711 28.0179 33.415 28.6633 33.3027 29.3087C33.2747 29.3929 33.0221 29.5332 32.8257 29.6455C32.5451 29.7858 32.2925 29.9261 32.2364 30.1506C31.619 32.3113 30.3001 34.2195 28.5322 35.5665C31.142 32.8445 32.4047 28.3546 30.3843 24.7908ZM28.6164 35.819C30.4404 34.416 31.8435 32.4516 32.4609 30.2348C32.4889 30.1506 32.7415 30.0103 32.9099 29.898C33.1905 29.7577 33.4711 29.5894 33.5272 29.3649C33.6395 28.7194 33.6956 28.046 33.6956 27.3725C33.6956 27.1199 33.443 26.8674 33.1905 26.6148C33.0502 26.4465 32.8257 26.25 32.8257 26.1097C32.6012 24.0612 31.7874 22.125 30.5246 20.5255C29.9634 17.1581 27.7185 16.1198 27.6623 16.0917C27.7185 16.1759 29.1777 18.2805 28.1674 20.7499C27.1292 23.2474 24.4633 22.8546 24.2388 22.8826C24.0143 22.8826 23.1444 24.0051 22.05 26.0817C21.9097 26.0255 21.3204 25.8852 20.6469 25.9975C21.152 24.5944 21.9097 22.602 22.05 22.4336C22.1061 22.3775 22.5271 22.2653 22.8077 22.1811C23.3408 22.0408 23.5934 21.9566 23.6776 21.8443C23.7337 21.7602 24.0143 21.1147 24.2949 20.4413C24.5475 20.4413 25.1929 20.3851 25.249 20.3571C25.3052 20.301 25.8383 18.9259 25.8383 18.7576C25.8383 18.6173 24.7439 15.8953 24.323 14.857C24.5194 14.6325 24.7159 14.3519 24.9123 14.0432C30.6649 14.6606 35.1548 19.5433 35.1548 25.4643C35.1548 30.0103 32.4889 33.967 28.6164 35.819Z" fill="#1B314F"/>
<path d="M21.1521 20.6658C21.6852 20.0484 21.4046 18.8979 20.4225 18.7015C20.675 18.1122 21.0398 16.9336 21.0398 16.9336C21.0398 16.9336 18.1775 21.4235 17.925 21.5076C17.6724 21.5918 17.4199 20.6097 17.4199 20.6097C16.8867 22.6582 18.3179 22.9388 18.4862 22.2934C19.2719 22.0969 20.6189 21.2551 21.1521 20.6658Z" fill="#1B314F"/>
<path d="M18.7107 21.7602L20.1699 19.2627C20.1699 19.2627 21.0117 19.6836 20.5908 20.3571C20.0577 21.1428 18.7107 21.7602 18.7107 21.7602Z" fill="#FFD923"/>
<path d="M36.7544 33.3216C36.3334 33.8828 35.8564 34.4721 35.2952 35.0334C38.9151 28.0741 35.4635 21.7041 35.3232 21.4515C35.5758 21.7041 35.8283 21.9847 36.0528 22.2373C38.8309 25.324 39.1677 29.9542 36.7544 33.3216Z" fill="#D82122"/>
<path d="M40.1218 24.3698C38.859 20.9743 37.063 18.084 33.1063 15.4743C29.29 12.9487 25.193 13.1451 24.9685 13.1732C24.9404 13.1732 24.9124 13.1732 24.9124 13.1732C25.0527 13.1171 25.193 13.089 25.3333 13.061C26.2032 12.7803 27.3257 12.5558 28.4481 12.4155C31.4226 11.9946 34.4252 13.0048 36.4737 15.1656C36.5018 15.1936 36.5018 15.1936 36.5299 15.2217C38.859 17.6911 40.0656 20.7779 40.1218 24.3698Z" fill="#D82122"/>
<path d="M32.2084 10.4793C28.0273 9.69362 25.3333 10.0865 23.3971 10.8161C23.341 10.5916 23.1445 10.1426 22.9762 9.77781C22.3869 10.4793 21.7695 11.3212 21.3767 11.8544C20.3103 12.584 19.8613 13.2855 19.8613 13.2855C20.4787 11.1809 22.2746 9.60944 24.4634 9.21659C25.0808 9.10434 25.7543 9.04822 26.4839 9.04822C28.4201 9.07628 30.3564 9.55332 32.2084 10.4793Z" fill="#D82122"/>
<path d="M16.7463 15.8672C13.4631 15.755 14.5575 11.9386 14.6137 11.7141C14.6137 11.7422 14.8382 14.7167 16.7463 15.8672Z" fill="#D82122"/>
<path d="M19.9733 8.99219C17.4478 10.5075 17.9529 14.1275 17.9529 14.1275C15.5396 10.4514 19.7769 9.07637 19.9733 8.99219Z" fill="#D82122"/>
<path d="M15.8204 16.8774C15.9888 17.0177 16.1571 17.2703 15.9607 17.6351C15.8484 17.8315 15.6801 17.8034 15.4275 17.6912C15.0908 17.5228 13.0703 16.3442 11.2463 15.1376C13.3229 15.8672 15.4275 16.6529 15.7643 16.8213C15.7643 16.8213 15.7923 16.8493 15.8204 16.8774Z" fill="white"/>
</svg>
