<svg width="48" height="48" viewBox="0 0 48 48" fill="none" xmlns="http://www.w3.org/2000/svg">
<path d="M38.2548 36.2777H9.75305C9.2701 36.2812 8.79484 36.1567 8.37562 35.9167C7.95639 35.6768 7.60834 35.33 7.36662 34.9117C7.12502 34.4934 6.99855 34.0185 7.00001 33.5354C7.0016 33.0523 7.131 32.5782 7.37529 32.1614L20.8492 8.81898C21.1687 8.26591 21.628 7.80667 22.181 7.48738C22.7341 7.16809 23.3614 7 24 7C24.6386 7 25.266 7.16809 25.819 7.48738C26.372 7.80667 26.8314 8.26591 27.1508 8.81898L40.6247 32.1614C40.869 32.5782 40.9985 33.0523 41 33.5354C41.0016 34.0185 40.875 34.4934 40.6334 34.9117C40.3918 35.33 40.0436 35.6768 39.6244 35.9167C39.2053 36.1567 38.7299 36.2812 38.2469 36.2777H38.2548ZM14.5125 30.7907H33.5033L24.0078 14.3373L14.5125 30.7907Z" fill="url(#paint0_linear_4850_5225)"/>
<defs>
<linearGradient id="paint0_linear_4850_5225" x1="12.4705" y1="40.1206" x2="35.5552" y2="17.042" gradientUnits="userSpaceOnUse">
<stop stop-color="#0073D1"/>
<stop offset="0.06" stop-color="#0082CE"/>
<stop offset="0.22" stop-color="#00A0C9"/>
<stop offset="0.39" stop-color="#00B8C4"/>
<stop offset="0.57" stop-color="#00C9C1"/>
<stop offset="0.76" stop-color="#00D3C0"/>
<stop offset="1" stop-color="#00D6BF"/>
</linearGradient>
</defs>
</svg>
