<svg width="48" height="48" viewBox="0 0 48 48" fill="none" xmlns="http://www.w3.org/2000/svg">
<path d="M24 42C33.9411 42 42 33.9411 42 24C42 14.0589 33.9411 6 24 6C14.0589 6 6 14.0589 6 24C6 33.9411 14.0589 42 24 42Z" fill="#D8EAFF"/>
<path d="M28.5 15.675C28.5 14.6809 27.6941 13.875 26.7 13.875H21.3C20.3059 13.875 19.5 14.6809 19.5 15.675V16.575C19.5 16.9478 19.1978 17.25 18.825 17.25H17.925C16.9309 17.25 16.125 18.0559 16.125 19.05V28.95C16.125 29.9441 16.9309 30.75 17.925 30.75H18.825C19.1978 30.75 19.5 31.0522 19.5 31.425V32.325C19.5 33.3191 20.3059 34.125 21.3 34.125H26.7C27.6941 34.125 28.5 33.3191 28.5 32.325V31.425C28.5 31.0522 28.8022 30.75 29.175 30.75H30.075C31.0691 30.75 31.875 29.9441 31.875 28.95V25.8C31.875 24.8059 31.0691 24 30.075 24H29.625C28.6309 24 27.825 24.8059 27.825 25.8V29.4C27.825 29.7728 27.5228 30.075 27.15 30.075H20.85C20.4772 30.075 20.175 29.7728 20.175 29.4V18.6C20.175 18.2272 20.4772 17.925 20.85 17.925H26.7C27.6941 17.925 28.5 17.1191 28.5 16.125V15.675Z" fill="#111111"/>
</svg>
