<svg width="100" height="100" viewBox="0 0 100 100" fill="none" xmlns="http://www.w3.org/2000/svg">
<path d="M50.0001 87.5C70.7107 87.5 87.5001 70.7107 87.5001 50C87.5001 29.2893 70.7107 12.5 50.0001 12.5C29.2894 12.5 12.5001 29.2893 12.5001 50C12.5001 70.7107 29.2894 87.5 50.0001 87.5Z" fill="#E53E76"/>
<path d="M72.5971 53.7558C73.2167 53.1369 74.0143 52.3404 74.8061 51.5504C76.5725 49.787 76.5734 46.9269 74.8072 45.1628L72.9359 43.2938C66.2365 49.9853 56.2111 51.3297 48.1739 47.328C53.606 48.3312 59.2355 47.5497 64.2239 44.871C67.561 43.0787 68.1947 38.5583 65.5156 35.8824L54.469 24.8491C52.0006 22.3836 47.9989 22.3836 45.5314 24.8491L33.6245 36.7416C41.4661 33.4142 50.8858 34.9568 57.2632 41.3706C47.5337 36.6537 35.4808 38.3273 27.4024 46.395C26.7828 47.0139 25.9843 47.8115 25.1924 48.6024C23.4269 50.3667 23.4279 53.2248 25.1924 54.9881L27.0626 56.8562C33.7622 50.1647 43.7875 48.8202 51.8246 52.8219C46.3925 51.8187 40.763 52.6002 35.7748 55.2789C32.4376 57.0713 31.8038 61.5917 34.483 64.2675L45.5296 75.3009C47.998 77.7663 51.9997 77.7663 54.4672 75.3009L66.374 63.4083C58.5325 66.7358 49.1128 65.1932 42.7345 58.7793C52.4639 63.4962 64.5169 61.8227 72.5951 53.7549L72.5971 53.7558Z" fill="white"/>
</svg>
