<svg width="48" height="48" viewBox="0 0 48 48" fill="none" xmlns="http://www.w3.org/2000/svg">
<circle cx="24" cy="24" r="18" fill="white"/>
<path d="M34.5112 17.7174C34.5404 17.7408 34.569 17.7637 34.5972 17.786C34.9375 18.0578 36 18.9847 36 18.9847C36 18.9847 34.6111 19.5073 34.2986 19.7443C33.9861 19.9812 33.6111 20.3784 33.3056 21.1241C33.2099 21.3518 33.0851 21.6811 32.9512 22.0345C32.745 22.5787 32.5171 23.1802 32.3403 23.5562C32.0486 24.1764 31.5764 24.9709 29.5139 26.0441C29.2677 26.1715 29.0394 26.2879 28.8281 26.3957C27.5375 27.0537 26.8825 27.3876 26.6736 27.9326C26.5519 28.2483 26.5142 28.5904 26.5641 28.9251C26.6141 29.2599 26.7499 29.5759 26.9583 29.842C27.2986 30.2602 27.9931 31.0267 28.6944 31.2219C29.3958 31.417 29.4514 31.7097 29.4514 31.7097C29.0102 31.5836 28.5556 31.5111 28.0972 31.4936C27.375 31.4727 26.5972 31.7097 26.5972 31.7097C26.5972 31.4379 27.125 31.2219 27.125 31.2219C27.125 31.2219 27.1042 30.8525 26.0903 30.1835C25.7964 29.992 25.5483 29.7378 25.3634 29.4391C25.1786 29.1404 25.0616 28.8045 25.0208 28.4553C25.0208 28.4553 23.3403 28.3438 23.25 28.3438L24.2917 28.0371C22.5833 27.1312 13.7361 30.6295 13.7361 30.6295V30.3995C12.9444 30.9013 12 30.6504 12 30.6504L13.0694 29.8351H12.3264L19.7569 25.9953L18.0903 25.9744C18.0903 25.9744 24.4931 21.8488 26.125 20.8663C27.1018 20.2781 27.8571 19.9447 28.3911 19.7089C28.7492 19.5508 29.0078 19.4367 29.1667 19.3192C29.3307 19.1979 29.5913 18.9618 29.8763 18.7035C30.2792 18.3384 30.7309 17.9291 31.0278 17.7373L31.054 17.7204C31.5603 17.393 32.2973 16.9166 33.0208 17.0125C33.7443 17.1025 34.1667 17.4412 34.5112 17.7174Z" fill="url(#paint0_linear_7088_7238)"/>
<path fill-rule="evenodd" clip-rule="evenodd" d="M42 24C42 33.9411 33.9411 42 24 42C14.0589 42 6 33.9411 6 24C6 14.0589 14.0589 6 24 6C33.9411 6 42 14.0589 42 24ZM40 24C40 32.8366 32.8366 40 24 40C15.1634 40 8 32.8366 8 24C8 15.1634 15.1634 8 24 8C32.8366 8 40 15.1634 40 24Z" fill="url(#paint1_linear_7088_7238)"/>
<defs>
<linearGradient id="paint0_linear_7088_7238" x1="6" y1="24" x2="42" y2="24" gradientUnits="userSpaceOnUse">
<stop stop-color="#F6423E"/>
<stop offset="1" stop-color="#E41259"/>
</linearGradient>
<linearGradient id="paint1_linear_7088_7238" x1="6" y1="24" x2="42" y2="24" gradientUnits="userSpaceOnUse">
<stop stop-color="#F6423E"/>
<stop offset="1" stop-color="#E41259"/>
</linearGradient>
</defs>
</svg>
