<svg width="48" height="48" viewBox="0 0 48 48" fill="none" xmlns="http://www.w3.org/2000/svg">
<path fill-rule="evenodd" clip-rule="evenodd" d="M32.7469 38.6667C32.3804 39.0329 31.9623 39.3333 31.4996 39.5704C31.373 39.636 31.2439 39.6957 31.1125 39.7497C26.9637 41.4789 19.708 38.6371 13.6613 32.597C6.71307 25.6563 3.99259 17.1207 7.58498 13.5322C8.54296 12.5753 9.85312 12.0668 11.3913 11.9672C11.8829 10.4956 12.7152 9.35338 13.8945 8.67326C17.2916 6.71404 22.5734 9.16285 27.0662 14.3051C27.7099 12.8349 28.0716 11.1864 28.0716 9.41049H30.1391C30.1391 16.3671 35.7975 21.3672 42 21.3672V23.4325C38.9501 23.4325 36.0317 24.6677 33.8529 26.7183C35.0741 31.0306 35.0264 34.9236 33.6628 37.3988C33.4237 37.8697 33.1192 38.2948 32.7469 38.6667ZM32.9305 27.6875C32.6526 28.0024 32.2323 28.5312 31.7708 29.3046C31.769 29.3077 31.7672 29.3109 31.7654 29.3141C30.7402 31.0358 30.1391 33.0473 30.1391 35.2262H28.0716C28.0716 28.5413 22.522 23.4325 16.2106 23.4325V21.3672C19.0876 21.3672 21.8062 20.3283 23.9131 18.5386C21.103 16.1543 18.1674 14.4902 15.5392 13.6544C14.3165 13.2655 13.2036 13.0665 12.2176 13.0383C11.9951 13.9907 11.9027 15.1068 11.9626 16.3756C12.1236 19.7857 13.3916 23.9809 15.7803 28.1137C18.169 32.2465 21.1721 35.4411 24.0481 37.2854C26.6529 38.9558 28.9246 39.3935 30.5654 38.7949C30.7936 38.7076 31.0079 38.6053 31.2076 38.4886C31.7983 38.1326 32.3 37.6006 32.6916 36.9031C32.7097 36.8673 32.7274 36.831 32.7446 36.7943C32.7461 36.8012 32.7469 36.8048 32.7469 36.8048C33.9983 34.4678 33.6718 31.2068 33.3911 29.6036C33.3789 29.5341 33.3671 29.467 33.3554 29.4021C33.3362 29.292 33.3159 29.1814 33.2947 29.0703C33.0792 27.9173 32.9743 27.6383 32.9743 27.6383C32.9743 27.6384 32.9744 27.6383 32.9743 27.6383C32.9742 27.6378 32.9739 27.6375 32.9738 27.637C32.9593 27.6538 32.9449 27.6706 32.9305 27.6875ZM14.4308 31.8284C17.164 34.5586 20.1274 36.5905 22.8845 37.8151C20.0213 35.8213 17.1408 32.6415 14.8379 28.6572C11.5601 22.986 10.2806 17.1172 11.0954 13.0854C9.93914 13.2239 9.01271 13.6432 8.35442 14.3008C6.99318 15.6606 6.65165 18.1656 7.70729 21.4778C8.74409 24.7308 11.0539 28.4551 14.4308 31.8284ZM26.5393 15.3604C26.0341 16.256 25.4183 17.0711 24.7137 17.7921C20.5705 14.2498 16.0973 12.1749 12.5488 11.9664C12.9807 10.8747 13.6281 10.082 14.4386 9.61461C16.1018 8.6554 18.6094 8.97512 21.5381 10.8532C23.2107 11.9259 24.9264 13.4553 26.5393 15.3604Z" fill="#FF592C"/>
</svg>
