<svg width="48" height="48" viewBox="0 0 48 48" fill="none" xmlns="http://www.w3.org/2000/svg">
<path d="M42 24C42 33.9406 33.9406 42 24 42C14.0594 42 6 33.9406 6 24C6 14.0594 14.0594 6 24 6C33.9427 6 42 14.0594 42 24Z" fill="#2081E2"/>
<path d="M14.8805 24.6048L14.9581 24.4827L19.6406 17.1575C19.7091 17.0503 19.8699 17.0614 19.9217 17.1779C20.704 18.931 21.379 21.1114 21.0628 22.4688C20.9278 23.0273 20.5579 23.7837 20.1418 24.4827C20.0882 24.5845 20.029 24.6843 19.9661 24.7805C19.9365 24.8249 19.8866 24.8508 19.8329 24.8508H15.0173C14.8878 24.8508 14.812 24.7102 14.8805 24.6048Z" fill="white"/>
<path d="M35.752 25.9659V27.1254C35.752 27.192 35.7114 27.2512 35.6522 27.2771C35.2897 27.4324 34.0488 28.002 33.5329 28.7196C32.2161 30.5522 31.2101 33.1728 28.9613 33.1728H19.5796C16.2546 33.1728 13.5601 30.469 13.5601 27.1328V27.0256C13.5601 26.9368 13.6322 26.8647 13.7209 26.8647H18.9509C19.0544 26.8647 19.1302 26.9608 19.121 27.0625C19.084 27.4028 19.1469 27.7505 19.3078 28.0667C19.6185 28.6974 20.262 29.0913 20.9574 29.0913H23.5465V27.07H20.987C20.8557 27.07 20.778 26.9183 20.8538 26.811C20.8816 26.7685 20.913 26.7241 20.9463 26.6742C21.1886 26.3302 21.5344 25.7958 21.8784 25.1873C22.1132 24.7768 22.3407 24.3385 22.5238 23.8984C22.5608 23.8188 22.5903 23.7374 22.6199 23.6579C22.6699 23.5174 22.7217 23.3861 22.7586 23.2548C22.7956 23.1438 22.8252 23.0273 22.8548 22.9182C22.9417 22.5446 22.9787 22.1489 22.9787 21.7383C22.9787 21.5774 22.9713 21.4091 22.9565 21.2483C22.9491 21.0726 22.9269 20.8969 22.9047 20.7212C22.8899 20.5658 22.8622 20.4123 22.8326 20.2515C22.7956 20.0166 22.7438 19.7836 22.6847 19.5487L22.6643 19.46C22.6199 19.299 22.583 19.1456 22.5312 18.9847C22.3851 18.4798 22.2168 17.9879 22.0392 17.5274C21.9745 17.3443 21.9005 17.1686 21.8266 16.9929C21.7175 16.7285 21.6065 16.4881 21.5048 16.2606C21.453 16.157 21.4086 16.0627 21.3642 15.9666C21.3143 15.8574 21.2625 15.7483 21.2107 15.6448C21.1738 15.5653 21.1312 15.4913 21.1016 15.4173L20.7854 14.8329C20.741 14.7534 20.815 14.6591 20.9019 14.6831L22.8807 15.2194H22.8863C22.8899 15.2194 22.8918 15.2213 22.8936 15.2213L23.1544 15.2934L23.4411 15.3748L23.5465 15.4043V14.2282C23.5465 13.6604 24.0014 13.2 24.5636 13.2C24.8447 13.2 25.0999 13.3146 25.283 13.5014C25.4661 13.6882 25.5807 13.9434 25.5807 14.2282V15.974L25.7916 16.0331C25.8082 16.0387 25.8248 16.0461 25.8396 16.0572C25.8914 16.096 25.9654 16.1533 26.0597 16.2236C26.1337 16.2828 26.2132 16.3549 26.3094 16.4289C26.4998 16.5824 26.7273 16.7803 26.977 17.0077C27.0435 17.0651 27.1083 17.1242 27.1674 17.1834C27.4893 17.483 27.8499 17.8344 28.1938 18.2227C28.29 18.3319 28.3843 18.4428 28.4805 18.5593C28.5766 18.6777 28.6784 18.7942 28.7671 18.9107C28.8836 19.066 29.0094 19.2269 29.1185 19.3952C29.1703 19.4748 29.2295 19.5561 29.2794 19.6356C29.4199 19.8483 29.5438 20.0684 29.6622 20.2885C29.7121 20.3902 29.7639 20.5011 29.8083 20.6102C29.9396 20.9043 30.0432 21.2039 30.1097 21.5035C30.1301 21.5682 30.1449 21.6385 30.1523 21.7014V21.7161C30.1745 21.8049 30.1819 21.8992 30.1892 21.9954C30.2188 22.3024 30.204 22.6093 30.1375 22.9182C30.1097 23.0495 30.0728 23.1734 30.0284 23.3047C29.984 23.4305 29.9396 23.5618 29.8823 23.6857C29.7713 23.9427 29.64 24.1998 29.4847 24.4402C29.4347 24.529 29.3755 24.6233 29.3164 24.7121C29.2516 24.8064 29.1851 24.8951 29.1259 24.9821C29.0445 25.093 28.9576 25.2095 28.8688 25.3131C28.7893 25.4222 28.708 25.5313 28.6192 25.6275C28.4953 25.7736 28.3769 25.9123 28.253 26.0454C28.179 26.1323 28.0995 26.2211 28.0181 26.3006C27.9386 26.3894 27.8572 26.4689 27.7833 26.5429C27.6594 26.6668 27.5558 26.763 27.4689 26.8425L27.2655 27.0293C27.2359 27.0552 27.197 27.07 27.1564 27.07H25.5807V29.0913H27.5632C28.007 29.0913 28.4287 28.9341 28.769 28.6456C28.8855 28.5439 29.394 28.1037 29.9951 27.4398C30.0154 27.4176 30.0413 27.401 30.0709 27.3936L35.5468 25.8106C35.6485 25.781 35.752 25.8586 35.752 25.9659Z" fill="white"/>
</svg>
