<svg width="48" height="48" viewBox="0 0 48 48" fill="none" xmlns="http://www.w3.org/2000/svg">
<path d="M28.1556 6L6 19.8482L8.91111 24.5019L15.0523 20.7025V17.7108H19.861L31.1199 10.7302L28.1556 6ZM31.8942 11.9834L22.6425 17.7274H33.0042L34.7854 16.6371L31.8942 11.9834ZM35.5763 17.8571L33.2168 19.2964V21.9856H28.8801L22.8618 25.7285H32.6785L38.3013 22.2416L35.5763 17.8571ZM15.7436 21.9989L9.68873 25.7618L12.5799 30.3922L15.0756 28.8465V25.7285H20.087L26.1052 21.9989H15.7436ZM39.0756 23.4814L33.2501 27.1047V30.0033H28.5577L16.8734 37.2465L19.8444 42L42 28.1518L39.0756 23.4814ZM15.9695 30.0033L13.3608 31.6222L16.1058 36.01L25.7796 30.0033H15.9695Z" fill="#0E0E0E"/>
</svg>
