<svg width="48" height="48" viewBox="0 0 48 48" fill="none" xmlns="http://www.w3.org/2000/svg">
<path d="M42 24C42 14.0589 33.9411 6 24 6C14.0589 6 6 14.0589 6 24C6 33.9411 14.0589 42 24 42C33.9411 42 42 33.9411 42 24Z" fill="#E6007A"/>
<path fill-rule="evenodd" clip-rule="evenodd" d="M24 35.9531C30.6015 35.9531 35.9531 30.6015 35.9531 24C35.9531 17.3985 30.6015 12.0469 24 12.0469C17.3985 12.0469 12.0469 17.3985 12.0469 24C12.0469 30.6015 17.3985 35.9531 24 35.9531ZM27.0872 23.5843C26.4582 24.3727 25.8281 25.2525 25.8281 26.2612V29.5195C25.8281 30.5098 25.0254 31.3125 24.0351 31.3125C23.0449 31.3125 22.2422 30.5098 22.2422 29.5195V26.2612C22.2422 25.2525 21.6122 24.3727 20.9831 23.5843C20.4509 22.9173 20.1328 22.072 20.1328 21.1524C20.1328 18.9971 21.88 17.25 24.0351 17.25C26.1904 17.25 27.9375 18.9971 27.9375 21.1524C27.9375 22.072 27.6194 22.9173 27.0872 23.5843Z" fill="white"/>
</svg>
