<svg width="48" height="48" viewBox="0 0 48 48" fill="none" xmlns="http://www.w3.org/2000/svg">
<path d="M24.0935 6C34.0346 6 42.0935 14.0589 42.0935 24C42.0935 33.9411 34.0346 42 24.0935 42C14.1524 42 6.09351 33.9411 6.09351 24C6.09351 14.0589 14.1524 6 24.0935 6Z" fill="#FF6482"/>
<path fill-rule="evenodd" clip-rule="evenodd" d="M6.62762 28.3699C8.96271 28.3338 10.3222 27.2374 10.3222 25.552C10.3222 24.1738 9.37911 23.3818 7.65596 23.0889L7.52218 23.0675L6.52126 22.9155L6.35504 22.8862C6.27661 22.8716 6.20172 22.8561 6.13036 22.8388C6.15861 22.395 6.20295 21.9557 6.26278 21.5212C6.39518 21.5004 6.54357 21.4893 6.70838 21.4893C7.56173 21.5275 8.39953 21.7288 9.17644 22.0822L9.35467 22.1662L10.1102 20.427C9.0991 19.9146 7.98352 19.6448 6.85194 19.6372L6.62551 19.6386C6.4723 20.2542 6.35078 20.8824 6.26278 21.5212C6.26272 21.5212 6.26285 21.5212 6.26278 21.5212C6.20322 21.9555 6.15859 22.3946 6.1297 22.8386C6.12992 22.8387 6.13014 22.8387 6.13036 22.8388C6.10591 23.2227 6.09351 23.6099 6.09351 24C6.09351 24.298 6.10075 24.5944 6.11507 24.8889C6.12076 25.0057 6.12753 25.1222 6.13544 25.2384C6.15652 25.5486 6.18546 25.8567 6.22206 26.1624C6.23596 26.2787 6.25095 26.3946 6.26704 26.5103C6.35507 27.1412 6.47593 27.7617 6.62762 28.3699C6.62766 28.3699 6.62757 28.3699 6.62762 28.3699ZM6.22206 26.1624C6.23596 26.2787 6.25095 26.3946 6.26704 26.5103L6.35904 26.5121L6.63949 26.5089C7.59951 26.4885 8.06041 26.2005 8.06041 25.7307C8.06041 25.328 7.64885 25.1054 6.6826 24.9685L6.11507 24.8889C6.12076 25.0057 6.12753 25.1222 6.13544 25.2384C6.15652 25.5486 6.18546 25.8567 6.22206 26.1624ZM24.351 19.6301L24.471 19.6274C25.3897 19.627 26.2617 20.0461 26.8355 20.7697V19.8528H29.0205V28.1557L26.8355 28.1561V27.2392L26.7582 27.3312C26.156 28.0223 25.2715 28.4063 24.351 28.3699L24.2324 28.3685C21.9914 28.3103 20.2136 26.6058 20.2136 24C20.2136 21.3942 21.9914 19.6897 24.2324 19.6314L24.351 19.6301ZM15.8353 19.631L16.1077 19.6274C17.3526 19.6314 18.53 20.2092 19.2945 21.1986L17.6838 22.544L17.6086 22.4577C17.1744 21.9822 16.558 21.7102 15.9104 21.7128C14.7548 21.7128 13.8281 22.6213 13.8281 24.0004C13.8281 25.3885 14.745 26.2881 15.9015 26.2881C16.5962 26.2778 17.2535 25.972 17.7091 25.4476L19.3029 26.8098L19.2154 26.9174C18.4429 27.8339 17.3064 28.3654 16.1077 28.3708L15.8353 28.3672C13.2619 28.3059 11.5485 26.4672 11.5485 23.9991C11.5485 21.531 13.2623 19.6923 15.8353 19.631ZM33.441 20.831L33.5086 20.7368C34.0633 19.9959 34.954 19.579 35.8833 19.631C36.7527 19.5919 37.5985 19.9208 38.2132 20.5372C38.8274 21.1537 39.1536 22.0004 39.1118 22.8697V28.1588H36.8753V23.5889L36.8736 23.4773C36.8376 22.3408 36.2518 21.7297 35.2558 21.7297C34.2962 21.7297 33.4993 22.3466 33.4993 23.6062V28.1561H31.2632V19.8532H33.441V20.831ZM26.9058 23.8875C26.8902 22.6822 25.9084 21.7128 24.7026 21.7128C24.1017 21.7075 23.5257 21.9497 23.1092 22.3826C22.6923 22.8155 22.4728 23.4004 22.5012 24.0004C22.5474 25.2054 23.5537 26.1494 24.759 26.1183C25.9644 26.0876 26.9209 25.0934 26.9058 23.8875Z" fill="white"/>
</svg>
