<svg width="48" height="48" viewBox="0 0 48 48" fill="none" xmlns="http://www.w3.org/2000/svg">
<path fill-rule="evenodd" clip-rule="evenodd" d="M13.8403 10.5996H34.576C35.0707 10.5996 35.5278 10.856 35.7745 11.2719L41.8158 21.4554C42.1289 21.9836 42.036 22.6501 41.5891 23.0784L24.9606 39.0143C24.422 39.5305 23.5555 39.5305 23.0168 39.0143L6.41092 23.0999C5.95368 22.6617 5.86806 21.9757 6.20429 21.4443L12.6618 11.2393C12.9133 10.8418 13.3596 10.5996 13.8403 10.5996Z" fill="#311CAF"/>
<path fill-rule="evenodd" clip-rule="evenodd" d="M31.8986 18.0038V15.1465H16.163V18.0038H22.0697V19.9849C17.9212 20.1966 14.8089 21.0661 14.7858 22.1083L14.7856 24.281C14.8087 25.3232 17.9212 26.1927 22.0697 26.4044V31.2662H25.9919V26.4044C30.1403 26.1927 33.2527 25.3232 33.2758 24.281L33.2759 22.1083C33.2528 21.0661 30.1403 20.1966 25.9919 19.9849V18.0038H31.8986ZM33.0639 23.1946C32.1584 24.1765 28.458 24.9118 24.0308 24.9118C19.6036 24.9118 15.9032 24.1765 14.9976 23.1946C15.7656 22.362 18.5433 21.7067 22.0697 21.5268V23.601C22.7018 23.6332 23.3579 23.6502 24.0308 23.6502C24.7037 23.6502 25.3598 23.6332 25.9919 23.601V21.5268C29.5183 21.7067 32.296 22.362 33.0639 23.1946Z" fill="white"/>
</svg>
