<svg width="48" height="48" viewBox="0 0 48 48" fill="none" xmlns="http://www.w3.org/2000/svg">
<path d="M30.4728 26.2405L26.1678 30.5163C25.8031 30.8785 25.8035 31.4674 26.1686 31.8291L29.4583 35.0893C30.019 35.6369 30.9356 35.6369 31.4962 35.0893L41.5794 25.2409C42.14 24.6933 42.14 23.798 41.5794 23.2504L31.4962 13.4107C30.9356 12.8631 30.019 12.8631 29.4583 13.4107L26.1686 16.6709C25.8035 17.0327 25.8031 17.6215 26.1678 17.9837L30.4728 22.2595C31.5942 23.3547 31.5942 25.1453 30.4728 26.2405Z" fill="#0A6E5C"/>
<path d="M17.5271 26.2405L21.832 30.5163C22.1967 30.8785 22.1964 31.4674 21.8313 31.8291L18.5416 35.0893C17.9809 35.6369 17.0643 35.6369 16.5036 35.0893L6.4205 25.2409C5.85983 24.6933 5.85983 23.798 6.4205 23.2504L16.5036 13.4107C17.0643 12.8631 17.9809 12.8631 18.5416 13.4107L21.8313 16.6709C22.1964 17.0327 22.1967 17.6215 21.832 17.9837L17.5271 22.2595C16.4057 23.3547 16.4057 25.1453 17.5271 26.2405Z" fill="#21BF73"/>
<path d="M18.6565 25.0633C18.2024 24.614 18.2024 23.8855 18.6565 23.4362L23.1781 18.9617C23.6321 18.5124 24.3682 18.5124 24.8223 18.9617L29.3438 23.4362C29.7979 23.8855 29.7979 24.614 29.3438 25.0633L24.8223 29.5378C24.3682 29.9871 23.6321 29.9871 23.1781 29.5378L18.6565 25.0633Z" fill="#21BF73"/>
</svg>
