<svg width="48" height="48" viewBox="0 0 48 48" fill="none" xmlns="http://www.w3.org/2000/svg">
<g clip-path="url(#clip0_3736_13745)">
<path d="M23.4499 28.5527C23.4499 28.5527 23.4381 28.5527 23.4341 28.5489C22.9914 28.4035 22.8935 27.8146 23.2657 27.5318L31.7657 21.0525C31.7931 21.0329 31.8441 21.0289 31.8636 21.0408C31.9224 21.0799 31.942 21.1546 31.8911 21.2018L24.0259 28.431C23.8693 28.5724 23.6497 28.6195 23.4499 28.5566V28.5527ZM13.1942 24.2843C13.1942 24.2843 13.206 24.2961 13.2138 24.304C13.4372 24.512 13.7507 24.5907 14.0485 24.5199L30.0022 20.6127C30.159 20.5734 30.1667 20.3653 30.0179 20.3025C29.9983 20.2946 29.9669 20.2867 29.9318 20.2906L13.6801 22.7136C12.9277 22.8274 12.6377 23.7621 13.1942 24.2843ZM32.1106 17.0707L26.8004 6.37789C26.6908 6.158 26.4713 6.01271 26.2245 6.00092H26.2087C25.6601 5.97343 25.3075 6.57032 25.5974 7.03761L31.8676 17.2003C31.8833 17.2238 31.9343 17.2552 31.9343 17.2552C32.0518 17.3064 32.1693 17.1845 32.1106 17.0667V17.0707ZM30.4568 16.301L21.9568 6.45251C21.7844 6.25224 21.5218 6.15014 21.2553 6.18155C21.2476 6.18155 21.2397 6.18155 21.2357 6.18155C20.5656 6.2601 20.2913 7.08866 20.7772 7.55594L30.1472 16.5838C30.1825 16.6152 30.2374 16.6348 30.2374 16.6348C30.4372 16.6976 30.594 16.4581 30.4568 16.2971V16.301ZM31.2093 20.7618C31.1818 20.7423 31.1348 20.7423 31.1074 20.7541L19.045 25.8512C18.4337 26.1104 18.4768 26.9899 19.1078 27.1863C19.1157 27.1863 19.1234 27.1901 19.1274 27.194C19.3076 27.2529 19.5074 27.2333 19.6761 27.143L31.2093 20.9661C31.3032 20.9112 31.2602 20.7972 31.2093 20.7618ZM26.9807 15.2683L16.3332 7.8701C16.0393 7.66591 15.6553 7.64627 15.3418 7.81513C15.3339 7.81513 15.33 7.82298 15.3222 7.82691C14.6638 8.18032 14.6599 9.12277 15.3065 9.49188L26.585 15.8769C26.628 15.9005 26.6869 15.9201 26.7418 15.924C27.114 15.9398 27.2865 15.4842 26.9807 15.2722V15.2683ZM32.9806 17.5537L30.7273 6.98656C30.6763 6.75487 30.4998 6.57817 30.2686 6.52711C30.2649 6.52711 30.2609 6.52711 30.253 6.52711C29.8101 6.43288 29.4261 6.85304 29.5633 7.285L32.7768 17.6047C32.7847 17.6322 32.812 17.6636 32.8356 17.6675C32.9178 17.6911 32.9962 17.6361 32.9806 17.5537ZM32.2477 21.2921L26.2558 28.8826C26.0246 29.1772 26.1577 29.613 26.5183 29.7268C26.7457 29.7976 26.9925 29.7073 27.1219 29.5069L32.3928 21.398C32.4202 21.3549 32.4044 21.296 32.3574 21.2684C32.3223 21.2488 32.2751 21.2607 32.2477 21.2921ZM31.2993 40.8321C31.2993 40.8321 31.3151 40.8281 31.3228 40.8242C31.6717 40.7064 31.9185 40.3883 31.9459 40.0191L33.3018 21.8182C33.3018 21.7829 33.2862 21.7435 33.2509 21.7279C33.2039 21.7084 33.1255 21.7279 33.1138 21.7947L30.0923 39.8031C29.9788 40.4903 30.6371 41.0559 31.2954 40.8321H31.2993ZM33.6584 22.1638L34.9401 37.2547C34.9987 37.9458 35.8491 38.2404 36.3194 37.7299C36.3234 37.7259 36.3273 37.718 36.335 37.7141C36.5037 37.5295 36.5781 37.2782 36.535 37.0309L33.878 22.1363C33.874 22.1049 33.8426 22.0735 33.8231 22.0616C33.7605 22.0185 33.6507 22.0735 33.6584 22.1638ZM33.5723 7.48134C33.2118 7.34783 32.8356 7.62663 32.8552 8.01147L33.3567 17.8639C33.3567 17.8953 33.3842 17.9307 33.4077 17.9386C33.4665 17.9582 33.5293 17.9267 33.533 17.8639L33.9368 8.01147C33.9445 7.77979 33.8035 7.56774 33.5879 7.48527C33.5879 7.48527 33.5802 7.48527 33.5763 7.48134H33.5723ZM34.7519 22.6703C34.654 22.6115 34.4776 22.7057 34.5246 22.8392L37.6637 31.8435C37.8674 32.4246 38.7139 32.3383 38.7923 31.7256C38.7923 31.7179 38.7923 31.7139 38.7923 31.71C38.8079 31.6039 38.7923 31.4941 38.7451 31.3919L34.8028 22.7332C34.791 22.7096 34.7714 22.6861 34.7519 22.6703ZM26.1068 19.0381C26.0833 19.0302 26.0598 19.0183 26.0167 19.0145L11.129 17.4634C10.4667 17.3927 9.91021 17.9661 10.0121 18.6257C10.0121 18.6376 10.0121 18.6493 10.016 18.6611C10.0905 19.1558 10.5176 19.5172 11.0153 19.5249L25.9972 19.7017C26.3889 19.7056 26.4752 19.1637 26.1068 19.0341V19.0381ZM22.4858 15.6924L12.0969 11.8323C11.5875 11.6438 11.0232 11.8794 10.7959 12.3742C10.7959 12.382 10.788 12.386 10.788 12.3938C10.5176 12.9789 10.8429 13.6622 11.4621 13.831C11.4621 13.831 22.1566 16.7173 22.1645 16.7173C22.3173 16.7605 22.4897 16.7173 22.619 16.627C22.7798 16.517 22.8895 16.3246 22.8542 16.1283C22.8189 15.9319 22.6818 15.7591 22.4937 15.6884L22.4858 15.6924ZM32.671 21.5276L24.2454 40.5454C23.9319 41.2521 24.4727 42.0416 25.2447 41.9983C25.2526 41.9983 25.2603 41.9983 25.2682 41.9983C25.6915 41.9748 26.0558 41.6958 26.1931 41.2954L32.8394 21.5944C32.8552 21.5513 32.8277 21.5001 32.7964 21.4883C32.7494 21.4687 32.6984 21.4883 32.6749 21.5316L32.671 21.5276ZM17.8499 31.6588L10.741 37.0779C9.98858 37.6512 10.0905 38.8214 10.9252 39.2652C10.9174 39.2612 10.933 39.2691 10.9252 39.2652C11.415 39.5244 12.0264 39.4576 12.434 39.0846L19.0176 33.0333C19.5623 32.5307 19.296 31.6197 18.567 31.4941C18.5591 31.4941 18.5514 31.4941 18.5435 31.4901C18.3004 31.4468 18.0497 31.5097 17.8499 31.6588ZM23.7712 32.032L17.6617 39.7757C17.1092 40.4747 17.5168 41.5074 18.3946 41.6449C18.4023 41.6449 18.4142 41.6449 18.4221 41.6488C18.8726 41.7195 19.3195 41.5153 19.5702 41.1343L24.9391 32.8723C25.2291 32.4246 24.9507 31.8238 24.4178 31.7649C24.171 31.7375 23.9279 31.8396 23.7751 32.032H23.7712ZM34.4148 16.5249C34.5833 15.9476 36.1431 10.7877 36.5898 9.31518C36.6604 9.08742 36.5546 8.84396 36.3469 8.734C36.3469 8.734 36.339 8.734 36.339 8.73008C36.0452 8.57693 35.6884 8.74579 35.6219 9.07172L34.1248 16.4542C34.0974 16.5877 34.2425 16.6859 34.356 16.6112C34.3757 16.5955 34.4032 16.5798 34.4188 16.5288L34.4148 16.5249ZM38.8 27.4139C38.8 27.3355 38.7765 27.2608 38.7295 27.198L35.9745 23.3772C35.9589 23.3575 35.9275 23.3379 35.9119 23.3261C35.7826 23.2595 35.6493 23.4126 35.7237 23.5382L38.1182 27.5986C38.3064 27.9205 38.8 27.7871 38.8 27.4101V27.4139Z" fill="url(#paint0_linear_3736_13745)"/>
</g>
<defs>
<linearGradient id="paint0_linear_3736_13745" x1="8.67554" y1="15.069" x2="39.5392" y2="24.9252" gradientUnits="userSpaceOnUse">
<stop stop-color="#0031BD"/>
<stop offset="0.270833" stop-color="#454AFF"/>
<stop offset="0.421875" stop-color="#9E0DF3"/>
<stop offset="0.640625" stop-color="#E901C5"/>
<stop offset="1" stop-color="#FF0B4F"/>
</linearGradient>
<clipPath id="clip0_3736_13745">
<rect width="28.8" height="36" fill="white" transform="translate(10 6)"/>
</clipPath>
</defs>
</svg>
