<svg width="48" height="48" viewBox="0 0 48 48" fill="none" xmlns="http://www.w3.org/2000/svg">
<path d="M24 42C33.9411 42 42 33.9411 42 24C42 14.0589 33.9411 6 24 6C14.0589 6 6 14.0589 6 24C6 33.9411 14.0589 42 24 42Z" fill="#301748"/>
<path d="M24.6845 35.988C24.0757 35.427 23.5063 34.8247 22.9803 34.1854C21.7249 32.5702 18.9281 29.7299 18.2332 29.0217C17.4322 28.2056 16.6237 27.3914 15.8303 26.5601C15.7148 26.4408 15.5273 26.3026 15.641 26.1019C15.7546 25.9011 15.9742 25.9314 16.1674 25.9428C16.2538 25.9484 16.3388 25.9675 16.4192 25.9996C16.9873 26.2243 17.5553 26.4522 18.1234 26.6832C19.2595 27.1414 20.371 27.6167 21.509 28.0465C22.1945 28.3059 22.4842 28.0465 22.3554 27.3289C22.2475 26.7286 22.096 26.1397 21.9351 25.5489C21.8983 25.4191 21.8901 25.2828 21.911 25.1494C21.932 25.0161 21.9816 24.8888 22.0565 24.7765C22.1314 24.6642 22.2297 24.5695 22.3447 24.4988C22.4598 24.4282 22.5888 24.3833 22.7228 24.3674C22.9576 24.3333 23.1943 24.3276 23.4291 24.3087C23.6639 24.2897 23.9044 24.2329 23.9971 23.9603C24.0419 23.84 24.047 23.7085 24.0115 23.5851C23.9761 23.4617 23.902 23.353 23.8002 23.2748C23.0277 22.5306 22.2646 21.7789 21.4996 21.0253C19.5833 19.1317 17.6683 17.2382 15.7546 15.3446C14.6184 14.2275 13.4874 13.1109 12.3613 11.995C12.2496 11.8851 12.1322 11.7886 12.2212 11.6163C12.3102 11.444 12.4598 11.4648 12.6132 11.4951C13.0828 11.5898 13.4217 11.9268 13.7929 12.1805C14.7832 12.8622 15.8189 13.4719 16.8225 14.1176C17.5231 14.5626 18.2351 14.9906 18.9338 15.4431C19.6325 15.8957 20.2953 16.3425 20.9826 16.78C21.9711 17.4067 22.969 18.0164 23.9555 18.6451C25.0197 19.323 26.0763 20.0122 27.1329 20.7015C27.3222 20.8264 27.4983 20.8908 27.7009 20.7128C27.9035 20.5348 27.8732 20.3569 27.7823 20.1164C27.5703 19.5483 27.1745 19.0901 27.0249 18.5088C26.9719 18.3194 26.9302 18.13 27.1196 17.9824C27.1955 17.9212 27.2889 17.8858 27.3863 17.8814C27.4837 17.8769 27.58 17.9037 27.6611 17.9577C28.379 18.2977 29.0775 18.6769 29.7535 19.0939C30.5772 19.6104 31.435 20.0704 32.3212 20.4705C33.7621 21.1559 35.1387 21.9588 36.5021 22.773C37.2541 23.2516 37.9025 23.8761 38.4089 24.6097C38.8057 25.154 39.1368 25.7432 39.3954 26.3651C39.7636 27.2664 40.0076 28.2137 40.1206 29.1808C40.3441 30.9077 39.7135 33.1269 38.9088 34.316C38.221 35.3969 37.3266 36.3312 36.2768 37.0655C35.5688 37.5474 34.806 37.9434 34.0045 38.2451C33.1657 38.5746 32.3003 38.6238 31.3706 38.6579C31.2949 38.6626 31.219 38.6626 31.1434 38.6579C29.2271 38.5424 27.3411 38.2697 24.6845 35.988ZM37.0891 30.2203C37.1046 29.4672 36.9687 28.7187 36.6895 28.0191C36.4103 27.3195 35.9934 26.6831 35.4636 26.1477C34.9338 25.6123 34.3019 25.1887 33.6053 24.902C32.9087 24.6154 32.1617 24.4716 31.4085 24.4791C28.3674 24.4961 25.8642 26.9786 25.8547 30.262C25.8547 32.947 28.4697 35.9426 31.4407 35.7532C34.5101 35.8782 37.0702 33.1061 37.0891 30.2203Z" fill="url(#paint0_linear_607_358)"/>
<path d="M17.9295 22.9086C17.9274 23.1388 18.0153 23.3607 18.1745 23.527C18.3337 23.6932 18.5515 23.7907 18.7816 23.7986C18.8972 23.7976 19.0114 23.7729 19.1171 23.7261C19.2229 23.6792 19.3179 23.6112 19.3963 23.5262C19.4747 23.4412 19.5349 23.3411 19.5731 23.2319C19.6113 23.1228 19.6268 23.0069 19.6185 22.8916C19.6089 22.6609 19.5117 22.4426 19.3467 22.2811C19.1817 22.1196 18.9613 22.0271 18.7304 22.0225C18.5085 22.0385 18.3012 22.1396 18.152 22.3047C18.0028 22.4698 17.923 22.6862 17.9295 22.9086Z" fill="url(#paint1_linear_607_358)"/>
<path d="M21.5096 12.0802C22.0227 12.0802 22.3276 11.7507 22.3257 11.2262C22.3123 11.0104 22.2192 10.8073 22.0646 10.6562C21.91 10.5051 21.7048 10.4167 21.4888 10.4082C21.1101 10.4082 20.5893 10.8892 20.5855 11.2508C20.5987 11.4831 20.7033 11.7007 20.8765 11.8561C21.0496 12.0115 21.2772 12.0921 21.5096 12.0802Z" fill="url(#paint2_linear_607_358)"/>
<path d="M12.2479 19.6679C12.2531 19.5639 12.2364 19.46 12.1989 19.3629C12.1614 19.2657 12.104 19.1776 12.0303 19.104C11.9566 19.0305 11.8682 18.9733 11.771 18.936C11.6738 18.8988 11.5699 18.8823 11.4659 18.8877C11.2587 18.9066 11.0652 18.9994 10.9209 19.1493C10.7766 19.2992 10.6911 19.4961 10.6801 19.7038C10.6949 19.9047 10.7832 20.093 10.9282 20.2328C11.0732 20.3725 11.2647 20.4539 11.4659 20.4613C11.5705 20.4648 11.6747 20.4466 11.772 20.4078C11.8692 20.369 11.9573 20.3105 12.0308 20.236C12.1043 20.1614 12.1615 20.0725 12.1989 19.9747C12.2363 19.8769 12.253 19.7724 12.2479 19.6679Z" fill="url(#paint3_linear_607_358)"/>
<path d="M31.4405 35.7435C34.5099 35.8779 37.07 33.1058 37.0889 30.22C37.1044 29.4669 36.9685 28.7184 36.6893 28.0188C36.4101 27.3192 35.9932 26.6829 35.4634 26.1474C34.9336 25.612 34.3017 25.1884 33.6051 24.9017C32.9085 24.6151 32.1615 24.4713 31.4083 24.4788C28.3672 24.4958 25.864 26.9783 25.8545 30.2617C25.8451 32.9467 28.4695 35.9328 31.4405 35.7435Z" fill="url(#paint4_linear_607_358)"/>
<defs>
<linearGradient id="paint0_linear_607_358" x1="40.1661" y1="25.0718" x2="12.1871" y2="25.0718" gradientUnits="userSpaceOnUse">
<stop stop-color="#E2107B"/>
<stop offset="1" stop-color="#301748"/>
</linearGradient>
<linearGradient id="paint1_linear_607_358" x1="19.6185" y1="22.9086" x2="17.9219" y2="22.9086" gradientUnits="userSpaceOnUse">
<stop stop-color="#E2107B"/>
<stop offset="1" stop-color="#0D1126"/>
</linearGradient>
<linearGradient id="paint2_linear_607_358" x1="19856" y1="56.7544" x2="19872" y2="56.7544" gradientUnits="userSpaceOnUse">
<stop stop-color="#E2107B"/>
<stop offset="1" stop-color="#0D1126"/>
</linearGradient>
<linearGradient id="paint3_linear_607_358" x1="17975.8" y1="132.6" x2="17988.8" y2="132.6" gradientUnits="userSpaceOnUse">
<stop stop-color="#E2107B"/>
<stop offset="1" stop-color="#0D1126"/>
</linearGradient>
<linearGradient id="paint4_linear_607_358" x1="40.1148" y1="33.4618" x2="26.1404" y2="28.0746" gradientUnits="userSpaceOnUse">
<stop stop-color="#301748"/>
<stop offset="1" stop-color="#E2107B"/>
</linearGradient>
</defs>
</svg>
