<svg width="48" height="48" viewBox="0 0 48 48" fill="none" xmlns="http://www.w3.org/2000/svg">
<path fill-rule="evenodd" clip-rule="evenodd" d="M38.0321 24.0005C38.0321 23.2064 37.9439 22.4123 37.8558 21.7065H41.8236C41.8317 21.7793 41.8398 21.8513 41.8478 21.9228C41.9272 22.6307 42 23.2792 42 24.0005C42 33.9708 33.976 42 24.0121 42C13.6955 42 5.49518 33.4414 6.02424 23.0299C6.55329 13.6773 14.401 6.08927 23.8358 6.00104C32.1243 5.9128 39.1784 11.4715 41.2946 19.2359H37.1503H34.2405H20.3087C20.2205 19.2359 20.0442 19.2359 19.8678 19.3242C19.5152 19.4124 19.3388 19.6771 19.1624 20.03C19.0743 20.1183 19.0743 20.2947 19.0743 20.4712C19.0743 20.5594 19.0743 20.7359 19.1624 20.9124C19.2506 21.0888 19.3388 21.2653 19.427 21.3535L24.3648 26.2946H12.8138C12.5493 24.8828 12.5493 23.3829 12.8138 21.7947C13.7837 16.8537 18.0162 13.0597 22.954 12.6185C26.5692 12.3538 29.8317 13.6773 32.0361 15.9714C32.3007 16.236 32.6534 16.4125 33.006 16.4125C34.2405 16.4125 34.7696 15.0008 33.976 14.1184C31.1544 11.295 27.1865 9.61858 22.7777 9.97152C17.1344 10.5009 12.3729 14.3831 10.5212 19.7654C9.63946 22.5888 9.72762 25.324 10.433 27.7945C10.4837 27.8453 10.5053 27.8668 10.5144 27.8928C10.5212 27.9119 10.5212 27.9335 10.5212 27.971C12.2847 33.7943 17.6635 38.0295 24.0121 38.0295C31.7716 38.0295 38.0321 31.765 38.0321 24.0005ZM28.1564 28.7651C28.4209 28.6769 28.6854 28.4122 28.8618 28.0592C28.8618 28.0371 28.8673 28.0096 28.8742 27.9751C28.8948 27.8717 28.9279 27.7063 28.8618 27.4416C28.8618 27.3534 28.8618 27.1769 28.7736 27.0004C28.6854 26.8239 28.5973 26.6475 28.5091 26.5593L23.5712 21.6182H35.1223C35.3868 23.0299 35.3868 24.5299 35.1223 26.1181C34.1524 31.1474 29.8317 34.9414 24.8057 35.2943C19.956 35.6472 15.6354 32.912 13.6955 28.8533H27.7155C27.8037 28.8533 27.98 28.8533 28.1564 28.7651Z" fill="url(#paint0_radial_5620_5572)"/>
<defs>
<radialGradient id="paint0_radial_5620_5572" cx="0" cy="0" r="1" gradientUnits="userSpaceOnUse" gradientTransform="translate(8.92741 5.77922) scale(40.0774 40.1033)">
<stop offset="0.475" stop-color="#4388DD"/>
<stop offset="0.9988" stop-color="#FF4581"/>
</radialGradient>
</defs>
</svg>
