<svg width="48" height="48" viewBox="0 0 48 48" fill="none" xmlns="http://www.w3.org/2000/svg">
<path opacity="0.2" d="M25.9121 10.6161C26.9681 9.56012 26.9681 7.84803 25.9121 6.79203C24.8561 5.73603 23.144 5.73603 22.088 6.79203L6.79224 22.0881C5.73624 23.1441 5.73624 24.8562 6.79224 25.9119L14.4401 33.5598V33.5601C15.4961 34.6161 17.2079 34.6161 18.2639 33.5601L31.6481 20.1759L35.4722 24L22.088 37.3842C21.032 38.4399 21.032 40.152 22.088 41.2083C23.144 42.264 24.8561 42.264 25.9121 41.2083L41.2079 25.9119C42.2639 24.8562 42.2639 23.1441 41.2079 22.0881L33.56 14.4399C32.504 13.3842 30.7922 13.3842 29.7362 14.4399L16.352 27.8241L12.5279 24L25.9121 10.6161Z" fill="url(#paint0_linear_3256_9833)"/>
<path d="M25.9121 37.3841C26.9681 38.4401 26.9681 40.1522 25.9121 41.2082C24.8561 42.2642 23.144 42.2642 22.088 41.2082C21.032 40.1522 21.032 38.4401 22.088 37.3841C23.144 36.3281 24.8561 36.3281 25.9121 37.3841ZM18.264 29.7361C19.32 30.7921 19.32 32.5042 18.264 33.5602C17.208 34.6162 15.4959 34.6162 14.4399 33.5602C13.3839 32.5042 13.3839 30.7921 14.4399 29.7361C15.4959 28.6801 17.208 28.6801 18.264 29.7361ZM33.5601 29.7361C34.6161 30.7921 34.6161 32.5042 33.5601 33.5599C32.5041 34.6162 30.792 34.6162 29.736 33.5602C28.68 32.5042 28.68 30.7921 29.736 29.7361C30.792 28.6801 32.5041 28.6801 33.5601 29.7361ZM10.6161 22.0882C11.6721 23.1442 11.6721 24.8563 10.6161 25.912C9.56009 26.9683 7.848 26.9683 6.792 25.912C5.736 24.8563 5.736 23.1442 6.792 22.0882C7.848 21.0319 9.56009 21.0319 10.6161 22.0882ZM25.9121 22.0882C26.9681 23.1442 26.9681 24.8563 25.9121 25.912C24.8561 26.9683 23.144 26.9683 22.088 25.912C21.032 24.8563 21.032 23.1442 22.088 22.0882C23.144 21.0319 24.8561 21.0319 25.9121 22.0882ZM41.208 22.0882C42.264 23.1442 42.264 24.8563 41.208 25.912C40.152 26.9683 38.4399 26.9683 37.3839 25.912C36.3279 24.8563 36.3279 23.1442 37.3839 22.0882C38.4399 21.0319 40.152 21.0319 41.208 22.0882ZM18.264 14.4399C19.32 15.4962 19.32 17.2083 18.264 18.264C17.208 19.32 15.4959 19.32 14.4399 18.264C13.3839 17.2083 13.3839 15.4962 14.4399 14.4402C15.4959 13.3839 17.208 13.3839 18.264 14.4399ZM33.5601 14.4399C34.6161 15.4962 34.6161 17.2083 33.5601 18.264C32.5041 19.32 30.792 19.32 29.736 18.264C28.68 17.2083 28.68 15.4962 29.736 14.4402C30.792 13.3839 32.5041 13.3839 33.5601 14.4399ZM25.9121 6.792C26.9681 7.8483 26.9681 9.56039 25.9121 10.6161C24.8561 11.6721 23.144 11.6721 22.088 10.6161C21.032 9.56039 21.032 7.8483 22.088 6.792C23.144 5.736 24.8561 5.736 25.9121 6.792Z" fill="url(#paint1_linear_3256_9833)"/>
<defs>
<linearGradient id="paint0_linear_3256_9833" x1="41.9995" y1="42.0001" x2="6.00024" y2="6.00041" gradientUnits="userSpaceOnUse">
<stop stop-color="#FE3876"/>
<stop offset="0.714448" stop-color="#7C30DD"/>
<stop offset="1" stop-color="#3A30DD"/>
</linearGradient>
<linearGradient id="paint1_linear_3256_9833" x1="42.0002" y1="42.0002" x2="5.9997" y2="6.00015" gradientUnits="userSpaceOnUse">
<stop stop-color="#FE3876"/>
<stop offset="0.714448" stop-color="#7C30DD"/>
<stop offset="1" stop-color="#3A30DD"/>
</linearGradient>
</defs>
</svg>
