<svg width="48" height="48" viewBox="0 0 48 48" fill="none" xmlns="http://www.w3.org/2000/svg">
<mask id="mask0_3224_11326" style="mask-type:alpha" maskUnits="userSpaceOnUse" x="4" y="4" width="40" height="40">
<path d="M24 44C35.0457 44 44 35.0457 44 24C44 12.9543 35.0457 4 24 4C12.9543 4 4 12.9543 4 24C4 35.0457 12.9543 44 24 44Z" fill="#FF0000"/>
</mask>
<g mask="url(#mask0_3224_11326)">
<path d="M23.9999 50.6666C38.7275 50.6666 50.6666 38.7275 50.6666 23.9999C50.6666 9.27233 38.7275 -2.66675 23.9999 -2.66675C9.27232 -2.66675 -2.66675 9.27233 -2.66675 23.9999C-2.66675 38.7275 9.27232 50.6666 23.9999 50.6666Z" fill="url(#paint0_linear_3224_11326)"/>
<path d="M36.3577 22.3353L30.7087 16.6862L30.6984 16.676L30.6761 16.6564C30.6395 16.6234 30.6013 16.5923 30.5615 16.5632C30.5335 16.5409 30.5055 16.5194 30.4757 16.4999C30.4627 16.4906 30.4496 16.4831 30.4357 16.4747C30.1136 16.2638 29.724 16.1817 29.3442 16.2447C28.9644 16.3077 28.6222 16.5112 28.3855 16.8148L19.5998 25.6015V17.7737C19.5998 17.3622 19.4363 16.9676 19.1453 16.6766C18.8543 16.3856 18.4597 16.2222 18.0482 16.2222C17.6367 16.2222 17.242 16.3856 16.951 16.6766C16.6601 16.9676 16.4966 17.3622 16.4966 17.7737V25.6015L13.2891 22.394C12.9959 22.1144 12.605 21.9606 12.1999 21.9654C11.7948 21.9703 11.4077 22.1333 11.1212 22.4198C10.8347 22.7062 10.6717 23.0934 10.6669 23.4985C10.662 23.9036 10.8159 24.2945 11.0954 24.5877L16.9514 30.4436C16.9882 30.4809 17.027 30.516 17.0678 30.5489C17.107 30.5806 17.148 30.6113 17.189 30.6421C17.4006 30.7792 17.6424 30.8627 17.8935 30.8853H17.9C17.9503 30.89 18.0006 30.8927 18.051 30.8927H18.0743C18.1165 30.8927 18.1584 30.8909 18.2001 30.8872H18.2308C18.2709 30.8825 18.311 30.8778 18.3501 30.8695H18.3678C18.4116 30.8601 18.4554 30.8499 18.4983 30.8368H18.5057C18.5525 30.8227 18.5985 30.8063 18.6436 30.7874C18.7079 30.7609 18.7702 30.7297 18.83 30.6943L18.8654 30.6738C18.924 30.6379 18.9801 30.5981 19.0332 30.5545L19.049 30.5405C19.0816 30.5125 19.1142 30.4846 19.1422 30.4529L28.051 21.5385V29.3421C28.051 29.7536 28.2144 30.1483 28.5054 30.4392C28.7964 30.7302 29.191 30.8937 29.6026 30.8937C30.0141 30.8937 30.4087 30.7302 30.6997 30.4392C30.9907 30.1483 31.1541 29.7536 31.1541 29.3421V21.5143L34.1641 24.5299C34.4563 24.8151 34.8491 24.9736 35.2574 24.9711C35.6658 24.9686 36.0566 24.8053 36.3453 24.5165C36.6339 24.2277 36.7971 23.8368 36.7995 23.4285C36.8018 23.0201 36.6431 22.6274 36.3577 22.3353Z" fill="white"/>
</g>
<defs>
<linearGradient id="paint0_linear_3224_11326" x1="0.90173" y1="10.6641" x2="47.0981" y2="37.3345" gradientUnits="userSpaceOnUse">
<stop offset="0.13" stop-color="#348BED"/>
<stop offset="0.31" stop-color="#2B80E8"/>
<stop offset="0.64" stop-color="#1461DB"/>
<stop offset="0.72" stop-color="#0E57D7"/>
</linearGradient>
</defs>
</svg>
