<svg width="48" height="48" viewBox="0 0 48 48" fill="none" xmlns="http://www.w3.org/2000/svg">
<path fill-rule="evenodd" clip-rule="evenodd" d="M29.4879 38.7675C27.779 39.4028 25.93 39.75 24 39.75C15.3015 39.75 8.25 32.6985 8.25 24C8.25 15.3015 15.3015 8.25 24 8.25C32.6985 8.25 39.75 15.3015 39.75 24C39.75 25.93 39.4028 27.779 38.7675 29.4879C39.454 29.9078 40.0597 30.447 40.5556 31.0766C41.4853 28.9044 42 26.5124 42 24C42 14.0589 33.9411 6 24 6C14.0589 6 6 14.0589 6 24C6 33.9411 14.0589 42 24 42C26.5124 42 28.9044 41.4853 31.0766 40.5556C30.447 40.0597 29.9078 39.454 29.4879 38.7675Z" fill="url(#paint0_linear_7100_10440)"/>
<path d="M28.8065 13.3322C28.8065 14.8964 26.6279 16.1644 23.9406 16.1644C21.2532 16.1644 19.0746 14.8964 19.0746 13.3322C19.0746 11.768 21.2532 10.5 23.9406 10.5C26.6279 10.5 28.8065 11.768 28.8065 13.3322Z" fill="#E6007A"/>
<path d="M35.6078 22.8802C36.9619 22.0981 36.9704 19.5769 35.6267 17.2489C34.283 14.9209 32.096 13.6677 30.7418 14.4498C29.3877 15.2318 29.3792 17.7531 30.7229 20.0811C32.0666 22.4091 34.2536 23.6623 35.6078 22.8802Z" fill="#E6007A"/>
<path d="M17.1577 27.9174C18.5014 30.2454 18.4929 32.7666 17.1387 33.5487C15.7846 34.3308 13.5976 33.0775 12.2539 30.7495C10.9102 28.4215 10.9187 25.9003 12.2728 25.1182C13.6269 24.3361 15.814 25.5893 17.1577 27.9174Z" fill="#E6007A"/>
<path d="M23.9406 37.4998C26.6279 37.4998 28.8065 36.2318 28.8065 34.6676C28.8065 33.1035 26.6279 31.8354 23.9406 31.8354C21.2532 31.8354 19.0746 33.1035 19.0746 34.6676C19.0746 36.2318 21.2532 37.4998 23.9406 37.4998Z" fill="#E6007A"/>
<path d="M35.6091 25.1197C36.9633 25.9018 36.9717 28.423 35.6281 30.751C34.2844 33.079 32.0973 34.3322 30.7432 33.5501C29.389 32.7681 29.3806 30.2468 30.7243 27.9188C32.068 25.5908 34.255 24.3376 35.6091 25.1197Z" fill="#E6007A"/>
<path d="M17.1381 14.4512C18.4922 15.2333 18.5007 17.7545 17.157 20.0825C15.8133 22.4106 13.6263 23.6638 12.2722 22.8817C10.918 22.0996 10.9095 19.5784 12.2532 17.2504C13.5969 14.9224 15.7839 13.6691 17.1381 14.4512Z" fill="#E6007A"/>
<path d="M42 32C42 37.5229 37.5229 42 32 42C26.4772 42 22 37.5229 22 32C22 26.4772 26.4772 22 32 22C37.5229 22 42 26.4772 42 32Z" fill="url(#paint1_linear_7100_10440)"/>
<path d="M31.4535 37.0343L26.1114 29.0214C25.8204 28.5848 26.1334 28 26.658 28H29.0333C29.2458 28 29.4454 28.1029 29.5687 28.2762L31.4646 30.9425C31.7265 31.3107 32.2734 31.3107 32.5354 30.9425L34.4314 28.2762C34.5546 28.1029 34.7541 28 34.9668 28H37.3419C37.8667 28 38.1797 28.5848 37.8885 29.0213L32.5466 37.0343C32.2866 37.4243 31.7135 37.4243 31.4535 37.0343Z" fill="white"/>
<path fill-rule="evenodd" clip-rule="evenodd" d="M32 23.1111C27.0908 23.1111 23.1111 27.0908 23.1111 32C23.1111 36.9092 27.0908 40.8889 32 40.8889C36.9092 40.8889 40.8889 36.9092 40.8889 32C40.8889 27.0908 36.9092 23.1111 32 23.1111ZM22 32C22 26.4772 26.4772 22 32 22C37.5228 22 42 26.4772 42 32C42 37.5228 37.5228 42 32 42C26.4772 42 22 37.5228 22 32Z" fill="white"/>
<defs>
<linearGradient id="paint0_linear_7100_10440" x1="24.0001" y1="6" x2="24.0001" y2="42" gradientUnits="userSpaceOnUse">
<stop stop-color="#7AEDCF"/>
<stop offset="0.201333" stop-color="#68CEFA"/>
<stop offset="0.403244" stop-color="#689CF8"/>
<stop offset="0.602076" stop-color="#AC57C0"/>
<stop offset="0.801867" stop-color="#E65659"/>
<stop offset="1" stop-color="#F2C241"/>
</linearGradient>
<linearGradient id="paint1_linear_7100_10440" x1="32" y1="22" x2="32" y2="42" gradientUnits="userSpaceOnUse">
<stop stop-color="#7AEDCF"/>
<stop offset="0.201333" stop-color="#68CEFA"/>
<stop offset="0.403244" stop-color="#689CF8"/>
<stop offset="0.602076" stop-color="#AC57C0"/>
<stop offset="0.801867" stop-color="#E65659"/>
<stop offset="1" stop-color="#F2C241"/>
</linearGradient>
</defs>
</svg>
