<svg width="48" height="48" viewBox="0 0 48 48" fill="none" xmlns="http://www.w3.org/2000/svg">
<path d="M24 42C33.9411 42 42 33.9411 42 24C42 14.0589 33.9411 6 24 6C14.0589 6 6 14.0589 6 24C6 33.9411 14.0589 42 24 42Z" fill="#3396FF"/>
<path d="M17.5092 20.0979C21.37 16.3329 27.6299 16.3329 31.4907 20.0979L31.9554 20.551C32.1485 20.7393 32.1485 21.0445 31.9554 21.2327L30.3659 22.7828C30.2693 22.8769 30.1129 22.8769 30.0164 22.7828L29.3769 22.1592C26.6834 19.5327 22.3165 19.5327 19.623 22.1592L18.9382 22.827C18.8416 22.9211 18.6852 22.9211 18.5887 22.827L16.9992 21.2769C16.8061 21.0887 16.8061 20.7835 16.9992 20.5953L17.5092 20.0979ZM34.7781 23.3036L36.1927 24.6831C36.3858 24.8713 36.3858 25.1766 36.1927 25.3648L29.8138 31.5853C29.6208 31.7736 29.3078 31.7736 29.1147 31.5853L24.5874 27.1705C24.5391 27.1234 24.4609 27.1234 24.4126 27.1705L19.8853 31.5853C19.6923 31.7736 19.3793 31.7736 19.1862 31.5853L12.8071 25.3647C12.6141 25.1765 12.6141 24.8712 12.8071 24.683L14.2218 23.3035C14.4149 23.1153 14.7279 23.1153 14.9209 23.3035L19.4483 27.7184C19.4966 27.7655 19.5748 27.7655 19.6231 27.7184L24.1503 23.3035C24.3433 23.1152 24.6563 23.1152 24.8494 23.3035L29.3768 27.7184C29.4251 27.7655 29.5033 27.7655 29.5516 27.7184L34.079 23.3036C34.272 23.1153 34.585 23.1153 34.7781 23.3036Z" fill="white"/>
</svg>
