<svg width="48" height="48" viewBox="0 0 48 48" fill="none" xmlns="http://www.w3.org/2000/svg">
<path d="M9.88714 26.6357C11.2594 26.6357 12.3077 26.9443 13.0316 27.5619C13.7559 28.17 14.118 29.1103 14.118 30.3831V34.572H11.1167V33.546C10.7451 34.3243 10.0067 34.7143 8.901 34.7143C8.28214 34.7143 7.75329 34.6097 7.31486 34.401C6.88629 34.1824 6.55757 33.8927 6.32871 33.5319C6.10971 33.1611 6 32.748 6 32.292C6 31.5227 6.29571 30.9386 6.88629 30.5396C7.47686 30.141 8.37257 29.9413 9.57343 29.9413H10.8737C10.7687 29.3336 10.278 29.0293 9.40157 29.0293C9.04886 29.0293 8.69186 29.0863 8.32971 29.2007C7.96757 29.3049 7.65771 29.4523 7.40057 29.6421L6.372 27.519C6.81943 27.2439 7.35771 27.03 7.98643 26.8779C8.60764 26.7186 9.24627 26.6372 9.88757 26.6357H9.88714ZM9.87343 32.7771C10.1023 32.7771 10.3071 32.7154 10.488 32.592C10.6693 32.4681 10.8026 32.2834 10.8883 32.0361V31.4949H10.0877C9.43029 31.4949 9.10157 31.7134 9.10157 32.1501C9.10157 32.3306 9.168 32.4827 9.30129 32.6061C9.44443 32.7201 9.63514 32.7771 9.873 32.7771H9.87343ZM15.5139 24H18.744V34.572H15.5139V24ZM28.4936 30.6681C28.4936 30.7153 28.4794 30.9673 28.4507 31.4233H23.0199C23.1274 31.7094 23.329 31.9504 23.5916 32.1069C23.8581 32.259 24.1916 32.3349 24.5919 32.3349C24.9347 32.3349 25.2206 32.292 25.449 32.2063C25.6877 32.121 25.9449 31.974 26.2213 31.7649L27.9077 33.4603C27.1453 34.2964 26.0066 34.7143 24.492 34.7143C23.5483 34.7143 22.7194 34.5433 22.005 34.2013C21.2906 33.8499 20.7377 33.3656 20.3473 32.7484C19.9564 32.1309 19.761 31.437 19.761 30.6681C19.761 29.889 19.9517 29.1956 20.3327 28.5879C20.7236 27.9707 21.2524 27.4907 21.9193 27.1487C22.5956 26.8067 23.3533 26.6357 24.1916 26.6357C24.9823 26.6357 25.7019 26.7926 26.3499 27.1059C26.9921 27.4058 27.5334 27.886 27.9077 28.488C28.2981 29.0961 28.4936 29.8226 28.4936 30.6681ZM24.2203 28.8296C23.8869 28.8296 23.6104 28.9204 23.3914 29.1009C23.172 29.2809 23.0293 29.538 22.9629 29.8701H25.4781C25.4113 29.547 25.2681 29.2954 25.0496 29.115C24.8301 28.9251 24.5537 28.8296 24.2203 28.8296ZM32.5856 27.6189C33.1573 26.9631 34.0007 26.6357 35.1154 26.6357V29.4857C34.8583 29.4471 34.62 29.4283 34.401 29.4283C33.2953 29.4283 32.7429 29.9889 32.7429 31.1096V34.572H29.5131V26.7784H32.586L32.5856 27.6189ZM42 34.3011C41.514 34.5767 40.8519 34.7143 40.0136 34.7143C38.9177 34.7143 38.0743 34.4529 37.4837 33.9309C36.8927 33.3986 36.5974 32.6057 36.5974 31.5514V29.5564H35.526V27.2057H36.5974V25.026H39.8276V27.2057H41.4283V29.5564H39.8276V31.5227C39.8276 31.7601 39.8897 31.9453 40.0136 32.0786C40.1374 32.2114 40.2994 32.2779 40.4991 32.2779C40.7756 32.2779 41.0186 32.2067 41.2281 32.0644L42 34.3011Z" fill="#3E7CF4"/>
<path d="M34.696 22.26H27.0202L23.8137 25.1169L20.6075 22.2596H12.9318C12.571 22.2596 12.2247 22.1151 11.9701 21.8584C11.7147 21.6008 11.5714 21.2526 11.5715 20.8899V13.3697C11.5715 13.0063 11.7147 12.6579 11.9701 12.4011C12.096 12.2741 12.2458 12.1733 12.4109 12.1044C12.5759 12.0356 12.753 12.0001 12.9318 12H34.696C35.0564 12 35.4027 12.1444 35.6577 12.4011C35.9127 12.6583 36.0562 13.0067 36.0562 13.3697V20.8894C36.0562 21.2529 35.9127 21.6013 35.6577 21.858C35.4027 22.1151 35.0564 22.2596 34.696 22.2596V22.26Z" fill="url(#paint0_linear_5542_5460)"/>
<path d="M15.1298 13.9886H13.2856L14.5645 19.9967H16.4742L17.1711 16.7653L17.8679 19.9967H19.7776L21.0565 13.989H19.2119L18.6792 17.8221L18.1221 15.0107H16.2119L15.6629 17.8221L15.1298 13.9886Z" fill="white"/>
<path fill-rule="evenodd" clip-rule="evenodd" d="M27.1829 19.1846C27.4452 19.7726 27.8905 20.0666 28.5188 20.0666C28.8688 20.0667 29.2111 19.9631 29.5028 19.7696C29.8164 19.5692 30.071 19.2889 30.2404 18.9574C30.4264 18.6137 30.5189 18.2327 30.5189 17.8136C30.5189 17.3884 30.4285 17.0044 30.2485 16.6607C30.0852 16.3301 29.8325 16.0518 29.5191 15.8576C29.2131 15.6596 28.8771 15.5606 28.5106 15.5606C28.1991 15.5606 27.9342 15.6304 27.7156 15.7701C27.4971 15.9099 27.3196 16.134 27.1829 16.4426V13.9714L25.4451 14.2423V19.9967H27.1829V19.1846ZM28.5685 18.4247C28.4099 18.5991 28.2184 18.6866 27.9942 18.6866C27.7756 18.6866 27.5845 18.6021 27.4204 18.4333C27.2622 18.2649 27.1829 18.0579 27.1829 17.8136V17.7784C27.1813 17.67 27.2015 17.5623 27.2423 17.4619C27.2831 17.3614 27.3436 17.2701 27.4204 17.1934C27.4925 17.1128 27.581 17.0485 27.6799 17.0049C27.7789 16.9613 27.8861 16.9394 27.9942 16.9406C28.2128 16.9406 28.4014 17.0246 28.5599 17.1934C28.7241 17.3623 28.8059 17.5693 28.8059 17.8136C28.8059 18.0463 28.7266 18.2503 28.5685 18.4247Z" fill="white"/>
<path d="M30.5099 19.752C31.0126 19.9791 31.5616 20.0927 32.1573 20.0927C32.5726 20.0927 32.9391 20.0228 33.2562 19.8831C33.5785 19.7374 33.8271 19.5334 34.0019 19.272C34.1823 19.0097 34.2723 18.7011 34.2723 18.3462C34.2723 18.0257 34.1793 17.7347 33.9933 17.4728C33.8133 17.211 33.5673 17.0044 33.2562 16.8531C33.4868 16.7177 33.6786 16.5252 33.8133 16.2942C33.9552 16.0611 34.0268 15.8022 34.0268 15.5168C34.0268 15.0745 33.8682 14.7252 33.5511 14.469C33.2395 14.2131 32.8323 14.085 32.3296 14.085C31.6694 14.0848 31.0192 14.2469 30.4362 14.5568L30.7559 15.744C31.1819 15.546 31.5946 15.447 31.9936 15.447C32.4145 15.447 32.6245 15.5781 32.6245 15.84C32.6245 16.0324 32.5019 16.1807 32.2559 16.2852C32.0155 16.3902 31.6521 16.4425 31.1656 16.4425V17.5251C31.7013 17.5251 32.0836 17.5778 32.3133 17.6824C32.5426 17.7874 32.6575 17.9648 32.6575 18.2151C32.6575 18.5704 32.4333 18.7478 31.9855 18.7478C31.6139 18.7478 31.2119 18.6548 30.7803 18.4684L30.5099 19.752Z" fill="white"/>
<path fill-rule="evenodd" clip-rule="evenodd" d="M22.0353 19.7648C22.3902 19.9568 22.7948 20.0528 23.2482 20.0528C23.8546 20.0528 24.4122 19.9337 24.9205 19.695L24.7156 18.525C24.2836 18.7285 23.8821 18.8305 23.5105 18.8305C23.2701 18.8305 23.0759 18.7868 22.9285 18.6998C22.7811 18.6064 22.6743 18.4581 22.6088 18.2541L25.0679 17.9138C25.0791 17.8671 25.0842 17.7912 25.0842 17.6867C25.0842 17.2851 25.0135 16.9242 24.8712 16.6041C24.7379 16.2885 24.5121 16.0206 24.2236 15.8357C23.9395 15.6432 23.5953 15.5472 23.1908 15.5472C22.7699 15.5472 22.3876 15.6402 22.0435 15.8267C21.7017 16.0105 21.4179 16.2857 21.2236 16.6217C21.0213 16.9645 20.9202 17.3575 20.9202 17.8002C20.9202 18.231 21.0183 18.618 21.2155 18.9617C21.4114 19.2984 21.6947 19.5759 22.0353 19.7648ZM23.1908 16.6037C23.5186 16.6037 23.7265 16.7871 23.8139 17.154L22.5436 17.451C22.5488 17.2007 22.6088 16.9967 22.7236 16.8394C22.7757 16.7643 22.8457 16.7034 22.9273 16.6622C23.0089 16.6211 23.0994 16.601 23.1908 16.6037Z" fill="white"/>
<defs>
<linearGradient id="paint0_linear_5542_5460" x1="23.8137" y1="5.81871" x2="23.8137" y2="27.7401" gradientUnits="userSpaceOnUse">
<stop stop-color="#FF6E3F"/>
<stop offset="1" stop-color="#FF4040"/>
</linearGradient>
</defs>
</svg>
