<svg width="48" height="48" viewBox="0 0 48 48" fill="none" xmlns="http://www.w3.org/2000/svg">
<path d="M23.9167 17.0438V25.6769L31.0931 29.4644L23.9167 17.0438Z" fill="#B5C0F1"/>
<path d="M23.9167 25.6769L16.7404 29.4644H31.0931L23.9167 25.6769Z" fill="#221363"/>
<path d="M23.9167 17.0438L16.7404 29.4644L23.9321 25.6769L23.9167 17.0438Z" fill="#03A5ED"/>
<path fill-rule="evenodd" clip-rule="evenodd" d="M10.0177 34.3882H37.8231C37.9945 34.7413 38.3566 34.9846 38.7754 34.9846C39.3598 34.9846 39.8335 34.5109 39.8335 33.9266C39.8335 33.3423 39.3598 32.8686 38.7754 32.8686C38.7261 32.8686 38.6775 32.8719 38.63 32.8785L24.7061 8.76259C24.8732 8.5755 24.9748 8.32863 24.9748 8.05805C24.9748 7.4737 24.5011 7 23.9167 7C23.3324 7 22.8587 7.4737 22.8587 8.05805C22.8587 8.32864 22.9603 8.5755 23.1274 8.76259L9.19525 32.8927C9.15034 32.8869 9.10454 32.8839 9.05805 32.8839C8.4737 32.8839 8 33.3576 8 33.9419C8 34.5263 8.4737 35 9.05805 35C9.48295 35 9.84935 34.7495 10.0177 34.3882ZM24.24 9.06581C24.1381 9.09847 24.0295 9.1161 23.9167 9.1161C23.804 9.1161 23.6954 9.09847 23.5935 9.06581L9.71126 33.1096C9.9309 33.2822 10.0805 33.5398 10.1105 33.8329H37.7215C37.7475 33.5362 37.896 33.2746 38.1161 33.099L24.24 9.06581Z" fill="#03A5ED"/>
</svg>
