<svg width="48" height="48" viewBox="0 0 48 48" fill="none" xmlns="http://www.w3.org/2000/svg">
<g clip-path="url(#clip0_3176_5068)">
<path d="M0 12C0 5.37258 5.37258 0 12 0H36C42.6274 0 48 5.37258 48 12V36C48 42.6274 42.6274 48 36 48H12C5.37258 48 0 42.6274 0 36V12Z" fill="url(#paint0_linear_3176_5068)"/>
<path d="M10.0484 14.9357L24.0162 20.0471V16.1115L10.0484 11V14.9357Z" fill="white"/>
<path d="M10 22.7252L23.9516 27.8367V23.901L10 18.7895V22.7252Z" fill="white"/>
<path d="M23.9516 35.7244L10 30.6129V26.6936L23.9356 31.7828V27.8531L34.1818 31.6091V19.8185L24.0484 16.1114V12.1758L38 17.2872L37.9033 36.9002L23.9516 31.7946V35.7244Z" fill="white"/>
</g>
<defs>
<linearGradient id="paint0_linear_3176_5068" x1="0" y1="0" x2="42.4567" y2="52.4842" gradientUnits="userSpaceOnUse">
<stop stop-color="#00EB81"/>
<stop offset="0.884004" stop-color="#0B828C"/>
</linearGradient>
<clipPath id="clip0_3176_5068">
<rect width="48" height="48" fill="white"/>
</clipPath>
</defs>
</svg>
