<svg width="48" height="48" viewBox="0 0 48 48" fill="none" xmlns="http://www.w3.org/2000/svg">
<g clip-path="url(#clip0_3895_10546)">
<path d="M0 12C0 5.37258 5.37258 0 12 0H36C42.6274 0 48 5.37258 48 12V36C48 42.6274 42.6274 48 36 48H12C5.37258 48 0 42.6274 0 36V12Z" fill="url(#paint0_linear_3895_10546)"/>
<path d="M23.9527 8.23043C24.0384 8.23043 24.1241 8.25406 24.2009 8.29542L37.4269 15.9321C37.5805 16.0207 37.675 16.1861 37.675 16.3604V31.6307C37.675 31.808 37.5805 31.9705 37.4269 32.0591L35.415 33.2207L30.1152 18.6972C30.0206 18.4343 29.6484 18.4343 29.5539 18.6972L27.8109 23.4771C27.7636 23.61 27.7636 23.7548 27.8109 23.8877L31.9467 35.2233L30.5679 36.0194L27.1817 26.7356C27.0871 26.4727 26.7149 26.4727 26.6204 26.7356L24.8774 31.5155C24.8301 31.6485 24.8301 31.7932 24.8774 31.9261L27.0998 38.0219L24.2009 39.6957C24.127 39.74 24.0384 39.7607 23.9527 39.7607C23.8671 39.7607 23.7814 39.7371 23.7046 39.6957L20.8295 38.037L28.9867 15.6721C29.0576 15.4772 28.9129 15.2704 28.7061 15.2704H25.353C25.1019 15.2704 24.8774 15.4269 24.7917 15.6633L16.5849 38.1625L16.5828 38.1647L22.5908 41.6337C23.0133 41.8759 23.483 42 23.9557 42C24.4254 42 24.8981 41.8789 25.3205 41.6337L38.5465 33.997C39.3914 33.5096 39.9114 32.6086 39.9114 31.6337V16.3634C39.9114 15.3885 39.3914 14.4874 38.5465 14L25.3176 6.36632C24.8951 6.12112 24.4225 6 23.9527 6C23.483 6 23.0103 6.12112 22.5879 6.36632L9.36484 14C8.51994 14.4874 8 15.3885 8 16.3634V31.6337C8 32.6086 8.51994 33.5096 9.36484 33.997L15.2053 37.3708L15.2058 37.3696L15.9832 35.2409L15.9823 35.2404L23.1196 15.6721C23.1935 15.4771 23.0487 15.2703 22.839 15.2703H19.486C19.2348 15.2703 19.0103 15.4269 18.9247 15.6632L12.5136 33.2391L10.4786 32.065C10.325 31.9764 10.2304 31.8109 10.2304 31.6366V16.3634C10.2304 16.1861 10.325 16.0236 10.4786 15.935L23.7046 8.29838C23.7814 8.25406 23.8671 8.23043 23.9527 8.23043Z" fill="white"/>
</g>
<defs>
<linearGradient id="paint0_linear_3895_10546" x1="48" y1="48" x2="-2.71797e-05" y2="2.71797e-05" gradientUnits="userSpaceOnUse">
<stop stop-color="#12AAFF"/>
<stop offset="1" stop-color="#9DCCED"/>
</linearGradient>
<clipPath id="clip0_3895_10546">
<rect width="48" height="48" fill="white"/>
</clipPath>
</defs>
</svg>
