<svg width="48" height="48" viewBox="0 0 48 48" fill="none" xmlns="http://www.w3.org/2000/svg">
<g clip-path="url(#clip0_5061_11267)">
<path d="M0 12C0 5.37258 5.37258 0 12 0H36C42.6274 0 48 5.37258 48 12V36C48 42.6274 42.6274 48 36 48H12C5.37258 48 0 42.6274 0 36V12Z" fill="url(#paint0_linear_5061_11267)"/>
<path d="M24.2486 12.9635C26.1741 12.9635 27.7351 11.4047 27.7351 9.48175C27.7351 7.55883 26.1741 6 24.2486 6C22.323 6 20.7621 7.55883 20.7621 9.48175C20.7621 11.4047 22.323 12.9635 24.2486 12.9635Z" fill="white"/>
<path fill-rule="evenodd" clip-rule="evenodd" d="M33.3268 29.3869H28.3273L27.4063 27.0876H21.091L20.17 29.3869H15.1705L21.1568 15.854H27.4063L33.3268 29.3869ZM24.2486 19.3358L22.604 23.4088H25.8932L24.2486 19.3358Z" fill="white"/>
<path d="M27.7351 38.5183C27.7351 40.4412 26.1741 42 24.2486 42C22.323 42 20.7621 40.4412 20.7621 38.5183C20.7621 36.5953 22.323 35.0365 24.2486 35.0365C26.1741 35.0365 27.7351 36.5953 27.7351 38.5183Z" fill="white"/>
<path d="M11.4865 19.8612C13.4121 19.8612 14.9731 18.3024 14.9731 16.3795C14.9731 14.4566 13.4121 12.8977 11.4865 12.8977C9.56093 12.8977 8 14.4566 8 16.3795C8 18.3024 9.56093 19.8612 11.4865 19.8612Z" fill="white"/>
<path d="M40.4973 16.3795C40.4973 18.3024 38.9363 19.8612 37.0107 19.8612C35.0851 19.8612 33.5241 18.3024 33.5241 16.3795C33.5241 14.4566 35.0851 12.8978 37.0107 12.8978C38.9363 12.8978 40.4973 14.4566 40.4973 16.3795Z" fill="white"/>
<path d="M11.4865 35.2336C13.4121 35.2336 14.9731 33.6748 14.9731 31.7518C14.9731 29.8289 13.4121 28.2701 11.4865 28.2701C9.56093 28.2701 8 29.8289 8 31.7518C8 33.6748 9.56093 35.2336 11.4865 35.2336Z" fill="white"/>
<path d="M40.4973 31.7518C40.4973 33.6747 38.9363 35.2336 37.0107 35.2336C35.0851 35.2336 33.5241 33.6747 33.5241 31.7518C33.5241 29.8289 35.0851 28.2701 37.0107 28.2701C38.9363 28.2701 40.4973 29.8289 40.4973 31.7518Z" fill="white"/>
</g>
<defs>
<linearGradient id="paint0_linear_5061_11267" x1="48" y1="48" x2="-2.62577e-05" y2="2.62577e-05" gradientUnits="userSpaceOnUse">
<stop stop-color="#434852"/>
<stop offset="1" stop-color="#787F92"/>
</linearGradient>
<clipPath id="clip0_5061_11267">
<rect width="48" height="48" fill="white"/>
</clipPath>
</defs>
</svg>
