<svg width="48" height="48" viewBox="0 0 48 48" fill="none" xmlns="http://www.w3.org/2000/svg">
<g clip-path="url(#clip0_2011_5964)">
<path d="M0 12C0 5.37258 5.37258 0 12 0H36C42.6274 0 48 5.37258 48 12V36C48 42.6274 42.6274 48 36 48H12C5.37258 48 0 42.6274 0 36V12Z" fill="url(#paint0_linear_2011_5964)"/>
<path d="M29.5087 13.1097C29.1446 12.0643 28.8091 11.0454 28.4598 9.99976C28.1257 8.99989 27.7917 7.99994 27.4446 7H19.333L10.1938 33.8838C9.38245 36.3204 11.2177 39 13.8464 39C15.5707 39 17.1227 37.9014 17.6713 36.2536L23.4558 19.1L23.5375 18.8566C24.4545 21.5552 25.3578 24.2587 26.2611 26.9622L26.2669 26.9797C27.3922 30.3475 28.5174 33.7153 29.669 37.0735C29.8078 37.4686 30.1929 37.7532 30.6088 37.7532H37.8342L29.5087 13.1097C29.6093 13.4075 29.603 13.3889 29.5087 13.1097Z" fill="white"/>
</g>
<defs>
<linearGradient id="paint0_linear_2011_5964" x1="48" y1="48" x2="0.146965" y2="-0.14607" gradientUnits="userSpaceOnUse">
<stop offset="0.151042" stop-color="#3300A0"/>
<stop offset="0.848958" stop-color="#5100FF"/>
</linearGradient>
<clipPath id="clip0_2011_5964">
<rect width="48" height="48" fill="white"/>
</clipPath>
</defs>
</svg>
