<svg width="48" height="48" viewBox="0 0 48 48" fill="none" xmlns="http://www.w3.org/2000/svg">
<g clip-path="url(#clip0_1304_1037)">
<path d="M0 12C0 5.37258 5.37258 0 12 0H36C42.6274 0 48 5.37258 48 12V36C48 42.6274 42.6274 48 36 48H12C5.37258 48 0 42.6274 0 36V12Z" fill="url(#paint0_linear_1304_1037)"/>
<path fill-rule="evenodd" clip-rule="evenodd" d="M21.1286 22.4819H13C13 17.7735 14.4129 12.8182 16.9308 9.58562C19.4161 10.9186 21.5199 12.8739 23.0352 15.244C22.3612 16.3844 21.1286 18.9523 21.1286 22.4819ZM23.1593 32.8191C22.4947 31.7124 21.2151 29.1144 21.2151 25.5181H13.0865C13.0865 30.2994 14.5435 35.3352 17.135 38.5632C19.5994 37.1961 21.6765 35.2121 23.1593 32.8191ZM17.7133 39.2327C22.5759 36.4669 25.9709 31.4062 26.4355 25.5181H34.2727C34.2727 33.412 30.0418 42 23.5499 42C21.2737 42 19.3073 40.9442 17.7133 39.2327ZM26.413 22.4819C25.8622 16.6192 22.4033 11.6053 17.4985 8.90735C19.1148 7.11358 21.1257 6 23.4634 6C29.9553 6 34.1862 14.588 34.1862 22.4819H26.413Z" fill="white"/>
<path d="M0 28H8C14.6274 28 20 33.3726 20 40V48H12C5.37258 48 0 42.6274 0 36V28Z" fill="#3F3F3F"/>
<path d="M15.0043 35.0379C14.8338 34.903 14.6304 34.7187 14.2599 34.6727C13.9123 34.6266 13.5581 34.8602 13.3187 35.0149C13.0793 35.1696 12.6268 35.6237 12.4399 35.7619C12.2529 35.9001 11.7742 36.0285 11.0035 36.4925C10.2329 36.9565 7.20934 38.9046 7.20934 38.9046L7.99638 38.9145L4.4875 40.7278H4.83839L4.33337 41.1128C4.33337 41.1128 4.77936 41.2312 5.1532 40.9943V41.1029C5.1532 41.1029 9.33106 39.4509 10.1378 39.8787L9.64587 40.0235C9.68851 40.0235 10.4821 40.0762 10.4821 40.0762C10.5014 40.2411 10.5566 40.3997 10.6439 40.5408C10.7312 40.6818 10.8484 40.8018 10.9871 40.8923C11.4659 41.2082 11.4757 41.3826 11.4757 41.3826C11.4757 41.3826 11.2265 41.4846 11.2265 41.613C11.2265 41.613 11.5938 41.5011 11.9348 41.511C12.1513 41.5192 12.366 41.5535 12.5743 41.613C12.5743 41.613 12.5481 41.4748 12.2169 41.3826C11.8857 41.2905 11.5577 40.9285 11.397 40.731C11.2986 40.6054 11.2345 40.4561 11.2109 40.2981C11.1873 40.14 11.2051 39.9785 11.2626 39.8294C11.3774 39.5299 11.7774 39.3654 12.6038 38.9376C13.5778 38.4308 13.8008 38.0556 13.9385 37.7627C14.0762 37.4698 14.2796 36.8874 14.3943 36.6142C14.5386 36.2621 14.7157 36.0745 14.8633 35.9627C15.0108 35.8508 15.6667 35.604 15.6667 35.604C15.6667 35.604 15.165 35.1663 15.0043 35.0379Z" fill="white"/>
</g>
<defs>
<linearGradient id="paint0_linear_1304_1037" x1="48" y1="48" x2="-2.71797e-05" y2="2.71797e-05" gradientUnits="userSpaceOnUse">
<stop offset="0.161458" stop-color="#DF5262"/>
<stop offset="0.53125" stop-color="#EC725D"/>
<stop offset="0.753207" stop-color="#F38861"/>
</linearGradient>
<clipPath id="clip0_1304_1037">
<rect width="48" height="48" fill="white"/>
</clipPath>
</defs>
</svg>
