<svg width="48" height="48" viewBox="0 0 48 48" fill="none" xmlns="http://www.w3.org/2000/svg">
<g clip-path="url(#clip0_1309_583)">
<path d="M0 12C0 5.37258 5.37258 0 12 0H36C42.6274 0 48 5.37258 48 12V36C48 42.6274 42.6274 48 36 48H12C5.37258 48 0 42.6274 0 36V12Z" fill="url(#paint0_linear_1309_583)"/>
<path d="M18.9112 13.0002L8.32278 13C8.14448 13 8 13.1445 8 13.3225L8.00023 26.4505C8.00023 26.6288 8.14471 26.7732 8.32301 26.7732H14.0778C14.2561 26.7732 14.4006 26.6288 14.4006 26.4505V20.6962C14.4006 20.6957 14.4004 20.6953 14.4004 20.6946V19.7785C14.4004 19.5698 14.569 19.4005 14.7779 19.4H18.9115C19.0898 19.4 19.2343 19.2556 19.2343 19.0773V13.3228C19.2338 13.1447 19.0893 13.0002 18.9112 13.0002Z" fill="white"/>
<path d="M14.0776 29.0002H8.32278C8.14448 29.0002 8 29.1446 8 29.3229V35.0772C8 35.2555 8.14448 35.4 8.32278 35.4H14.0776C14.2559 35.4 14.4004 35.2555 14.4004 35.0772V29.3229C14.4004 29.1446 14.2559 29.0002 14.0776 29.0002Z" fill="white"/>
<path d="M35.7144 13.0929L39.9043 17.2814C39.9613 17.3477 39.9995 17.4314 40 17.5257V35.0773C40 35.2556 39.8555 35.4 39.6772 35.4H33.9224C33.7441 35.4 33.5996 35.2556 33.5996 35.0773V19.8657C33.6001 19.7074 33.5674 19.4 33.1512 19.4H27.5775C27.3686 19.4 27.1997 19.5691 27.1995 19.7778V35.0773C27.1995 35.2556 27.055 35.4 26.8767 35.4H21.1219C20.9436 35.4 20.7991 35.2556 20.7991 35.0773V13.3228C20.7991 13.1445 20.9436 13 21.1219 13H35.4737C35.5202 13 35.5639 13.0094 35.6042 13.0258C35.6444 13.0421 35.6815 13.0651 35.7144 13.0929Z" fill="white"/>
<path d="M0 28H8C14.6274 28 20 33.3726 20 40V48H12C5.37258 48 0 42.6274 0 36V28Z" fill="#D43079"/>
<path d="M9.99889 34.5169C11.1934 34.5169 12.1617 33.9535 12.1617 33.2585C12.1617 32.5634 11.1934 32 9.99889 32C8.80439 32 7.83606 32.5634 7.83606 33.2585C7.83606 33.9535 8.80439 34.5169 9.99889 34.5169Z" fill="white"/>
<path d="M9.99889 43.9991C11.1934 43.9991 12.1617 43.4357 12.1617 42.7407C12.1617 42.0457 11.1934 41.4822 9.99889 41.4822C8.80439 41.4822 7.83606 42.0457 7.83606 42.7407C7.83606 43.4357 8.80439 43.9991 9.99889 43.9991Z" fill="white"/>
<path d="M6.98482 36.2589C7.58207 35.224 7.5782 34.1032 6.97617 33.7554C6.37413 33.4077 5.40192 33.9647 4.80467 34.9996C4.20742 36.0345 4.21129 37.1554 4.81333 37.5031C5.41536 37.8509 6.38757 37.2938 6.98482 36.2589Z" fill="white"/>
<path d="M15.1921 40.9995C15.7894 39.9646 15.7858 38.8439 15.1842 38.4964C14.5826 38.1489 13.6107 38.7061 13.0135 39.741C12.4162 40.7759 12.4198 41.8966 13.0214 42.2441C13.623 42.5916 14.5949 42.0344 15.1921 40.9995Z" fill="white"/>
<path d="M6.97647 42.2438C7.5785 41.896 7.58238 40.7752 6.98513 39.7403C6.38788 38.7054 5.41566 38.1484 4.81363 38.4961C4.2116 38.8438 4.20772 39.9647 4.80497 40.9996C5.40222 42.0345 6.37444 42.5915 6.97647 42.2438Z" fill="white"/>
<path d="M15.1847 37.5034C15.7864 37.1559 15.7899 36.0352 15.1927 35.0003C14.5954 33.9654 13.6235 33.4082 13.0219 33.7557C12.4203 34.1032 12.4167 35.2239 13.014 36.2588C13.6112 37.2937 14.5831 37.8509 15.1847 37.5034Z" fill="white"/>
</g>
<defs>
<linearGradient id="paint0_linear_1309_583" x1="48" y1="48" x2="-2.62577e-05" y2="2.62577e-05" gradientUnits="userSpaceOnUse">
<stop stop-color="#4D30AF"/>
<stop offset="0.276718" stop-color="#742CB6"/>
<stop offset="0.505058" stop-color="#4F53CC"/>
<stop offset="1" stop-color="#05D5FF"/>
</linearGradient>
<clipPath id="clip0_1309_583">
<rect width="48" height="48" fill="white"/>
</clipPath>
</defs>
</svg>
