<svg width="48" height="48" viewBox="0 0 48 48" fill="none" xmlns="http://www.w3.org/2000/svg">
<g clip-path="url(#clip0_1301_815)">
<path d="M0 12C0 5.37258 5.37258 0 12 0H36C42.6274 0 48 5.37258 48 12V36C48 42.6274 42.6274 48 36 48H12C5.37258 48 0 42.6274 0 36V12Z" fill="url(#paint0_linear_1301_815)"/>
<path d="M18.9112 13.0002L8.32278 13C8.14448 13 8 13.1445 8 13.3225L8.00023 26.4505C8.00023 26.6288 8.14471 26.7732 8.32301 26.7732H14.0778C14.2561 26.7732 14.4006 26.6288 14.4006 26.4505V20.6962C14.4006 20.6957 14.4004 20.6953 14.4004 20.6946V19.7785C14.4004 19.5698 14.569 19.4005 14.7779 19.4H18.9115C19.0898 19.4 19.2343 19.2556 19.2343 19.0773V13.3228C19.2338 13.1447 19.0893 13.0002 18.9112 13.0002Z" fill="white"/>
<path d="M14.0776 29.0002H8.32278C8.14448 29.0002 8 29.1446 8 29.3229V35.0772C8 35.2555 8.14448 35.4 8.32278 35.4H14.0776C14.2559 35.4 14.4004 35.2555 14.4004 35.0772V29.3229C14.4004 29.1446 14.2559 29.0002 14.0776 29.0002Z" fill="white"/>
<path d="M35.7144 13.0929L39.9043 17.2814C39.9613 17.3477 39.9995 17.4314 40 17.5257V35.0773C40 35.2556 39.8555 35.4 39.6772 35.4H33.9224C33.7441 35.4 33.5996 35.2556 33.5996 35.0773V19.8657C33.6001 19.7074 33.5674 19.4 33.1512 19.4H27.5775C27.3686 19.4 27.1997 19.5691 27.1995 19.7778V35.0773C27.1995 35.2556 27.055 35.4 26.8767 35.4H21.1219C20.9436 35.4 20.7991 35.2556 20.7991 35.0773V13.3228C20.7991 13.1445 20.9436 13 21.1219 13H35.4737C35.5202 13 35.5639 13.0094 35.6042 13.0258C35.6444 13.0421 35.6815 13.0651 35.7144 13.0929Z" fill="white"/>
<path d="M0 28H8C14.6274 28 20 33.3726 20 40V48H12C5.37258 48 0 42.6274 0 36V28Z" fill="#3F3F3F"/>
<path d="M15.0043 35.0379C14.8338 34.903 14.6304 34.7187 14.2599 34.6727C13.9123 34.6266 13.5581 34.8602 13.3187 35.0149C13.0793 35.1696 12.6268 35.6237 12.4399 35.7619C12.2529 35.9001 11.7742 36.0285 11.0035 36.4925C10.2329 36.9565 7.20934 38.9046 7.20934 38.9046L7.99638 38.9145L4.4875 40.7278H4.83839L4.33337 41.1128C4.33337 41.1128 4.77936 41.2312 5.1532 40.9943V41.1029C5.1532 41.1029 9.33106 39.4509 10.1378 39.8787L9.64587 40.0235C9.68851 40.0235 10.4821 40.0762 10.4821 40.0762C10.5014 40.2411 10.5566 40.3997 10.6439 40.5408C10.7312 40.6818 10.8484 40.8018 10.9871 40.8923C11.4659 41.2082 11.4757 41.3826 11.4757 41.3826C11.4757 41.3826 11.2265 41.4846 11.2265 41.613C11.2265 41.613 11.5938 41.5011 11.9348 41.511C12.1513 41.5192 12.366 41.5535 12.5743 41.613C12.5743 41.613 12.5481 41.4748 12.2169 41.3826C11.8857 41.2905 11.5577 40.9285 11.397 40.731C11.2986 40.6054 11.2345 40.4561 11.2109 40.2981C11.1873 40.14 11.2051 39.9785 11.2626 39.8294C11.3774 39.5299 11.7774 39.3654 12.6038 38.9376C13.5778 38.4308 13.8008 38.0556 13.9385 37.7627C14.0762 37.4698 14.2796 36.8874 14.3943 36.6142C14.5386 36.2621 14.7157 36.0745 14.8633 35.9627C15.0108 35.8508 15.6667 35.604 15.6667 35.604C15.6667 35.604 15.165 35.1663 15.0043 35.0379Z" fill="white"/>
</g>
<defs>
<linearGradient id="paint0_linear_1301_815" x1="48" y1="48" x2="-2.62577e-05" y2="2.62577e-05" gradientUnits="userSpaceOnUse">
<stop stop-color="#D20000"/>
<stop offset="0.354941" stop-color="#D422D0"/>
<stop offset="0.62031" stop-color="#BA7CFF"/>
<stop offset="0.833342" stop-color="#BDD9FF"/>
</linearGradient>
<clipPath id="clip0_1301_815">
<rect width="48" height="48" fill="white"/>
</clipPath>
</defs>
</svg>
