<svg width="48" height="48" viewBox="0 0 48 48" fill="none" xmlns="http://www.w3.org/2000/svg">
<g clip-path="url(#clip0_2053_5969)">
<path d="M0 12C0 5.37258 5.37258 0 12 0H36C42.6274 0 48 5.37258 48 12V36C48 42.6274 42.6274 48 36 48H12C5.37258 48 0 42.6274 0 36V12Z" fill="url(#paint0_linear_2053_5969)"/>
<path fill-rule="evenodd" clip-rule="evenodd" d="M29.6379 12.0353H15.9116V17.9647H29.6379C31.2876 17.9647 32.625 16.6374 32.625 15C32.625 13.3626 31.2876 12.0353 29.6379 12.0353ZM12 9V18.0353V21V27V30.0353V39H30.7047C34.0434 39 36.75 36.3137 36.75 33C36.75 31.2175 35.9669 29.6166 34.7235 28.5176C35.9669 27.4187 36.75 25.8178 36.75 24.0353C36.75 22.2336 35.9499 20.6175 34.6832 19.5176C35.9499 18.4178 36.75 16.8017 36.75 15C36.75 11.6863 34.0434 9 30.7047 9H12ZM29.6379 30.0353H15.9116V35.9647H29.6379C31.2876 35.9647 32.625 34.6374 32.625 33C32.625 31.3626 31.2876 30.0353 29.6379 30.0353ZM29.6379 27C31.2876 27 32.625 25.6727 32.625 24.0353C32.625 22.3979 31.2876 21.0706 29.6379 21.0706H15.9116V27H29.6379Z" fill="white"/>
</g>
<defs>
<linearGradient id="paint0_linear_2053_5969" x1="48" y1="48" x2="0.146965" y2="-0.14607" gradientUnits="userSpaceOnUse">
<stop offset="0.145833" stop-color="#9BC100"/>
<stop offset="0.859375" stop-color="#BDEC00"/>
</linearGradient>
<clipPath id="clip0_2053_5969">
<rect width="48" height="48" fill="white"/>
</clipPath>
</defs>
</svg>
