<svg width="48" height="48" viewBox="0 0 48 48" fill="none" xmlns="http://www.w3.org/2000/svg">
<g clip-path="url(#clip0_2955_4124)">
<path d="M0 12C0 5.37258 5.37258 0 12 0H36C42.6274 0 48 5.37258 48 12V36C48 42.6274 42.6274 48 36 48H12C5.37258 48 0 42.6274 0 36V12Z" fill="url(#paint0_linear_2955_4124)"/>
<path d="M9 13.4966C9 10.4882 11.4564 8 14.4791 8H39C39 11.0084 36.5436 13.4966 33.5209 13.4966H21.497C24.6443 13.6624 27.1882 16.2649 27.1882 19.4355V32.5527C27.1882 36.376 27.5454 38.4567 31.0123 38.8209C29.7753 39.6878 28.7475 39.9999 26.9269 39.9999C24.7318 39.9999 21.1778 38.6215 21.1778 34.4514V13.4966H9Z" fill="white"/>
</g>
<defs>
<linearGradient id="paint0_linear_2955_4124" x1="0" y1="0" x2="42.4567" y2="52.4842" gradientUnits="userSpaceOnUse">
<stop offset="0.130208" stop-color="#353535"/>
<stop offset="0.80877" stop-color="#282828"/>
</linearGradient>
<clipPath id="clip0_2955_4124">
<rect width="48" height="48" fill="white"/>
</clipPath>
</defs>
</svg>
