<svg width="48" height="48" viewBox="0 0 48 48" fill="none" xmlns="http://www.w3.org/2000/svg">
<g clip-path="url(#clip0_5061_11315)">
<path d="M0 12C0 5.37258 5.37258 0 12 0H36C42.6274 0 48 5.37258 48 12V36C48 42.6274 42.6274 48 36 48H12C5.37258 48 0 42.6274 0 36V12Z" fill="url(#paint0_linear_5061_11315)"/>
<path d="M24.2165 12.9182C26.1281 12.9182 27.6778 11.3695 27.6778 9.45907C27.6778 7.54868 26.1281 6 24.2165 6C22.3049 6 20.7553 7.54868 20.7553 9.45907C20.7553 11.3695 22.3049 12.9182 24.2165 12.9182Z" fill="white"/>
<path d="M24.2165 42C26.1281 42 27.6778 40.4513 27.6778 38.5409C27.6778 36.6305 26.1281 35.0818 24.2165 35.0818C22.3049 35.0818 20.7553 36.6305 20.7553 38.5409C20.7553 40.4513 22.3049 42 24.2165 42Z" fill="white"/>
<path d="M14.9225 16.3772C14.9225 18.2876 13.3728 19.8362 11.4612 19.8362C9.54959 19.8362 8 18.2876 8 16.3772C8 14.4668 9.54959 12.9181 11.4612 12.9181C13.3728 12.9181 14.9225 14.4668 14.9225 16.3772Z" fill="white"/>
<path d="M37.0361 19.8363C38.9476 19.8363 40.4973 18.2876 40.4973 16.3772C40.4973 14.4668 38.9476 12.9181 37.0361 12.9181C35.1245 12.9181 33.5748 14.4668 33.5748 16.3772C33.5748 18.2876 35.1245 19.8363 37.0361 19.8363Z" fill="white"/>
<path d="M14.9225 31.7508C14.9225 33.6612 13.3728 35.2099 11.4612 35.2099C9.54959 35.2099 8 33.6612 8 31.7508C8 29.8405 9.54959 28.2918 11.4612 28.2918C13.3728 28.2918 14.9225 29.8405 14.9225 31.7508Z" fill="white"/>
<path d="M37.0361 35.2099C38.9476 35.2099 40.4973 33.6612 40.4973 31.7508C40.4973 29.8404 38.9476 28.2917 37.0361 28.2917C35.1245 28.2917 33.5748 29.8404 33.5748 31.7508C33.5748 33.6612 35.1245 35.2099 37.0361 35.2099Z" fill="white"/>
<path fill-rule="evenodd" clip-rule="evenodd" d="M29.4964 23.5528C29.765 23.6206 30.0134 23.7041 30.2417 23.8078C30.9467 24.1281 31.5236 24.5124 31.9082 25.0889C32.2928 25.6655 32.4851 26.306 32.4851 27.0747C32.4851 27.9074 32.2928 28.6121 31.9723 29.1886C31.5877 29.8292 31.0749 30.2776 30.3698 30.6619C29.6648 31.0462 28.7674 31.1744 27.7419 31.1744H16.5248L17.6145 23.7437L16.5248 16.6975H27.3573C28.2547 16.6975 28.9597 16.8256 29.6007 17.1459C30.2417 17.4021 30.6904 17.8505 31.075 18.363C31.3955 18.8754 31.5877 19.516 31.5877 20.2206C31.5877 20.8612 31.4595 21.5017 31.1391 22.0142C30.8827 22.5907 30.3698 23.0391 29.7289 23.4235C29.654 23.4684 29.5765 23.5115 29.4964 23.5528ZM21.5212 27.9075H26.0754C26.524 27.9075 26.8445 27.7793 27.0368 27.5872C27.2932 27.3309 27.4214 27.0747 27.4214 26.6904C27.4214 26.306 27.2932 26.0498 27.0368 25.7936C26.7804 25.5373 26.46 25.4733 26.0113 25.4733H21.8657L21.5212 27.9075ZM21.8429 22.2064H25.3062C25.4984 22.2064 25.6906 22.1424 25.8828 22.0783C26.0751 22.0143 26.2036 21.822 26.2677 21.6939C26.3958 21.5018 26.3958 21.3097 26.3958 21.1175C26.3958 20.9254 26.3318 20.7331 26.2677 20.605C26.2036 20.4768 26.0753 20.3487 25.883 20.2206C25.6908 20.1566 25.4984 20.0925 25.2421 20.0925H21.5017L21.8429 22.2064Z" fill="white"/>
</g>
<defs>
<linearGradient id="paint0_linear_5061_11315" x1="48" y1="48" x2="-2.62577e-05" y2="2.62577e-05" gradientUnits="userSpaceOnUse">
<stop stop-color="#434852"/>
<stop offset="1" stop-color="#787F92"/>
</linearGradient>
<clipPath id="clip0_5061_11315">
<rect width="48" height="48" fill="white"/>
</clipPath>
</defs>
</svg>
