<svg width="48" height="48" viewBox="0 0 48 48" fill="none" xmlns="http://www.w3.org/2000/svg">
<g clip-path="url(#clip0_2313_6083)">
<path d="M0 12C0 5.37258 5.37258 0 12 0H36C42.6274 0 48 5.37258 48 12V36C48 42.6274 42.6274 48 36 48H12C5.37258 48 0 42.6274 0 36V12Z" fill="url(#paint0_linear_2313_6083)"/>
<path d="M14.3913 9C15.712 9 16.7827 10.0698 16.7827 11.3894C16.7827 16.0379 19.6709 18.4457 23.9252 21.2281C28.1464 18.4762 30.9978 16.1009 30.9978 11.5221C30.9978 10.2025 32.0685 9.13274 33.3892 9.13274C34.7099 9.13274 35.7805 10.2025 35.7805 11.5221C35.7805 17.8019 32.065 21.4131 28.2736 24.0734C32.0689 26.742 35.7805 30.3519 35.7805 36.6106C35.7805 37.9302 34.7098 39 33.3892 39C32.0685 39 30.9978 37.9302 30.9978 36.6106C30.9978 32.0524 28.1523 29.6818 23.9208 26.9137C19.7236 29.6507 16.9156 31.9892 16.9156 36.4779C16.9156 37.7975 15.8449 38.8673 14.5242 38.8673C13.2035 38.8673 12.1329 37.7975 12.1329 36.4779C12.1329 30.2841 15.811 26.707 19.5725 24.0673C15.7479 21.3781 12 17.7338 12 11.3894C12 10.0698 13.0706 9 14.3913 9Z" fill="white"/>
<path d="M24.0895 14.9734C25.557 14.9734 26.7466 13.7848 26.7466 12.3186C26.7466 10.8523 25.557 9.6637 24.0895 9.6637C22.6221 9.6637 21.4325 10.8523 21.4325 12.3186C21.4325 13.7848 22.6221 14.9734 24.0895 14.9734Z" fill="white"/>
<path d="M26.7466 35.6814C26.7466 37.1477 25.557 38.3363 24.0895 38.3363C22.6221 38.3363 21.4325 37.1477 21.4325 35.6814C21.4325 34.2151 22.6221 33.0265 24.0895 33.0265C25.557 33.0265 26.7466 34.2151 26.7466 35.6814Z" fill="white"/>
</g>
<defs>
<linearGradient id="paint0_linear_2313_6083" x1="48" y1="48" x2="0.146965" y2="-0.14607" gradientUnits="userSpaceOnUse">
<stop offset="0.166667" stop-color="#A61F92"/>
<stop offset="0.802083" stop-color="#EC66DA"/>
</linearGradient>
<clipPath id="clip0_2313_6083">
<rect width="48" height="48" fill="white"/>
</clipPath>
</defs>
</svg>
