<svg width="48" height="48" viewBox="0 0 48 48" fill="none" xmlns="http://www.w3.org/2000/svg">
<g clip-path="url(#clip0_1301_966)">
<path d="M0 12C0 5.37258 5.37258 0 12 0H36C42.6274 0 48 5.37258 48 12V36C48 42.6274 42.6274 48 36 48H12C5.37258 48 0 42.6274 0 36V12Z" fill="url(#paint0_linear_1301_966)"/>
<path fill-rule="evenodd" clip-rule="evenodd" d="M33.3322 16.595H38.7891C40.4015 16.595 40.4015 13 36.6806 13H27.1008H21.1473H10.51C7.40922 13 7.40922 16.595 9.26972 16.595H14.9159C14.3038 17.6526 13.9535 18.8805 13.9535 20.1901V21.9256H9.24031C8.55531 21.9256 8 22.4806 8 23.1653V24.6529C8 25.3375 8.55531 25.8926 9.24031 25.8926H13.9535V27.6281C13.9535 28.9377 14.3038 30.1656 14.9159 31.2231H9.26967C7.40924 31.2231 7.40924 34.8182 10.5099 34.8182H21.1473H27.1008H36.6795C40.4003 34.8182 40.4003 31.2231 38.788 31.2231H33.3322C33.9443 30.1656 34.2946 28.9377 34.2946 27.6281V25.8926H38.7597C39.4447 25.8926 40 25.3375 40 24.6529V23.1653C40 22.4806 39.4447 21.9256 38.7597 21.9256H34.2946V20.1901C34.2946 18.8805 33.9443 17.6526 33.3322 16.595ZM29.8295 21.9256V20.6414C29.8295 18.5874 28.1635 16.9224 26.1085 16.9224H22.1395C20.0845 16.9224 18.4186 18.5874 18.4186 20.6414V21.9256H29.8295ZM18.4186 25.8926V27.1768C18.4186 29.2308 20.0845 30.8958 22.1395 30.8958H26.1085C28.1635 30.8958 29.8295 29.2308 29.8295 27.1768V25.8926H18.4186Z" fill="white"/>
</g>
<defs>
<linearGradient id="paint0_linear_1301_966" x1="48" y1="48" x2="0.146965" y2="-0.14607" gradientUnits="userSpaceOnUse">
<stop stop-color="#4E6FD4"/>
<stop offset="1" stop-color="#7B99F5"/>
</linearGradient>
<clipPath id="clip0_1301_966">
<rect width="48" height="48" fill="white"/>
</clipPath>
</defs>
</svg>
