<svg width="48" height="48" viewBox="0 0 48 48" fill="none" xmlns="http://www.w3.org/2000/svg">
<g clip-path="url(#clip0_1301_840)">
<path d="M0 12C0 5.37258 5.37258 0 12 0H36C42.6274 0 48 5.37258 48 12V36C48 42.6274 42.6274 48 36 48H12C5.37258 48 0 42.6274 0 36V12Z" fill="url(#paint0_linear_1301_840)"/>
<path d="M21.7941 26.3604L21.5208 25.9069C20.8757 24.8364 20.208 23.7295 19.4759 22.6966C18.9156 21.9072 18.8386 21.2854 19.2098 20.5485C19.6668 19.6445 19.4819 18.6814 19.3034 18.0364C18.872 16.4778 18.3803 14.9515 17.8714 13.3947C17.607 12.5844 16.86 10.9834 16.2937 10.1337C15.9885 9.68945 15.6042 9.30514 15.16 9L14.9469 9.35802C15.3387 9.63037 15.6781 9.97117 15.9488 10.3641C16.4888 11.1732 17.2263 12.7538 17.4775 13.523C17.9841 15.0744 18.4746 16.5966 18.9031 18.1462C19.1578 19.0663 19.1376 19.7692 18.8392 20.3594C18.3994 21.2299 18.4913 22.0242 19.1376 22.9341C19.8566 23.9477 20.5155 25.0397 21.1536 26.097L21.4402 26.5722C21.7195 27.034 21.6228 27.5574 21.2015 27.8742C20.9041 28.0934 20.5747 28.2653 20.2247 28.3838C19.5684 28.6111 19.319 28.8474 19.5827 29.6506C19.8625 30.5033 19.7229 30.9711 19.0845 31.3213L18.8863 31.4293L19.0099 31.6185C19.3219 32.0958 19.4216 32.3578 19.1889 32.643C18.7187 33.2188 18.5922 33.8328 18.7813 34.6348C19.0612 35.8252 18.8326 36.7125 18.0832 37.3468C17.7127 37.6572 17.2582 37.8502 16.7776 37.9011C16.7329 37.9059 16.4995 37.9113 16.1737 37.9166C16.3725 37.8225 16.5578 37.7021 16.7245 37.5586C17.8356 36.5878 17.8153 35.4576 17.7986 34.6348C17.7986 34.5927 17.798 34.5516 17.7975 34.5114C17.7964 34.4336 17.7954 34.3593 17.7986 34.2881C17.8041 33.7517 17.9351 33.2241 18.181 32.7474C18.4012 32.3226 18.3451 31.8983 18.2544 31.5236C18.625 31.0707 18.7795 30.5158 18.7402 29.7884C18.6813 29.5177 18.607 29.2505 18.5176 28.9882C18.3624 28.678 18.4496 28.496 18.6614 28.1141C19.085 27.3497 19.7256 26.194 17.8487 22.8261C17.7942 22.7283 17.7443 22.6392 17.6989 22.5588C17.4913 22.1912 17.3773 21.9884 17.3636 21.8511C17.3522 21.7348 17.4131 21.6083 17.5629 21.3081C17.6476 21.1387 17.752 20.9286 17.8779 20.6452C18.0313 20.3958 18.3135 19.6481 17.764 17.96C17.5527 17.3102 17.3731 16.67 17.2001 16.0506C16.9787 15.2582 16.7496 14.4395 16.4548 13.6113C16.16 12.7831 15.4905 11.2842 15.0054 10.4559C14.9965 10.4404 14.9874 10.4255 14.9783 10.4106C14.9692 10.3957 14.9601 10.3808 14.9511 10.3652C14.853 10.2071 14.7446 10.0556 14.6265 9.91176L14.392 10.2942C14.4594 10.3837 14.5257 10.4798 14.5889 10.5818C14.6056 10.6092 14.6224 10.6368 14.6384 10.6648C15.1122 11.4715 15.765 12.9376 16.055 13.7491C16.3407 14.5487 16.5552 15.3159 16.7812 16.1242L16.7913 16.1604C16.9656 16.7839 17.1458 17.4284 17.36 18.0865C17.8881 19.7108 17.5802 20.3242 17.5133 20.431C17.5065 20.4414 17.5005 20.4524 17.4954 20.4638C17.3707 20.7448 17.2663 20.9537 17.1828 21.1202C16.8421 21.8022 16.8283 21.875 17.3284 22.7617C17.3737 22.8412 17.4234 22.9297 17.4775 23.0272C19.242 26.1933 18.6912 27.1856 18.2891 27.91L18.2884 27.9112C18.078 28.2914 17.8794 28.6504 18.1339 29.166C18.1637 29.2472 18.2992 29.7311 18.3171 29.8194C18.3505 30.4698 18.2067 30.9496 17.8642 31.3285L17.7932 31.4132L17.8218 31.5224C17.9322 31.9473 17.9656 32.2522 17.8087 32.5559C17.5313 33.0887 17.3829 33.6791 17.3755 34.2798V34.642L17.3755 34.6439C17.3893 35.4289 17.4063 36.4047 16.4417 37.2472C16.1266 37.5228 15.7024 37.678 15.2906 37.8045C15.1444 37.8429 14.9954 37.8699 14.8449 37.885L14.8175 37.888L14.7924 37.8981C14.7572 37.9119 14.7148 37.9256 14.6677 37.9387L14.3854 37.9423C14.6677 37.8122 14.9386 37.6481 15.1122 37.4303C15.8765 36.4681 16.1429 35.1913 16.3022 34.4273L16.3173 34.3549C16.3437 34.2273 16.3665 34.117 16.3898 34.0315C16.771 32.5595 16.8856 29.6518 16.8981 29.3051C17.7705 26.6146 16.854 24.4462 16.305 23.1483C16.1129 22.6937 15.947 22.301 15.9363 22.0671C15.9136 21.5474 16.0431 21.0712 16.169 20.6112C16.3003 20.1296 16.4244 19.6744 16.3331 19.2519C16.2603 18.9183 16.1815 18.5299 16.0986 18.1182C15.8092 16.6903 15.4488 14.9133 15.0245 13.8219C14.7972 13.236 14.312 12.0432 13.8872 11.1487L13.63 11.5837C14.0173 12.4262 14.4314 13.4466 14.6361 13.9705C15.0484 15.0314 15.4064 16.7905 15.6934 18.2011C15.7769 18.614 15.8563 19.0043 15.9291 19.3396C15.9989 19.6628 15.8928 20.0511 15.77 20.5007L15.7608 20.5348C15.6382 20.9928 15.4984 21.5148 15.5257 22.0856C15.5394 22.3939 15.7104 22.798 15.9268 23.3094L15.9273 23.3106C16.4888 24.6395 17.3378 26.6488 16.499 29.203L16.4894 29.2317V29.2615C16.4894 29.2931 16.379 32.4378 15.9929 33.9265C15.9643 34.0375 15.9333 34.1777 15.9017 34.34C15.7501 35.068 15.4959 36.2859 14.793 37.1708C14.5865 37.4309 14.1122 37.6195 13.7488 37.7514L14.1706 38.4674C14.3771 38.4334 14.5716 38.3958 14.7303 38.354C15.6379 38.3439 16.7251 38.329 16.8277 38.3158C17.3888 38.2555 17.9192 38.0293 18.3511 37.666C19.2199 36.9309 19.5009 35.8789 19.1865 34.5399C19.0266 33.8585 19.1203 33.3853 19.5111 32.9074C19.9019 32.4294 19.6973 31.9383 19.4747 31.5725C20.3232 30.9985 20.1955 30.1828 19.9789 29.5229C19.8059 28.9948 19.8625 28.9524 20.3608 28.7806C20.7516 28.6477 21.1195 28.4553 21.4516 28.2101C22.0411 27.7662 22.1837 27.0048 21.7941 26.3604Z" fill="white"/>
<path d="M13.0704 14.1686L13.0226 13.9938C12.9474 13.7181 12.8585 13.3953 12.7625 13.0605L13.0525 12.5695C13.1938 13.0372 13.3215 13.5031 13.4253 13.882L13.4731 14.0558C13.9923 15.9462 14.8288 19.3062 14.5979 20.5676C14.3306 22.0248 14.583 22.9622 14.8754 24.0476C15.2244 25.3424 15.6195 26.8103 15.3569 29.548C15.342 29.7106 15.3257 29.8999 15.3079 30.1078L15.2968 30.2377C15.2043 31.3137 15.0779 32.7854 14.8575 33.7141C14.5745 34.9247 14.0673 36.0717 13.3621 37.0956L13.1276 36.6964C13.7472 35.7563 14.1955 34.7139 14.4517 33.6174C14.6618 32.7325 14.7866 31.295 14.8788 30.2338L14.8819 30.1978C14.9022 29.9388 14.9225 29.7049 14.9416 29.5092C15.1964 26.8468 14.8116 25.4177 14.4721 24.1569L14.4718 24.1558C14.1663 23.0225 13.9028 22.0446 14.1868 20.4936C14.3449 19.632 13.938 17.3264 13.0704 14.1686Z" fill="white"/>
<path d="M12.1148 18.5079C12.5102 21.8136 12.9901 25.8247 13.1878 26.4635C13.1991 26.5017 14.0417 30.2227 12.1734 35.0793L12.4401 35.5339C13.1813 33.7007 13.6287 31.7621 13.766 29.7895C13.8919 27.8508 13.6508 26.5572 13.587 26.3412C13.3981 25.7264 12.884 21.4252 12.5076 18.2766L12.5057 18.2607C12.288 16.439 12.0994 14.8631 12.0147 14.3254L11.6745 14.9013C11.7683 15.6134 11.9104 16.8003 12.0702 18.1357L12.1148 18.5079Z" fill="white"/>
<path d="M11.3845 33.7369L11.0719 33.1998C11.1476 32.8418 11.2198 32.4665 11.2813 32.0744C11.8279 28.7508 11.6471 25.6856 10.7443 22.9628C10.5924 22.5053 10.5802 21.2347 10.5695 20.1119L10.5689 20.0502C10.5631 19.4781 10.5578 18.9453 10.5306 18.7084C10.4686 18.1761 10.4185 17.6367 10.3719 17.1062L10.7365 16.4887C10.7392 16.524 10.7422 16.5582 10.7452 16.5919C10.7476 16.6185 10.7499 16.6449 10.752 16.6713L10.773 16.9008C10.8259 17.4797 10.8802 18.0748 10.9471 18.6601C10.9776 18.9268 10.9829 19.4716 10.9889 20.1023C10.9979 21.0868 11.011 22.4348 11.1423 22.831C12.4848 26.8802 12.0254 30.9717 11.3845 33.7369Z" fill="white"/>
<path d="M9.07475 22.9766C8.82831 22.254 8.89813 21.4675 8.99897 20.7932C9.06303 20.3123 9.08082 19.8264 9.05208 19.3421L9.428 18.7048C9.42872 18.7128 9.42961 18.7207 9.4305 18.7287C9.43253 18.7469 9.43456 18.7651 9.43456 18.783C9.48289 19.4053 9.5181 20.1387 9.41129 20.8547C9.3188 21.4794 9.25316 22.2044 9.47096 22.8417C10.3881 25.5298 10.3588 28.6816 10.0235 31.4163L9.66548 30.8094C10.0611 26.9947 9.58612 24.4755 9.07475 22.9766Z" fill="white"/>
<path d="M8.37903 28.6188L7.96134 27.9093C7.93926 25.9265 7.7525 24.2564 7.39985 22.98C7.34136 22.7632 7.30655 22.5408 7.29602 22.3165L7.72326 21.5933C7.69402 22.048 7.69342 22.4782 7.80142 22.869C8.20539 24.328 8.39753 26.2827 8.37903 28.6188Z" fill="white"/>
<path d="M6.41292 25.2743C6.41292 25.0347 6.41403 24.7743 6.41523 24.4958C6.41617 24.2756 6.41716 24.0442 6.41769 23.8028L6 24.5129V24.569L6.41292 25.2743Z" fill="white"/>
<path d="M36.6154 33.7367L36.9281 33.1997C36.8523 32.8417 36.7801 32.4664 36.7162 32.0713C36.1697 28.7477 36.3505 25.6825 37.2533 22.9597C37.4052 22.5022 37.4173 21.2316 37.428 20.1088L37.4283 20.0849C37.4342 19.4987 37.4397 18.9474 37.4669 18.7053C37.5295 18.173 37.579 17.6336 37.6262 17.1031L37.2616 16.4855C37.2562 16.5488 37.2509 16.6085 37.2455 16.6681C37.1888 17.3215 37.1297 17.997 37.0528 18.6575C37.0223 18.9243 37.017 19.469 37.011 20.0998C37.002 21.0843 36.9889 22.4323 36.8576 22.8285C35.5151 26.8777 35.9745 30.9692 36.6154 33.7367Z" fill="white"/>
<path d="M39.001 20.7932C39.1019 21.4675 39.1717 22.254 38.9252 22.9766C38.4139 24.4755 37.9389 26.9947 38.3345 30.8094L37.9765 31.4163C37.6411 28.6816 37.6125 25.5298 38.5296 22.8417C38.7468 22.2044 38.6812 21.4794 38.5893 20.8547C38.4831 20.1387 38.5177 19.4053 38.566 18.783C38.566 18.7651 38.568 18.747 38.5701 18.7288L38.5717 18.7134L38.5726 18.7048L38.9485 19.3421C38.9196 19.8264 38.9372 20.3123 39.001 20.7932Z" fill="white"/>
<path d="M35.8976 18.4051L35.9298 18.1353L35.9301 18.1331C36.0898 16.7988 36.2317 15.6129 36.3255 14.9013L35.9854 14.3254C35.9006 14.8631 35.7121 16.439 35.4943 18.2607L35.4922 18.2779C35.1159 21.4263 34.6019 25.7265 34.4131 26.3412C34.3492 26.5572 34.1082 27.8508 34.2341 29.7895C34.3713 31.7621 34.8187 33.7007 35.5599 35.5339L35.8266 35.0793C33.9584 30.2227 34.8009 26.5017 34.8123 26.4635C35.012 25.8181 35.5004 21.7299 35.8976 18.4051Z" fill="white"/>
<path d="M34.9781 13.9937L34.9304 14.1685C34.0628 17.3263 33.6558 19.6319 33.814 20.4935C34.0979 22.0445 33.8344 23.0224 33.529 24.1557L33.5287 24.1567C33.1892 25.4175 32.8044 26.8467 33.0597 29.5091C33.0782 29.7048 33.0985 29.9387 33.1194 30.1977L33.1201 30.2052C33.2113 31.2685 33.3359 32.7209 33.549 33.6185C33.8052 34.7149 34.2535 35.7574 34.8731 36.6975L34.6386 37.0967C33.9334 36.0728 33.4262 34.9258 33.1433 33.7152C32.9225 32.7849 32.796 31.3099 32.7041 30.2335C32.682 29.9763 32.6617 29.7436 32.6444 29.549C32.382 26.813 32.777 25.3452 33.1254 24.0509L33.126 24.0487C33.4184 22.9633 33.6708 22.0259 33.4034 20.5687C33.1725 19.3073 34.0091 15.9473 34.5282 14.0569L34.5759 13.8833C34.6798 13.5044 34.8075 13.0383 34.9489 12.5706L35.2389 13.0616C35.1416 13.3952 35.0533 13.718 34.9781 13.9937Z" fill="white"/>
<path d="M26.4805 25.9069L26.2066 26.3604C25.8164 27.0048 25.959 27.7662 26.5479 28.2101C26.88 28.4553 27.2479 28.6477 27.6387 28.7806C28.137 28.9524 28.1942 28.9948 28.0206 29.5229C27.8046 30.1828 27.6763 30.9985 28.5248 31.5725C28.3022 31.9383 28.0976 32.4294 28.4884 32.9074C28.8792 33.3853 28.9729 33.8585 28.813 34.5399C28.4986 35.8789 28.7796 36.9309 29.6484 37.666C30.0803 38.0293 30.6107 38.2555 31.1718 38.3158C31.2744 38.329 32.3616 38.3439 33.2692 38.354C33.4279 38.3958 33.6224 38.4334 33.8295 38.4674L34.2507 37.7514C33.8873 37.6195 33.4136 37.4309 33.2071 37.1708C32.5036 36.2859 32.25 35.068 32.0984 34.34C32.0662 34.1777 32.0352 34.0375 32.0065 33.9265C31.6205 32.4378 31.5101 29.2931 31.5101 29.2615V29.2317L31.5011 29.203C30.6616 26.6486 31.5107 24.6395 32.0728 23.3106L32.0759 23.3032C32.2904 22.7948 32.4601 22.3926 32.4738 22.0856C32.5 21.5016 32.3554 20.9711 32.2278 20.5031L32.2273 20.5014C32.1044 20.0515 31.9988 19.663 32.068 19.3396C32.1428 19.0113 32.2198 18.6304 32.3014 18.2271L32.3067 18.2011C32.5913 16.7905 32.9493 15.0314 33.3599 13.9705C33.5639 13.4466 33.978 12.4262 34.3653 11.5837L34.1081 11.1487C33.6833 12.0432 33.1982 13.236 32.9708 13.8219C32.5466 14.9133 32.1862 16.6903 31.8968 18.1182C31.8138 18.5299 31.7351 18.9183 31.6623 19.2519C31.5716 19.6744 31.6951 20.1296 31.8269 20.6112L31.8278 20.6144C31.9529 21.0734 32.0823 21.5486 32.0591 22.0671C32.0483 22.301 31.8824 22.6937 31.6903 23.1483L31.6896 23.1501C31.1411 24.4481 30.2252 26.6158 31.0972 29.3051C31.1097 29.6518 31.2243 32.5595 31.6056 34.0315C31.632 34.1288 31.6585 34.2582 31.6893 34.4086L31.6927 34.4254L31.6965 34.4433C31.8586 35.2091 32.1265 36.4748 32.8861 37.4303C33.0591 37.6481 33.33 37.8122 33.6129 37.9423L33.33 37.9387C33.2829 37.9256 33.2411 37.9119 33.2059 37.8981L33.1803 37.888L33.1528 37.885C33.0023 37.8699 32.8533 37.8429 32.7071 37.8045C32.2954 37.678 31.8711 37.5228 31.556 37.2472C30.5914 36.4047 30.6085 35.4289 30.6222 34.6439L30.6222 34.642V34.2798C30.6164 33.6784 30.4699 33.0868 30.1944 32.5523C30.0368 32.2486 30.0703 31.9437 30.1812 31.5188L30.2093 31.4096L30.1341 31.3267C29.791 30.9478 29.6472 30.4681 29.6806 29.8176C29.6985 29.7293 29.834 29.2454 29.8638 29.1643C30.1186 28.6492 29.9201 28.2904 29.71 27.9106L29.7087 27.9082C29.3065 27.1838 28.7557 26.1915 30.5202 23.0254C30.5743 22.928 30.624 22.8394 30.6693 22.7599C31.1694 21.8732 31.1557 21.8004 30.8155 21.1184C30.7314 20.9519 30.627 20.743 30.5029 20.462L30.5005 20.4574C30.4974 20.4515 30.4924 20.4417 30.4844 20.4292C30.4175 20.3224 30.1096 19.709 30.6377 18.0847C30.8519 17.4266 31.0321 16.7822 31.2064 16.1586L31.227 16.0848C31.4491 15.2902 31.6608 14.5327 31.9427 13.7473C32.2333 12.9376 32.8855 11.4715 33.3593 10.6648C33.3753 10.6368 33.392 10.6094 33.4087 10.582C33.472 10.48 33.5383 10.3837 33.6057 10.2942L33.379 9.91176C33.2611 10.0556 33.1529 10.2071 33.055 10.3652C33.0457 10.3808 33.0366 10.3957 33.0275 10.4106C33.0184 10.4255 33.0093 10.4404 33.0001 10.4559C32.5149 11.2842 31.8454 12.7831 31.5507 13.6113C31.2559 14.4395 31.0268 15.2582 30.8054 16.0506C30.6323 16.67 30.4533 17.3102 30.2415 17.96C29.6919 19.6481 29.9742 20.3958 30.1275 20.6452C30.2478 20.9159 30.349 21.1197 30.4312 21.2851L30.4426 21.3081C30.593 21.6083 30.6532 21.7348 30.6419 21.8511C30.6282 21.9884 30.5142 22.1912 30.3066 22.5588C30.2612 22.6392 30.2113 22.7283 30.1568 22.8261C28.2796 26.1945 28.9204 27.3497 29.3447 28.1141C29.5565 28.496 29.6436 28.678 29.4885 28.9882C29.398 29.2517 29.3231 29.5203 29.2641 29.7926C29.2247 30.52 29.3793 31.0749 29.7498 31.5278C29.6597 31.9025 29.603 32.3268 29.8232 32.7516C30.0692 33.2283 30.2002 33.7559 30.2057 34.2923C30.2085 34.3635 30.2076 34.4378 30.2067 34.5156C30.2062 34.5557 30.2057 34.597 30.2057 34.639C30.189 35.4618 30.1687 36.592 31.2798 37.5628C31.4466 37.7061 31.6318 37.8266 31.8305 37.9208C31.5047 37.9155 31.272 37.9101 31.2267 37.9053C30.7461 37.8544 30.2915 37.6614 29.9211 37.351C29.1716 36.7167 28.9431 35.8294 29.2229 34.639C29.4121 33.837 29.2856 33.223 28.8154 32.6472C28.5827 32.362 28.6823 32.1 28.9944 31.6227L29.1179 31.4335L28.9198 31.3255C28.2814 30.9752 28.1417 30.5074 28.4216 29.6547C28.6853 28.8516 28.4359 28.6153 27.7795 28.388C27.4297 28.2696 27.1004 28.0977 26.8033 27.8784C26.3821 27.5615 26.2854 27.0382 26.5646 26.5764L26.8367 26.1217L26.8494 26.1007C27.4875 25.0433 28.1465 23.9513 28.8655 22.9377C29.5117 22.0277 29.6036 21.2335 29.1639 20.3629C28.8655 19.7728 28.8452 19.0699 29.1 18.1498C29.5291 16.6002 30.0189 15.078 30.5255 13.5266C30.7768 12.7574 31.5143 11.1768 32.0543 10.3676C32.324 9.97368 32.6625 9.63165 33.0538 9.35802L32.8407 9C32.3965 9.30514 32.0121 9.68945 31.707 10.1337C31.1407 10.9834 30.3937 12.5844 30.1293 13.3947C29.6203 14.9515 29.1287 16.4778 28.6973 18.0364C28.5188 18.6814 28.3345 19.6445 28.7909 20.5485C29.1621 21.2854 29.0851 21.9072 28.5248 22.6966C27.7933 23.7295 27.125 24.8364 26.4805 25.9069Z" fill="white"/>
<path d="M40.0387 27.9093L39.621 28.6188C39.6025 26.2827 39.7946 24.328 40.1986 22.869C40.3066 22.4782 40.306 22.048 40.2768 21.5933L40.7064 22.3165C40.6958 22.5407 40.6612 22.7632 40.6032 22.98C40.2475 24.2564 40.0608 25.9265 40.0387 27.9093Z" fill="white"/>
<path d="M41.5848 24.4956C41.586 24.7742 41.5871 25.0347 41.5871 25.2743L42 24.569V24.5129L41.5823 23.8028C41.5828 24.0441 41.5838 24.2755 41.5848 24.4956Z" fill="white"/>
</g>
<defs>
<linearGradient id="paint0_linear_1301_840" x1="48" y1="48" x2="-2.62577e-05" y2="2.62577e-05" gradientUnits="userSpaceOnUse">
<stop stop-color="#001BC4"/>
<stop offset="1" stop-color="#3F59FF"/>
</linearGradient>
<clipPath id="clip0_1301_840">
<rect width="48" height="48" fill="white"/>
</clipPath>
</defs>
</svg>
