<svg width="48" height="48" viewBox="0 0 48 48" fill="none" xmlns="http://www.w3.org/2000/svg">
<g clip-path="url(#clip0_2955_3985)">
<path d="M0 12C0 5.37258 5.37258 0 12 0H36C42.6274 0 48 5.37258 48 12V36C48 42.6274 42.6274 48 36 48H12C5.37258 48 0 42.6274 0 36V12Z" fill="url(#paint0_linear_2955_3985)"/>
<path d="M16.7054 18.522H7.54423L7.18634 21.0583H16.3475L16.7054 18.522Z" fill="white"/>
<path d="M6.93787 22.8193L6.5962 25.2408L6.35788 26.9297L6 29.466H8.69495H15.1612L15.5191 26.9297H9.05285L9.29116 25.2408H15.7574L16.0991 22.8193H9.63284H6.93787Z" fill="white"/>
<path d="M26.0005 25.3203L28.6755 29.4778H25.4055L23.7914 26.8355L23.2949 26.0227L23.2332 26.0897L21.7098 27.7388L20.4894 29.0603L20.104 29.4778H16.8472L21.8985 24.0084L18.3813 18.522H21.6263L23.8183 21.9285L26.9647 18.522H30.2214L26.5045 22.5477L25.4396 23.7006L25.1554 24.0084L25.5323 24.5929L25.5375 24.6003L26.0005 25.3203Z" fill="white"/>
<path d="M31.8969 18.5254L30.3514 29.4783H40.4544L42 18.5254H31.8969ZM38.1209 26.9375H33.4027L34.2328 21.0543H38.951L38.1209 26.9375Z" fill="white"/>
</g>
<defs>
<linearGradient id="paint0_linear_2955_3985" x1="48" y1="48" x2="-2.62577e-05" y2="2.62577e-05" gradientUnits="userSpaceOnUse">
<stop offset="0.151042" stop-color="#171922"/>
<stop offset="0.880208" stop-color="#262D3C"/>
</linearGradient>
<clipPath id="clip0_2955_3985">
<rect width="48" height="48" fill="white"/>
</clipPath>
</defs>
</svg>
