<svg width="48" height="48" viewBox="0 0 48 48" fill="none" xmlns="http://www.w3.org/2000/svg">
<g clip-path="url(#clip0_1300_1506)">
<path d="M0 12C0 5.37258 5.37258 0 12 0H36C42.6274 0 48 5.37258 48 12V36C48 42.6274 42.6274 48 36 48H12C5.37258 48 0 42.6274 0 36V12Z" fill="url(#paint0_linear_1300_1506)"/>
<path d="M36.8696 37H30.087V31.3479H25.5652V24.5653H32.3478V30.2174H36.8696V37Z" fill="white"/>
<path d="M18.7826 24.5653H25.5652V17.7827H18.7826V11H12V37H18.7826V24.5653Z" fill="white"/>
<path d="M36.8696 17.7826L25.5652 17.7827L25.5652 11H36.8696V17.7826Z" fill="white"/>
</g>
<defs>
<linearGradient id="paint0_linear_1300_1506" x1="48" y1="48" x2="-2.62577e-05" y2="2.62577e-05" gradientUnits="userSpaceOnUse">
<stop stop-color="#0B8789"/>
<stop offset="1" stop-color="#36F7FA"/>
</linearGradient>
<clipPath id="clip0_1300_1506">
<rect width="48" height="48" fill="white"/>
</clipPath>
</defs>
</svg>
