<svg width="48" height="48" viewBox="0 0 48 48" fill="none" xmlns="http://www.w3.org/2000/svg">
<g clip-path="url(#clip0_1301_892)">
<path d="M0 12C0 5.37258 5.37258 0 12 0H36C42.6274 0 48 5.37258 48 12V36C48 42.6274 42.6274 48 36 48H12C5.37258 48 0 42.6274 0 36V12Z" fill="url(#paint0_linear_1301_892)"/>
<path fill-rule="evenodd" clip-rule="evenodd" d="M14.4211 12.5455H10V35.4545H14.4211V28.1818L24 38L33.2105 28.1818V35.4545H38V12.5455H33.2105V19.0909L24 10L14.4211 19.0909V12.5455ZM24 15.075L32.925 24L24 32.925L15.075 24L24 15.075ZM24 19.8L19.8 24L24 28.2L28.2 24L24 19.8Z" fill="white"/>
</g>
<defs>
<linearGradient id="paint0_linear_1301_892" x1="48" y1="48" x2="0" y2="0" gradientUnits="userSpaceOnUse">
<stop stop-color="#248A63"/>
<stop offset="1" stop-color="#58B18F"/>
</linearGradient>
<clipPath id="clip0_1301_892">
<rect width="48" height="48" fill="white"/>
</clipPath>
</defs>
</svg>
