<svg width="48" height="48" viewBox="0 0 48 48" fill="none" xmlns="http://www.w3.org/2000/svg">
<g clip-path="url(#clip0_1327_2447)">
<path d="M0 12C0 5.37258 5.37258 0 12 0H36C42.6274 0 48 5.37258 48 12V36C48 42.6274 42.6274 48 36 48H12C5.37258 48 0 42.6274 0 36V12Z" fill="url(#paint0_linear_1327_2447)"/>
<path fill-rule="evenodd" clip-rule="evenodd" d="M42 24C42 33.9411 33.9411 42 24 42C14.0589 42 6 33.9411 6 24C6 14.0589 14.0589 6 24 6C33.9411 6 42 14.0589 42 24ZM23.266 17.1657L17.692 28.1365L12 31.3626V35L19.6284 29.9549L25.0272 19.2188L36 15.8163V13L23.266 17.1657ZM18.6311 23.0323L19.8626 20.7441L17.4575 17.8696H11.9999V20.2161H15.9907L18.6311 23.0323ZM23.6184 25.144L22.4448 27.4905L26.8464 32.8293H36.0001V30.6584H28.0791L23.6184 25.144Z" fill="white"/>
</g>
<defs>
<linearGradient id="paint0_linear_1327_2447" x1="48" y1="48" x2="0.146965" y2="-0.14607" gradientUnits="userSpaceOnUse">
<stop/>
<stop offset="1" stop-color="#3F3F3F"/>
</linearGradient>
<clipPath id="clip0_1327_2447">
<rect width="48" height="48" fill="white"/>
</clipPath>
</defs>
</svg>
