<svg width="48" height="48" viewBox="0 0 48 48" fill="none" xmlns="http://www.w3.org/2000/svg">
<g clip-path="url(#clip0_1320_2553)">
<path d="M0 12C0 5.37258 5.37258 0 12 0H36C42.6274 0 48 5.37258 48 12V36C48 42.6274 42.6274 48 36 48H12C5.37258 48 0 42.6274 0 36V12Z" fill="url(#paint0_linear_1320_2553)"/>
<path d="M24.0003 24.0014L36.9733 11H24.0001L17.4822 17.496L11 11.0279V24L11.029 24.0283V23.9301L17.4822 17.496L24.0003 24.0014L17.4966 30.5173L11.029 24.0283L11.0289 37.0002L17.4966 30.5173L23.9292 36.9727H37L24.0003 24.0014Z" fill="white"/>
</g>
<defs>
<linearGradient id="paint0_linear_1320_2553" x1="48" y1="48" x2="-2.71797e-05" y2="2.71797e-05" gradientUnits="userSpaceOnUse">
<stop stop-color="#A91056"/>
<stop offset="1" stop-color="#F34594"/>
</linearGradient>
<clipPath id="clip0_1320_2553">
<rect width="48" height="48" fill="white"/>
</clipPath>
</defs>
</svg>
