<svg width="48" height="48" viewBox="0 0 48 48" fill="none" xmlns="http://www.w3.org/2000/svg">
<g clip-path="url(#clip0_4985_11256)">
<path d="M0 12C0 5.37258 5.37258 0 12 0H36C42.6274 0 48 5.37258 48 12V36C48 42.6274 42.6274 48 36 48H12C5.37258 48 0 42.6274 0 36V12Z" fill="url(#paint0_linear_4985_11256)"/>
<path d="M13.7302 10C13.0508 10 12.5 10.5531 12.5 11.2353V23.1766C12.5 23.8589 13.0508 24.4119 13.7302 24.4119C14.4096 24.4119 14.9604 23.8589 14.9604 23.1766V11.2353C14.9604 10.5531 14.4096 10 13.7302 10Z" fill="white"/>
<path d="M34.4127 31.1056C33.0552 30.0455 31.1249 30.0407 29.7737 31.1366C28.8987 31.8462 28.3902 32.915 28.3902 34.0443V36.8681C28.3902 37.4367 28.8492 37.8976 29.4154 37.8976C29.9816 37.8976 30.4406 37.4367 30.4406 36.8681V34.0443C30.4406 33.5371 30.669 33.057 31.062 32.7383C31.6592 32.2539 32.5343 32.2469 33.1539 32.7308C33.5744 33.0592 33.8237 33.5687 33.8237 34.0941V36.8681C33.8237 37.4367 34.2826 37.8976 34.8488 37.8976C35.415 37.8976 35.874 37.4367 35.874 36.8681V34.0941C35.874 32.9238 35.325 31.8182 34.4127 31.1056Z" fill="white"/>
<path fill-rule="evenodd" clip-rule="evenodd" d="M21.7265 23.9999C23.878 23.9999 25.6222 22.2485 25.6222 20.0881C25.6222 17.9276 23.878 16.1763 21.7265 16.1763C19.575 16.1763 17.8309 17.9276 17.8309 20.0881C17.8309 22.2485 19.575 23.9999 21.7265 23.9999ZM21.7265 21.5293C22.5192 21.5293 23.1618 20.884 23.1618 20.0881C23.1618 19.2921 22.5192 18.6469 21.7265 18.6469C20.9338 18.6469 20.2913 19.2921 20.2913 20.0881C20.2913 20.884 20.9338 21.5293 21.7265 21.5293Z" fill="white"/>
<path fill-rule="evenodd" clip-rule="evenodd" d="M25.6222 34.0881C25.6222 36.2485 23.878 37.9999 21.7265 37.9999C19.575 37.9999 17.8309 36.2485 17.8309 34.0881C17.8309 31.9276 19.575 30.1763 21.7265 30.1763C23.878 30.1763 25.6222 31.9276 25.6222 34.0881ZM23.1618 34.0881C23.1618 34.884 22.5192 35.5293 21.7265 35.5293C20.9338 35.5293 20.2913 34.884 20.2913 34.0881C20.2913 33.2921 20.9338 32.6469 21.7265 32.6469C22.5192 32.6469 23.1618 33.2921 23.1618 34.0881Z" fill="white"/>
<path fill-rule="evenodd" clip-rule="evenodd" d="M32.1833 23.9999C34.3348 23.9999 36.0789 22.2485 36.0789 20.0881C36.0789 17.9276 34.3348 16.1763 32.1833 16.1763C30.0317 16.1763 28.2876 17.9276 28.2876 20.0881C28.2876 22.2485 30.0317 23.9999 32.1833 23.9999ZM32.1833 21.5293C32.9759 21.5293 33.6185 20.884 33.6185 20.0881C33.6185 19.2921 32.9759 18.6469 32.1833 18.6469C31.3906 18.6469 30.748 19.2921 30.748 20.0881C30.748 20.884 31.3906 21.5293 32.1833 21.5293Z" fill="white"/>
<path d="M13.7301 30.1763C13.1639 30.1763 12.7049 30.6372 12.7049 31.2057V36.9705C12.7049 37.539 13.1639 37.9999 13.7301 37.9999C14.2963 37.9999 14.7553 37.539 14.7553 36.9705V31.2057C14.7553 30.6372 14.2963 30.1763 13.7301 30.1763Z" fill="white"/>
<path d="M34.8488 26.0589C35.415 26.0589 35.8739 26.5198 35.8739 27.0883C35.8739 27.6569 35.415 28.1177 34.8488 28.1177H29.1078C28.5416 28.1177 28.0826 27.6569 28.0826 27.0883C28.0826 26.5198 28.5416 26.0589 29.1078 26.0589H34.8488Z" fill="white"/>
<path d="M13.7301 29.3533C14.2963 29.3533 14.7553 28.8925 14.7553 28.3239C14.7553 27.7554 14.2963 27.2945 13.7301 27.2945C13.1639 27.2945 12.7049 27.7554 12.7049 28.3239C12.7049 28.8925 13.1639 29.3533 13.7301 29.3533Z" fill="white"/>
</g>
<defs>
<linearGradient id="paint0_linear_4985_11256" x1="48" y1="48" x2="0" y2="0" gradientUnits="userSpaceOnUse">
<stop offset="0.208333" stop-color="#E6007A"/>
<stop offset="0.505208" stop-color="#A728A6"/>
<stop offset="0.802083" stop-color="#3B6CF4"/>
</linearGradient>
<clipPath id="clip0_4985_11256">
<rect width="48" height="48" fill="white"/>
</clipPath>
</defs>
</svg>
