<svg width="48" height="48" viewBox="0 0 48 48" fill="none" xmlns="http://www.w3.org/2000/svg">
<g clip-path="url(#clip0_1327_2335)">
<path d="M0 12C0 5.37258 5.37258 0 12 0H36C42.6274 0 48 5.37258 48 12V36C48 42.6274 42.6274 48 36 48H12C5.37258 48 0 42.6274 0 36V12Z" fill="url(#paint0_linear_1327_2335)"/>
<path fill-rule="evenodd" clip-rule="evenodd" d="M32.2829 37.9444L13.8405 24.9628L11.5657 26.5569C11.0855 26.8938 10.6934 27.342 10.4227 27.8635C10.1519 28.3849 10.0106 28.9642 10.0106 29.5522C10.0106 30.1401 10.1519 30.7194 10.4227 31.2409C10.6934 31.7623 11.0855 32.2105 11.5657 32.5475L15.6908 35.4504L20.4777 32.0988L22.2312 33.3392L15.6951 37.9267L10.4128 34.2057C9.6676 33.6811 9.05925 32.9841 8.63926 32.1737C8.21927 31.3633 8 30.4634 8 29.55C8 28.6366 8.21927 27.7366 8.63926 26.9262C9.05925 26.1158 9.6676 25.4188 10.4128 24.8943L12.0819 23.7249L10.4128 22.55C9.6676 22.0255 9.05925 21.3285 8.63926 20.5181C8.21927 19.7077 8 18.8077 8 17.8943C8 16.9809 8.21927 16.081 8.63926 15.2706C9.05925 14.4602 9.6676 13.7632 10.4128 13.2386L15.7127 9.5L34.157 22.483L36.4211 20.8964C36.9013 20.5595 37.2934 20.1112 37.5642 19.5898C37.8349 19.0683 37.9763 18.4891 37.9763 17.9011C37.9763 17.3131 37.8349 16.7339 37.5642 16.2124C37.2934 15.691 36.9013 15.2427 36.4211 14.9058L32.2961 12.0028L27.5179 15.3588L25.7644 14.1185L32.3049 9.52655L37.5915 13.2476L37.5872 13.2344C38.3324 13.759 38.9408 14.4559 39.3607 15.2663C39.7807 16.0767 40 16.9767 40 17.8901C40 18.8035 39.7807 19.7035 39.3607 20.5139C38.9408 21.3243 38.3324 22.0212 37.5872 22.5458L35.9133 23.7193L37.5827 24.8944C38.328 25.419 38.9363 26.1159 39.3563 26.9263C39.7763 27.7367 39.9956 28.6367 39.9956 29.5501C39.9956 30.4635 39.7763 31.3635 39.3563 32.1739C38.9363 32.9843 38.328 33.6812 37.5827 34.2058L32.2829 37.9444ZM34.1418 24.9611L36.4167 26.5614C36.8969 26.8983 37.289 27.3466 37.5597 27.868C37.8305 28.3895 37.9718 28.9687 37.9718 29.5567C37.9718 30.1447 37.8305 30.7239 37.5597 31.2454C37.289 31.7668 36.8969 32.2151 36.4167 32.552L32.2873 35.4505L15.6128 23.7207L22.2356 19.0796L20.4821 17.8392L13.8538 22.4834L11.5789 20.8831C11.0987 20.5461 10.7066 20.0979 10.4358 19.5764C10.1651 19.055 10.0237 18.4757 10.0237 17.8877C10.0237 17.2998 10.1651 16.7205 10.4358 16.1991C10.7066 15.6776 11.0987 15.2294 11.5789 14.8924L15.7083 11.9939L32.3847 23.7251L25.7513 28.3737L27.5048 29.614L34.1418 24.9611Z" fill="white"/>
</g>
<defs>
<linearGradient id="paint0_linear_1327_2335" x1="48" y1="48" x2="-2.71797e-05" y2="2.71797e-05" gradientUnits="userSpaceOnUse">
<stop stop-color="#181C5E"/>
<stop offset="1" stop-color="#6489F7"/>
</linearGradient>
<clipPath id="clip0_1327_2335">
<rect width="48" height="48" fill="white"/>
</clipPath>
</defs>
</svg>
