<svg width="48" height="48" viewBox="0 0 48 48" fill="none" xmlns="http://www.w3.org/2000/svg">
<g clip-path="url(#clip0_1320_2270)">
<path d="M0 12C0 5.37258 5.37258 0 12 0H36C42.6274 0 48 5.37258 48 12V36C48 42.6274 42.6274 48 36 48H12C5.37258 48 0 42.6274 0 36V12Z" fill="url(#paint0_linear_1320_2270)"/>
<path fill-rule="evenodd" clip-rule="evenodd" d="M9.94755 12.7526C16.1594 4.9916 27.4865 3.73576 35.2475 9.94755C43.0084 16.1594 44.2642 27.4865 38.0524 35.2475C31.8406 43.0084 20.5135 44.2642 12.7526 38.0524C4.9916 31.8406 3.73576 20.5135 9.94755 12.7526ZM24.1264 13.9291C26.1157 11.4437 29.7431 11.0416 32.2284 13.0308C34.7139 15.0201 35.116 18.6476 33.1267 21.1329C31.1374 23.6183 27.5101 24.0205 25.0247 22.0312C22.5393 20.0419 22.1371 16.4145 24.1264 13.9291Z" fill="white"/>
</g>
<defs>
<linearGradient id="paint0_linear_1320_2270" x1="48" y1="48" x2="0" y2="0" gradientUnits="userSpaceOnUse">
<stop offset="0.164323" stop-color="#03345A"/>
<stop offset="0.855711" stop-color="#03528F"/>
</linearGradient>
<clipPath id="clip0_1320_2270">
<rect width="48" height="48" fill="white"/>
</clipPath>
</defs>
</svg>
