<svg width="48" height="48" viewBox="0 0 48 48" fill="none" xmlns="http://www.w3.org/2000/svg">
<g clip-path="url(#clip0_1304_929)">
<path d="M0 12C0 5.37258 5.37258 0 12 0H36C42.6274 0 48 5.37258 48 12V36C48 42.6274 42.6274 48 36 48H12C5.37258 48 0 42.6274 0 36V12Z" fill="url(#paint0_linear_1304_929)"/>
<path fill-rule="evenodd" clip-rule="evenodd" d="M32.4374 29.4895H37.1672C37.6928 29.4896 38.7438 28.442 38.7438 27.9182C38.7438 27.3944 36.3789 13.7763 35.8534 11.6812C35.3279 9.58605 32.5717 9.71418 31.6491 10.6337C31.0476 11.2333 28.885 14.2792 27.3796 16.3993C26.576 17.5311 25.9597 18.3992 25.8682 18.4903C25.6054 18.7522 25.6054 19.5378 25.8682 19.7998L28.7587 22.6805C29.0214 22.9424 29.547 22.9424 30.0725 22.6805C30.598 22.4185 31.1236 21.8948 31.1236 21.8948L32.4374 29.4895ZM8 34.7273H14.5692L17.1969 21.8948L18.2479 22.9424C18.5107 23.2042 19.0362 23.2042 19.299 22.9424L22.4522 19.7997C22.715 19.5378 22.715 18.7522 22.4522 18.4903C22.3209 18.3593 21.1385 16.7882 19.8576 15.086C18.5766 13.3837 17.1969 11.5503 16.6713 10.8956C15.6203 9.58614 12.9926 9.93534 12.4671 11.1574C11.9415 12.3796 8 34.7273 8 34.7273ZM20.8305 25.4691C20.4201 25.06 20.4201 24.3967 20.8305 23.9877L23.501 21.3261C23.9115 20.917 24.577 20.917 24.9875 21.3261L27.658 23.9877C28.0684 24.3967 28.0684 25.06 27.658 25.4691L24.9875 28.1306C24.577 28.5397 23.9115 28.5397 23.501 28.1307L20.8305 25.4691ZM33.4462 34.2549L32.763 30.8503C32.7305 30.6883 32.8549 30.5371 33.0207 30.5371H39.0539C39.1792 30.5371 39.287 30.6252 39.3116 30.7476L39.9948 34.1521C40.0273 34.3142 39.903 34.4654 39.7371 34.4654H33.7039C33.5786 34.4654 33.4708 34.3773 33.4462 34.2549Z" fill="white"/>
</g>
<defs>
<linearGradient id="paint0_linear_1304_929" x1="48" y1="48" x2="-2.71797e-05" y2="2.71797e-05" gradientUnits="userSpaceOnUse">
<stop offset="0.206617" stop-color="#EC592C"/>
<stop offset="1" stop-color="#E5957D"/>
</linearGradient>
<clipPath id="clip0_1304_929">
<rect width="48" height="48" fill="white"/>
</clipPath>
</defs>
</svg>
