<svg width="48" height="48" viewBox="0 0 48 48" fill="none" xmlns="http://www.w3.org/2000/svg">
<g clip-path="url(#clip0_2874_3928)">
<path d="M0 12C0 5.37258 5.37258 0 12 0H36C42.6274 0 48 5.37258 48 12V36C48 42.6274 42.6274 48 36 48H12C5.37258 48 0 42.6274 0 36V12Z" fill="url(#paint0_linear_2874_3928)"/>
<path d="M18.3595 19.1452V22.204H21.9884V19.1452H18.3595ZM25.8596 19.1452V22.1987H29.4884V19.1452H25.8596ZM18.3595 19.1452V22.204H21.9884V19.1452H18.3595ZM25.8596 19.1452V22.1987H29.4884V19.1452H25.8596ZM18.3595 19.1452V22.204H21.9884V19.1452H18.3595ZM25.8596 19.1452V22.1987H29.4884V19.1452H25.8596ZM35.6256 26.8209L34.1565 29.058H37.113L35.6256 26.8209ZM35.6256 26.8209L34.1565 29.058H37.113L35.6256 26.8209ZM18.3595 19.1452V22.204H21.9884V19.1452H18.3595ZM25.8596 19.1452V22.1987H29.4884V19.1452H25.8596ZM19.3857 26.8183L17.9166 29.058H20.8731L19.3857 26.8183ZM18.3595 19.1452V22.204H21.9884V19.1452H18.3595ZM25.8596 19.1452V22.1987H29.4884V19.1452H25.8596ZM35.6256 26.8209L34.1565 29.058H37.113L35.6256 26.8209ZM35.6256 26.8209L34.1565 29.058H37.113L35.6256 26.8209ZM18.3595 19.1452V22.204H21.9884V19.1452H18.3595ZM19.3857 26.8144L17.9166 29.058H20.8731L19.3857 26.8144ZM25.8596 19.1452V22.1987H29.4884V19.1452H25.8596ZM7 16V32.3146H41V16H7ZM24.1861 17.5726H31.162V23.7635H24.1861V17.5726ZM8.57262 17.5726H9.82154L12.3639 20.2408L14.9142 17.5726H16.1618V23.7727H14.4804V20.444L12.3639 22.6718L10.2396 20.444V23.7727H8.57262V17.5726ZM15.0728 30.7485H8.5202V29.1287H13.4006V28.6766L8.57262 27.9598V24.5603H15.0374V26.1329H10.2396V26.6374L15.0728 27.3451V30.7485ZM23.198 30.7485H15.597V29.535L18.8903 24.5341H19.8994L23.1927 29.535L23.198 30.7485ZM23.6671 23.7714H16.686V17.5831H23.6619L23.6671 23.7714ZM31.3179 30.7485H29.6313V27.4198L27.5148 29.6477L25.3905 27.4198V30.7485H23.7169V24.5432H24.9658L27.5148 27.2167L30.0651 24.5432H31.3127L31.3179 30.7485ZM31.6914 17.5621H32.9665L36.7736 21.1215V17.5621H38.4458V23.7766H37.172L33.3649 20.2382V23.7766H31.6862L31.6914 17.5621ZM39.4379 30.7485H31.8369V29.535L35.1302 24.5341H36.1393L39.4326 29.535L39.4379 30.7485ZM34.1617 29.058H37.1183L35.6256 26.8183L34.1617 29.058ZM25.8596 22.1961H29.4884V19.1452H25.8596V22.1961ZM21.9884 19.1452H18.3595V22.204H21.9884V19.1452ZM25.8596 19.1452V22.1987H29.4884V19.1452H25.8596ZM18.3595 19.1452V22.204H21.9884V19.1452H18.3595ZM35.6256 26.8183L34.1565 29.058H37.113L35.6256 26.8183ZM25.8596 19.1452V22.1987H29.4884V19.1452H25.8596ZM18.3595 19.1452V22.204H21.9884V19.1452H18.3595ZM25.8596 19.1452V22.1987H29.4884V19.1452H25.8596ZM18.3595 19.1452V22.204H21.9884V19.1452H18.3595ZM18.3595 19.1452V22.204H21.9884V19.1452H18.3595ZM18.3595 19.1452V22.204H21.9884V19.1452H18.3595Z" fill="white"/>
</g>
<defs>
<linearGradient id="paint0_linear_2874_3928" x1="48" y1="48" x2="-2.62577e-05" y2="2.62577e-05" gradientUnits="userSpaceOnUse">
<stop stop-color="#7515FF"/>
<stop offset="0.34375" stop-color="#7515FF"/>
<stop offset="1" stop-color="#66C8FF"/>
</linearGradient>
<clipPath id="clip0_2874_3928">
<rect width="48" height="48" fill="white"/>
</clipPath>
</defs>
</svg>
