<svg width="48" height="48" viewBox="0 0 48 48" fill="none" xmlns="http://www.w3.org/2000/svg">
<g clip-path="url(#clip0_2299_6026)">
<path d="M0 12C0 5.37258 5.37258 0 12 0H36C42.6274 0 48 5.37258 48 12V36C48 42.6274 42.6274 48 36 48H12C5.37258 48 0 42.6274 0 36V12Z" fill="url(#paint0_linear_2299_6026)"/>
<path fill-rule="evenodd" clip-rule="evenodd" d="M24.002 13.8693L26.9436 12.1701C32.7114 8.83829 39.8833 13.0365 39.9213 19.7669L40 33.6976C40.0076 35.0571 38.557 35.9118 37.3958 35.2321L23.9948 27.3875L10.6046 35.2304C9.44351 35.9105 7.9927 35.0561 8.00003 33.6966L8.07515 19.7659C8.11144 13.0355 15.2823 8.83538 21.051 12.1657L24.002 13.8693ZM24.0022 15.8951L32.1321 20.5885L23.9945 25.3548L15.8646 20.5958L24.0022 15.8951ZM25.756 14.882L27.803 13.6995C32.4173 11.0341 38.1548 14.3927 38.1852 19.777L38.2639 33.7077L25.7304 26.371L33.0005 22.1127C34.1616 21.4327 34.1564 19.7316 32.9911 19.0589L25.756 14.882ZM22.2589 26.3714L9.73614 33.7062L9.81126 19.7755C9.84029 14.3912 15.577 11.0311 20.1919 13.6953L22.2481 14.8824L15.0051 19.0664C13.8401 19.7394 13.8353 21.4405 14.9965 22.1202L22.2589 26.3714Z" fill="white"/>
</g>
<defs>
<linearGradient id="paint0_linear_2299_6026" x1="48" y1="48" x2="0.146965" y2="-0.14607" gradientUnits="userSpaceOnUse">
<stop offset="0.145833" stop-color="#852CE9"/>
<stop offset="0.812626" stop-color="#A171E9"/>
</linearGradient>
<clipPath id="clip0_2299_6026">
<rect width="48" height="48" fill="white"/>
</clipPath>
</defs>
</svg>
