<svg width="48" height="48" viewBox="0 0 48 48" fill="none" xmlns="http://www.w3.org/2000/svg">
<g clip-path="url(#clip0_1738_3877)">
<path d="M0 12C0 5.37258 5.37258 0 12 0H36C42.6274 0 48 5.37258 48 12V36C48 42.6274 42.6274 48 36 48H12C5.37258 48 0 42.6274 0 36V12Z" fill="url(#paint0_linear_1738_3877)"/>
<path d="M31.2668 10.6265C31.6127 11.2256 31.4074 11.9916 30.8084 12.3375C30.2093 12.6833 29.4432 12.4781 29.0974 11.879C28.7515 11.2799 28.9567 10.5139 29.5558 10.168C30.1549 9.82214 30.9209 10.0274 31.2668 10.6265Z" fill="white"/>
<path fill-rule="evenodd" clip-rule="evenodd" d="M29.0707 32.887C31.4855 31.4928 33.139 29.2864 33.8853 26.8121C31.5345 29.8739 28.941 31.3038 26.1051 31.1016H22.8424L23.2753 30.8889L23.8589 30.5944L24.446 30.2905L25.036 29.9773L25.332 29.8173L25.9257 29.4904L26.5214 29.1546L27.1174 28.8104L27.4128 28.6369L27.9972 28.2875L28.5726 27.9355L29.1388 27.5811L29.6955 27.2246L30.2424 26.8664L30.5121 26.6867L31.0437 26.3264L31.3056 26.1458L31.8214 25.7841L32.3263 25.4218L32.5745 25.2405L33.0625 24.8779C33.1428 24.8174 33.2227 24.757 33.3021 24.6966L33.7724 24.3344L34.2307 23.9727L34.6766 23.612L35.1098 23.2525L35.5301 22.8945L35.9372 22.5383L36.3308 22.1842L36.7106 21.8325L36.8953 21.6577L37.2538 21.3102L37.4277 21.1376L37.7644 20.7949L37.9272 20.6249L38.2414 20.2877L38.5402 19.9546L38.8234 19.6258L39.0907 19.3017C39.1601 19.2156 39.2277 19.1301 39.2935 19.0451L39.4229 18.8758L39.5475 18.7081C40.8509 16.9273 41.3354 15.4153 40.7618 14.4218C40.2762 13.5807 39.0895 13.2105 37.4055 13.2615L37.0501 13.278L36.6809 13.3064L36.4912 13.3251L36.1021 13.3712C36.0361 13.3799 35.9697 13.3891 35.9027 13.3987L35.4945 13.4623C35.3563 13.4854 35.2162 13.5105 35.0741 13.5375L34.6419 13.624L34.1984 13.7219L33.7438 13.831L33.2787 13.9513L32.8034 14.0826L32.5621 14.1524L32.0723 14.3L31.5733 14.4585L31.0655 14.6276L30.5493 14.8074L30.0252 14.9976L29.7722 15.0931C26.5325 12.8693 22.1733 12.5576 18.5435 14.6533C14.9132 16.7492 13.0036 20.6808 13.31 24.5987L13.1052 24.7664L12.6784 25.1252L12.2646 25.4823L11.8643 25.8375L11.4775 26.1904L11.1047 26.5408L10.9237 26.7149L10.5723 27.0609L10.2356 27.4035L9.91381 27.7426L9.60725 28.0778L9.3162 28.4088C9.22179 28.5184 9.13002 28.6272 9.04093 28.7353L8.78174 29.057C8.7399 29.1102 8.69874 29.1632 8.65827 29.2159L8.42372 29.5299C8.38603 29.5817 8.34903 29.6334 8.31273 29.6848L8.10348 29.9903L7.91145 30.2899C7.85034 30.3887 7.79215 30.4865 7.73692 30.5832L7.58018 30.8698C6.96454 32.0503 6.81958 33.0515 7.23821 33.7766C7.84105 34.8208 9.52421 35.1392 11.8979 34.8272L12.2999 34.7694L12.7142 34.7L13.1405 34.6191L13.5785 34.5269C13.6524 34.5106 13.7268 34.4938 13.8016 34.4765L14.2562 34.3674L14.7213 34.2471C14.878 34.2052 15.0365 34.1614 15.1966 34.1158L15.6817 33.9736L16.1761 33.8205L16.6796 33.6567L16.9345 33.5708L17.4507 33.3911L17.9748 33.2008L18.5065 33.0002L18.6441 32.9463C21.7779 34.7056 25.7327 34.8143 29.0707 32.887ZM16.8 31.6304C16.7853 31.6345 16.7706 31.6386 16.756 31.6427L16.3161 31.7605L15.8874 31.8662C15.8169 31.8828 15.747 31.8989 15.6775 31.9144L15.2667 32.0016C15.1612 32.0227 15.0569 32.0426 14.954 32.0611L14.7499 32.0965C14.6825 32.1078 14.6156 32.1184 14.5494 32.1285L14.3526 32.157C14.3201 32.1615 14.2878 32.1658 14.2556 32.17L14.0644 32.1933C13.9383 32.2076 13.8147 32.2196 13.6938 32.2293L13.5144 32.242C13.4849 32.2438 13.4555 32.2455 13.4263 32.247L13.2531 32.2544C11.8841 32.2992 10.9175 31.9999 10.5225 31.3158C10.0782 30.5462 10.4174 29.3936 11.3693 28.0376L11.4776 27.8861C11.5514 27.7845 11.6286 27.6819 11.7091 27.5783L11.8322 27.4221C11.8949 27.3436 11.9595 27.2646 12.0258 27.1851L12.1609 27.0254L12.3007 26.8643L12.5816 26.5522C12.6298 26.4998 12.6787 26.4472 12.7283 26.3945L13.0342 26.0761L13.3562 25.7541L13.4486 25.6639C13.6598 26.8192 14.0694 27.9585 14.6902 29.0338C15.2672 30.0332 15.9833 30.9022 16.8 31.6304ZM21.903 29.7113L21.661 29.8225L21.1368 30.0552L20.877 30.1674L20.3622 30.3836C20.277 30.4188 20.192 30.4534 20.1074 30.4876L19.8046 30.6074C18.2667 29.8371 17.2109 28.2466 17.2109 26.4095V24.0634C19.8023 24.0634 21.903 26.1642 21.903 28.7556V29.7113ZM22.7785 29.2982L22.9946 29.1939L23.2648 29.0602L23.8081 28.7851L24.0811 28.6437L24.6295 28.3532L25.1807 28.0526L25.734 27.742L26.0113 27.583L26.5618 27.2607L26.8334 27.0984L27.3693 26.7714L27.8951 26.4417L28.4104 26.1097C28.4954 26.0542 28.5799 25.9986 28.664 25.943L29.1629 25.6083L29.408 25.4404L29.5798 25.3203C28.9345 24.5519 27.9664 24.0634 26.8842 24.0634H26.5909C24.4854 24.0634 22.7785 25.7703 22.7785 27.8758V29.2982ZM34.1181 21.6334C34.1304 21.6214 34.1426 21.6094 34.1549 21.5974L34.4769 21.2754L34.7827 20.957C34.8323 20.9043 34.8812 20.8517 34.9294 20.7993L35.2103 20.4872C35.2557 20.4355 35.3004 20.3841 35.3444 20.3328L35.5995 20.0278L35.7281 19.8675C35.7701 19.8144 35.8113 19.7614 35.8516 19.7088L35.9701 19.5517C37.0517 18.0928 37.4586 16.8499 36.9885 16.0357C36.5184 15.2215 35.2386 14.9524 33.4344 15.1596L33.2391 15.1837C33.2062 15.188 33.1731 15.1924 33.1399 15.197L32.9388 15.2265C32.9049 15.2317 32.8709 15.2371 32.8367 15.2426L32.445 15.311C32.3786 15.3234 32.3117 15.3364 32.2443 15.3499L31.8335 15.4371C31.7641 15.4526 31.6941 15.4687 31.6236 15.4853L31.195 15.591L30.7551 15.7088L30.6252 15.7455C31.5206 16.5061 32.3029 17.4308 32.9239 18.5065C33.5012 19.5064 33.8958 20.5616 34.1181 21.6334ZM21.7271 16.4419L21.903 16.4387V18.7848C21.903 21.3273 19.8808 23.3975 17.357 23.4747L17.2109 23.4769V21.1308C17.2109 18.5983 19.2172 16.5344 21.7271 16.4419ZM22.7785 16.4387H26.8842C28.8277 16.4387 30.4033 18.0143 30.4033 19.9578C30.4033 21.9014 28.8277 23.4769 26.8842 23.4769H26.5909C24.4854 23.4769 22.7785 21.7701 22.7785 19.6645V16.4387Z" fill="white"/>
<path d="M15.333 35.6116C16.184 35.1202 17.2723 35.4118 17.7636 36.2629C18.2549 37.1139 17.9634 38.2021 17.1123 38.6934C16.2613 39.1848 15.1731 38.8932 14.6817 38.0422C14.1904 37.1911 14.482 36.1029 15.333 35.6116Z" fill="white"/>
<path d="M19.3947 35.9294C19.6942 35.7565 20.0772 35.8591 20.2502 36.1587C20.4231 36.4582 20.3205 36.8412 20.0209 37.0142C19.7214 37.1871 19.3384 37.0845 19.1654 36.7849C18.9925 36.4854 19.0951 36.1024 19.3947 35.9294Z" fill="white"/>
</g>
<defs>
<linearGradient id="paint0_linear_1738_3877" x1="48" y1="48" x2="0.146965" y2="-0.14607" gradientUnits="userSpaceOnUse">
<stop offset="0.166667" stop-color="#7569E5"/>
<stop offset="0.848958" stop-color="#48E8CC"/>
</linearGradient>
<clipPath id="clip0_1738_3877">
<rect width="48" height="48" fill="white"/>
</clipPath>
</defs>
</svg>
