<svg width="48" height="48" viewBox="0 0 48 48" fill="none" xmlns="http://www.w3.org/2000/svg">
<g clip-path="url(#clip0_1300_1364)">
<path d="M0 12C0 5.37258 5.37258 0 12 0H36C42.6274 0 48 5.37258 48 12V36C48 42.6274 42.6274 48 36 48H12C5.37258 48 0 42.6274 0 36V12Z" fill="url(#paint0_linear_1300_1364)"/>
<path d="M39.1101 28.2888L35.3775 26.2039L27.0646 31.0902C26.51 31.4079 25.9025 31.5728 25.2871 31.5728C24.6718 31.5728 24.0643 31.4079 23.5097 31.0902L12.5717 25.0963L8.78444 27.3115C8.39606 27.5614 8.07162 27.9318 7.84551 28.3834C7.61939 28.835 7.5 29.351 7.5 29.8768C7.5 30.4027 7.61939 30.9187 7.84551 31.3703C8.07162 31.8219 8.39606 32.1922 8.78444 32.4421L23.4414 40.5046C23.9939 40.8305 24.6022 41 25.2188 41C25.8354 41 26.4437 40.8305 26.9963 40.5046L39.0417 33.3868C39.4269 33.1417 39.7501 32.7784 39.9775 32.3344C40.2051 31.8904 40.3287 31.3819 40.3357 30.8618C40.3426 30.3417 40.2327 29.8288 40.0172 29.3764C39.8017 28.9239 39.4885 28.5484 39.1101 28.2888Z" fill="white"/>
<path d="M21.125 7.48262C21.68 7.16496 22.2879 7 22.9035 7C23.5193 7 24.1272 7.16496 24.682 7.48262L39.129 15.6265C39.5143 15.8777 39.8357 16.2476 40.0596 16.6975C40.2835 17.1474 40.4016 17.6607 40.4016 18.1836C40.4016 18.7066 40.2835 19.2199 40.0596 19.6698C39.8357 20.1197 39.5143 20.4896 39.129 20.7408L27.0762 27.8586C26.5233 28.1845 25.9147 28.354 25.2977 28.354C24.6808 28.354 24.0721 28.1845 23.5192 27.8586L8.85334 19.7147C8.46431 19.4672 8.13902 19.0987 7.91222 18.6482C7.68543 18.1979 7.56563 17.6826 7.56563 17.1575C7.56563 16.6324 7.68543 16.1171 7.91222 15.6668C8.13902 15.2164 8.46431 14.8478 8.85334 14.6003L21.125 7.48262Z" fill="white"/>
<path d="M0 28H8C14.6274 28 20 33.3726 20 40V48H12C5.37258 48 0 42.6274 0 36V28Z" fill="#3F3F3F"/>
<path d="M15.0043 35.0377C14.8338 34.9028 14.6304 34.7185 14.2599 34.6724C13.9123 34.6263 13.5581 34.86 13.3187 35.0147C13.0793 35.1693 12.6268 35.6235 12.4399 35.7617C12.2529 35.8999 11.7742 36.0282 11.0035 36.4922C10.2329 36.9562 7.20934 38.9044 7.20934 38.9044L7.99638 38.9143L4.4875 40.7275H4.83839L4.33337 41.1125C4.33337 41.1125 4.77936 41.231 5.1532 40.9941V41.1027C5.1532 41.1027 9.33106 39.4507 10.1378 39.8785L9.64587 40.0233C9.68851 40.0233 10.4821 40.0759 10.4821 40.0759C10.5014 40.2408 10.5566 40.3995 10.6439 40.5405C10.7312 40.6816 10.8484 40.8016 10.9871 40.8921C11.4659 41.208 11.4757 41.3824 11.4757 41.3824C11.4757 41.3824 11.2265 41.4844 11.2265 41.6127C11.2265 41.6127 11.5938 41.5009 11.9348 41.5107C12.1513 41.519 12.366 41.5532 12.5743 41.6127C12.5743 41.6127 12.5481 41.4745 12.2169 41.3824C11.8857 41.2902 11.5577 40.9282 11.397 40.7308C11.2986 40.6051 11.2345 40.4559 11.2109 40.2978C11.1873 40.1397 11.2051 39.9782 11.2626 39.8291C11.3774 39.5297 11.7774 39.3651 12.6038 38.9373C13.5778 38.4305 13.8008 38.0554 13.9385 37.7625C14.0762 37.4696 14.2796 36.8871 14.3943 36.614C14.5386 36.2619 14.7157 36.0743 14.8633 35.9624C15.0108 35.8505 15.6667 35.6037 15.6667 35.6037C15.6667 35.6037 15.165 35.166 15.0043 35.0377Z" fill="white"/>
</g>
<defs>
<linearGradient id="paint0_linear_1300_1364" x1="48" y1="48" x2="4.29153e-06" y2="-4.29153e-06" gradientUnits="userSpaceOnUse">
<stop offset="0.0873541" stop-color="#5314F1"/>
<stop offset="0.746756" stop-color="#04E2FF"/>
</linearGradient>
<clipPath id="clip0_1300_1364">
<rect width="48" height="48" fill="white"/>
</clipPath>
</defs>
</svg>
