<svg width="48" height="48" viewBox="0 0 48 48" fill="none" xmlns="http://www.w3.org/2000/svg">
<g clip-path="url(#clip0_4057_13634)">
<path d="M0 12C0 5.37258 5.37258 0 12 0H36C42.6274 0 48 5.37258 48 12V36C48 42.6274 42.6274 48 36 48H12C5.37258 48 0 42.6274 0 36V12Z" fill="url(#paint0_linear_4057_13634)"/>
<path d="M24.2485 12.9635C26.1741 12.9635 27.7351 11.4047 27.7351 9.48175C27.7351 7.55883 26.1741 6 24.2485 6C22.3229 6 20.762 7.55883 20.762 9.48175C20.762 11.4047 22.3229 12.9635 24.2485 12.9635Z" fill="white"/>
<path fill-rule="evenodd" clip-rule="evenodd" d="M33.3268 29.3869H28.3272L27.4062 27.0876H21.091L20.17 29.3869H15.1704L21.1567 15.854H27.4062L33.3268 29.3869ZM24.2485 19.3358L22.6039 23.4088H25.8931L24.2485 19.3358Z" fill="white"/>
<path d="M27.7351 38.5183C27.7351 40.4412 26.1741 42 24.2485 42C22.3229 42 20.762 40.4412 20.762 38.5183C20.762 36.5953 22.3229 35.0365 24.2485 35.0365C26.1741 35.0365 27.7351 36.5953 27.7351 38.5183Z" fill="white"/>
<path d="M11.4864 19.8612C13.412 19.8612 14.973 18.3024 14.973 16.3795C14.973 14.4566 13.412 12.8977 11.4864 12.8977C9.56087 12.8977 7.99994 14.4566 7.99994 16.3795C7.99994 18.3024 9.56087 19.8612 11.4864 19.8612Z" fill="white"/>
<path d="M40.4972 16.3795C40.4972 18.3024 38.9362 19.8612 37.0107 19.8612C35.0851 19.8612 33.5241 18.3024 33.5241 16.3795C33.5241 14.4566 35.0851 12.8978 37.0107 12.8978C38.9362 12.8978 40.4972 14.4566 40.4972 16.3795Z" fill="white"/>
<path d="M11.4864 35.2336C13.412 35.2336 14.973 33.6748 14.973 31.7518C14.973 29.8289 13.412 28.2701 11.4864 28.2701C9.56087 28.2701 7.99994 29.8289 7.99994 31.7518C7.99994 33.6748 9.56087 35.2336 11.4864 35.2336Z" fill="white"/>
<path d="M40.4972 31.7518C40.4972 33.6747 38.9362 35.2336 37.0107 35.2336C35.0851 35.2336 33.5241 33.6747 33.5241 31.7518C33.5241 29.8289 35.0851 28.2701 37.0107 28.2701C38.9362 28.2701 40.4972 29.8289 40.4972 31.7518Z" fill="white"/>
</g>
<defs>
<linearGradient id="paint0_linear_4057_13634" x1="48" y1="48" x2="-2.71797e-05" y2="2.71797e-05" gradientUnits="userSpaceOnUse">
<stop stop-color="#D43079"/>
<stop offset="1" stop-color="#F93C90"/>
</linearGradient>
<clipPath id="clip0_4057_13634">
<rect width="48" height="48" fill="white"/>
</clipPath>
</defs>
</svg>
