<svg width="48" height="48" viewBox="0 0 48 48" fill="none" xmlns="http://www.w3.org/2000/svg">
<g clip-path="url(#clip0_4106_17880)">
<path d="M0 12C0 5.37258 5.37258 0 12 0H36C42.6274 0 48 5.37258 48 12V36C48 42.6274 42.6274 48 36 48H12C5.37258 48 0 42.6274 0 36V12Z" fill="url(#paint0_linear_4106_17880)"/>
<path d="M10.05 14.5504C10.05 13.715 10.3819 12.9137 10.9726 12.323C11.5634 11.7323 12.3646 11.4004 13.2 11.4004C14.0354 11.4004 14.8366 11.7323 15.4274 12.323C16.0181 12.9137 16.35 13.715 16.35 14.5504C16.35 15.3858 16.0181 16.187 15.4274 16.7778C14.8366 17.3685 14.0354 17.7004 13.2 17.7004C12.3646 17.7004 11.5634 17.3685 10.9726 16.7778C10.3819 16.187 10.05 15.3858 10.05 14.5504ZM9.6 23.421C9.0375 24.051 8.7 24.8891 8.7 25.8004C8.7 26.7116 9.0375 27.5498 9.6 28.1798V23.421ZM17.7225 20.6479C16.0519 22.1273 15 24.2929 15 26.7004C15 28.6298 15.675 30.4016 16.8 31.791V33.0004C16.8 33.996 15.9956 34.8004 15 34.8004H11.4C10.4044 34.8004 9.6 33.996 9.6 33.0004V31.4929C7.47375 30.4804 6 28.3148 6 25.8004C6 22.3185 8.81812 19.5004 12.3 19.5004H14.1C15.45 19.5004 16.6987 19.9223 17.7225 20.6423V20.6479ZM31.2 33.0004V31.791C32.325 30.4016 33 28.6298 33 26.7004C33 24.2929 31.9481 22.1273 30.2775 20.6423C31.3013 19.9223 32.55 19.5004 33.9 19.5004H35.7C39.1819 19.5004 42 22.3185 42 25.8004C42 28.3148 40.5262 30.4804 38.4 31.4929V33.0004C38.4 33.996 37.5956 34.8004 36.6 34.8004H33C32.0044 34.8004 31.2 33.996 31.2 33.0004ZM31.65 14.5504C31.65 13.715 31.9819 12.9137 32.5726 12.323C33.1634 11.7323 33.9646 11.4004 34.8 11.4004C35.6354 11.4004 36.4366 11.7323 37.0274 12.323C37.6181 12.9137 37.95 13.715 37.95 14.5504C37.95 15.3858 37.6181 16.187 37.0274 16.7778C36.4366 17.3685 35.6354 17.7004 34.8 17.7004C33.9646 17.7004 33.1634 17.3685 32.5726 16.7778C31.9819 16.187 31.65 15.3858 31.65 14.5504ZM38.4 23.421V28.1854C38.9625 27.5498 39.3 26.7173 39.3 25.806C39.3 24.8948 38.9625 24.0566 38.4 23.4266V23.421ZM24 11.4004C24.9548 11.4004 25.8705 11.7797 26.5456 12.4548C27.2207 13.1299 27.6 14.0456 27.6 15.0004C27.6 15.9552 27.2207 16.8708 26.5456 17.546C25.8705 18.2211 24.9548 18.6004 24 18.6004C23.0452 18.6004 22.1295 18.2211 21.4544 17.546C20.7793 16.8708 20.4 15.9552 20.4 15.0004C20.4 14.0456 20.7793 13.1299 21.4544 12.4548C22.1295 11.7797 23.0452 11.4004 24 11.4004ZM19.5 26.7004C19.5 27.6116 19.8375 28.4441 20.4 29.0798V24.321C19.8375 24.9566 19.5 25.7891 19.5 26.7004ZM27.6 24.321V29.0854C28.1625 28.4498 28.5 27.6173 28.5 26.706C28.5 25.7948 28.1625 24.9566 27.6 24.3266V24.321ZM31.2 26.7004C31.2 29.2148 29.7262 31.3804 27.6 32.3929V34.8004C27.6 35.796 26.7956 36.6004 25.8 36.6004H22.2C21.2044 36.6004 20.4 35.796 20.4 34.8004V32.3929C18.2737 31.3804 16.8 29.2148 16.8 26.7004C16.8 23.2185 19.6181 20.4004 23.1 20.4004H24.9C28.3819 20.4004 31.2 23.2185 31.2 26.7004Z" fill="white"/>
</g>
<defs>
<linearGradient id="paint0_linear_4106_17880" x1="48" y1="48" x2="-2.71797e-05" y2="2.71797e-05" gradientUnits="userSpaceOnUse">
<stop stop-color="#D43079"/>
<stop offset="1" stop-color="#F93C90"/>
</linearGradient>
<clipPath id="clip0_4106_17880">
<rect width="48" height="48" fill="white"/>
</clipPath>
</defs>
</svg>
