<svg width="48" height="48" viewBox="0 0 48 48" fill="none" xmlns="http://www.w3.org/2000/svg">
<g clip-path="url(#clip0_3049_3972)">
<path d="M0 12C0 5.37258 5.37258 0 12 0H36C42.6274 0 48 5.37258 48 12V36C48 42.6274 42.6274 48 36 48H12C5.37258 48 0 42.6274 0 36V12Z" fill="url(#paint0_linear_3049_3972)"/>
<path d="M31.7587 29.8847L39.3489 25.5187C39.7513 25.2867 40 24.8566 40 24.395V15.6628C40 15.2012 39.7513 14.7711 39.3489 14.5392L31.7587 10.1731C31.3563 9.94118 30.8568 9.94343 30.4567 10.1731L22.8664 14.5392C22.4641 14.7711 22.2154 15.2012 22.2154 15.6628V31.2673L16.8923 34.3274L11.5691 31.2673V25.1449L16.8923 22.0848L20.4027 24.1045V19.9974L17.5432 18.3514C17.3465 18.2388 17.1206 18.178 16.8923 18.178C16.6639 18.178 16.438 18.2388 16.2413 18.3514L8.65099 22.7175C8.24865 22.9494 8 23.3795 8 23.8411V32.5734C8 33.0349 8.24865 33.4649 8.65099 33.6969L16.2413 38.0631C16.6436 38.2927 17.1409 38.2927 17.5432 38.0631L25.1335 33.6969C25.5359 33.4649 25.7845 33.0349 25.7845 32.5734V16.9666L25.8794 16.9125L31.1055 13.9065L36.4286 16.9666V23.0891L31.1055 26.1492L27.5996 24.1338V28.241L30.4544 29.8825C30.8568 30.1122 31.3563 30.1122 31.7564 29.8825L31.7587 29.8847Z" fill="white"/>
</g>
<defs>
<linearGradient id="paint0_linear_3049_3972" x1="48" y1="48" x2="-2.62577e-05" y2="2.62577e-05" gradientUnits="userSpaceOnUse">
<stop stop-color="#434852"/>
<stop offset="1" stop-color="#787F92"/>
</linearGradient>
<clipPath id="clip0_3049_3972">
<rect width="48" height="48" fill="white"/>
</clipPath>
</defs>
</svg>
