<svg width="48" height="48" viewBox="0 0 48 48" fill="none" xmlns="http://www.w3.org/2000/svg">
<g clip-path="url(#clip0_1328_2089)">
<path d="M0 12C0 5.37258 5.37258 0 12 0H36C42.6274 0 48 5.37258 48 12V36C48 42.6274 42.6274 48 36 48H12C5.37258 48 0 42.6274 0 36V12Z" fill="url(#paint0_linear_1328_2089)"/>
<path d="M24 6C14.073 6 6 14.0714 6 23.9963C6 31.1299 10.1732 37.3108 16.2076 40.2203V40.2351H16.2372C18.586 41.3649 21.2228 42 24 42C33.9269 42 42 33.9286 42 24.0037C42 14.0714 33.9269 6 24 6ZM24 7.47693C33.1071 7.47693 40.5228 14.8911 40.5228 23.9963C40.5228 26.6104 39.9098 29.0918 38.8239 31.2923C36.4455 30.1403 34.0303 29.2838 31.5929 28.7003V14.9206C31.5929 14.4406 31.2163 14.0566 30.7435 14.0566H27.7152H20.0853H17.057C16.5917 14.0566 16.2076 14.4406 16.2076 14.9206V28.7669C13.8441 29.3502 11.4953 30.192 9.18343 31.2997C8.09028 29.0918 7.47723 26.6178 7.47723 23.9963C7.47723 14.8911 14.8929 7.47693 24 7.47693ZM10.1362 32.9612C12.0936 31.994 14.1247 31.2481 16.215 30.7312V38.5588C13.7407 37.237 11.6504 35.3022 10.1362 32.9612ZM20.0853 40.0431V21.6037C20.0853 19.4696 21.8359 17.7046 23.9261 17.7046C26.0163 17.7046 27.7152 19.4326 27.7152 21.5594C27.7152 21.5742 27.7078 21.589 27.7078 21.6037H27.7152V28.021C25.9351 27.8142 24.1478 27.7477 22.3603 27.8437L20.8904 29.9779C23.1801 29.7859 25.4107 29.8007 27.6118 30.0518C27.6339 30.0518 27.6487 30.0518 27.671 30.0592C27.6857 30.0592 27.7005 30.0592 27.7226 30.0666C28.1067 30.1108 29.5027 30.288 30.7805 30.6056L27.7226 31.6467V40.1023C26.526 40.3754 25.2852 40.5305 24.0147 40.5305C22.6483 40.5157 21.341 40.3459 20.0853 40.0431ZM31.5855 38.6623V30.768C33.6684 31.2923 35.7291 32.0604 37.7973 33.0646C36.2462 35.4204 34.1042 37.3552 31.5855 38.6623Z" fill="white"/>
<path d="M0 28H8C14.6274 28 20 33.3726 20 40V48H12C5.37258 48 0 42.6274 0 36V28Z" fill="#D43079"/>
<path d="M9.99889 34.5169C11.1934 34.5169 12.1617 33.9535 12.1617 33.2585C12.1617 32.5634 11.1934 32 9.99889 32C8.80439 32 7.83606 32.5634 7.83606 33.2585C7.83606 33.9535 8.80439 34.5169 9.99889 34.5169Z" fill="white"/>
<path d="M9.99889 43.9991C11.1934 43.9991 12.1617 43.4357 12.1617 42.7407C12.1617 42.0457 11.1934 41.4822 9.99889 41.4822C8.80439 41.4822 7.83606 42.0457 7.83606 42.7407C7.83606 43.4357 8.80439 43.9991 9.99889 43.9991Z" fill="white"/>
<path d="M6.98482 36.2589C7.58207 35.224 7.5782 34.1032 6.97617 33.7554C6.37413 33.4077 5.40192 33.9647 4.80467 34.9996C4.20742 36.0345 4.21129 37.1554 4.81333 37.5031C5.41536 37.8509 6.38757 37.2938 6.98482 36.2589Z" fill="white"/>
<path d="M15.1921 40.9995C15.7894 39.9646 15.7858 38.8439 15.1842 38.4964C14.5826 38.1489 13.6107 38.7061 13.0135 39.741C12.4162 40.7759 12.4198 41.8966 13.0214 42.2441C13.623 42.5916 14.5949 42.0344 15.1921 40.9995Z" fill="white"/>
<path d="M6.97647 42.2438C7.5785 41.896 7.58238 40.7752 6.98513 39.7403C6.38788 38.7054 5.41566 38.1484 4.81363 38.4961C4.2116 38.8438 4.20772 39.9647 4.80497 40.9996C5.40222 42.0345 6.37444 42.5915 6.97647 42.2438Z" fill="white"/>
<path d="M15.1847 37.5034C15.7864 37.1559 15.7899 36.0352 15.1927 35.0003C14.5954 33.9654 13.6235 33.4082 13.0219 33.7557C12.4203 34.1032 12.4167 35.2239 13.014 36.2588C13.6112 37.2937 14.5831 37.8509 15.1847 37.5034Z" fill="white"/>
</g>
<defs>
<linearGradient id="paint0_linear_1328_2089" x1="48" y1="48" x2="0.146965" y2="-0.14607" gradientUnits="userSpaceOnUse">
<stop offset="0.156759" stop-color="#701AB3"/>
<stop offset="0.521964" stop-color="#A8419D"/>
<stop offset="0.770793" stop-color="#FF6899"/>
</linearGradient>
<clipPath id="clip0_1328_2089">
<rect width="48" height="48" fill="white"/>
</clipPath>
</defs>
</svg>
