<svg width="48" height="48" viewBox="0 0 48 48" fill="none" xmlns="http://www.w3.org/2000/svg">
<g clip-path="url(#clip0_1329_2089)">
<path d="M0 14C0 6.26801 6.26801 0 14 0H34C41.732 0 48 6.26801 48 14V34C48 41.732 41.732 48 34 48H14C6.26801 48 0 41.732 0 34V14Z" fill="url(#paint0_linear_1329_2089)"/>
<path d="M0 12C0 5.37258 5.37258 0 12 0H36C42.6274 0 48 5.37258 48 12V36C48 42.6274 42.6274 48 36 48H12C5.37258 48 0 42.6274 0 36V12Z" fill="url(#paint1_linear_1329_2089)"/>
<path d="M24 6C14.073 6 6 14.0714 6 23.9963C6 31.1299 10.1732 37.3108 16.2076 40.2203V40.2351H16.2372C18.586 41.3649 21.2228 42 24 42C33.9269 42 42 33.9286 42 24.0037C42 14.0714 33.9269 6 24 6ZM24 7.47693C33.1071 7.47693 40.5228 14.8911 40.5228 23.9963C40.5228 26.6104 39.9098 29.0918 38.8239 31.2923C36.4455 30.1403 34.0303 29.2838 31.5929 28.7003V14.9206C31.5929 14.4406 31.2163 14.0566 30.7435 14.0566H27.7152H20.0853H17.057C16.5917 14.0566 16.2076 14.4406 16.2076 14.9206V28.7669C13.8441 29.3502 11.4953 30.192 9.18343 31.2997C8.09028 29.0918 7.47723 26.6178 7.47723 23.9963C7.47723 14.8911 14.8929 7.47693 24 7.47693ZM10.1362 32.9612C12.0936 31.994 14.1247 31.2481 16.215 30.7312V38.5588C13.7407 37.237 11.6504 35.3022 10.1362 32.9612ZM20.0853 40.0431V21.6037C20.0853 19.4696 21.8359 17.7046 23.9261 17.7046C26.0163 17.7046 27.7152 19.4326 27.7152 21.5594C27.7152 21.5742 27.7078 21.589 27.7078 21.6037H27.7152V28.021C25.9351 27.8142 24.1478 27.7477 22.3603 27.8437L20.8904 29.9779C23.1801 29.7859 25.4107 29.8007 27.6118 30.0518C27.6339 30.0518 27.6487 30.0518 27.671 30.0592C27.6857 30.0592 27.7005 30.0592 27.7226 30.0666C28.1067 30.1108 29.5027 30.288 30.7805 30.6056L27.7226 31.6467V40.1023C26.526 40.3754 25.2852 40.5305 24.0147 40.5305C22.6483 40.5157 21.341 40.3459 20.0853 40.0431ZM31.5855 38.6623V30.768C33.6684 31.2923 35.7291 32.0604 37.7973 33.0646C36.2462 35.4204 34.1042 37.3552 31.5855 38.6623Z" fill="white"/>
<path d="M0 28H8C14.6274 28 20 33.3726 20 40V48H12C5.37258 48 0 42.6274 0 36V28Z" fill="#3F3F3F"/>
<path d="M15.0043 35.0382C14.8338 34.9033 14.6304 34.719 14.2599 34.6729C13.9123 34.6268 13.5581 34.8605 13.3187 35.0151C13.0793 35.1698 12.6268 35.6239 12.4399 35.7622C12.2529 35.9004 11.7742 36.0287 11.0035 36.4927C10.2329 36.9567 7.20934 38.9049 7.20934 38.9049L7.99638 38.9148L4.4875 40.728H4.83839L4.33337 41.113C4.33337 41.113 4.77936 41.2315 5.1532 40.9946V41.1032C5.1532 41.1032 9.33106 39.4512 10.1378 39.879L9.64587 40.0238C9.68851 40.0238 10.4821 40.0764 10.4821 40.0764C10.5014 40.2413 10.5566 40.4 10.6439 40.541C10.7312 40.6821 10.8484 40.8021 10.9871 40.8925C11.4659 41.2085 11.4757 41.3829 11.4757 41.3829C11.4757 41.3829 11.2265 41.4849 11.2265 41.6132C11.2265 41.6132 11.5938 41.5013 11.9348 41.5112C12.1513 41.5195 12.366 41.5537 12.5743 41.6132C12.5743 41.6132 12.5481 41.475 12.2169 41.3829C11.8857 41.2907 11.5577 40.9287 11.397 40.7313C11.2986 40.6056 11.2345 40.4564 11.2109 40.2983C11.1873 40.1402 11.2051 39.9787 11.2626 39.8296C11.3774 39.5301 11.7774 39.3656 12.6038 38.9378C13.5778 38.431 13.8008 38.0559 13.9385 37.763C14.0762 37.4701 14.2796 36.8876 14.3943 36.6145C14.5386 36.2624 14.7157 36.0748 14.8633 35.9629C15.0108 35.851 15.6667 35.6042 15.6667 35.6042C15.6667 35.6042 15.165 35.1665 15.0043 35.0382Z" fill="white"/>
</g>
<defs>
<linearGradient id="paint0_linear_1329_2089" x1="48" y1="48" x2="0.146965" y2="-0.14607" gradientUnits="userSpaceOnUse">
<stop offset="0.156759" stop-color="#701AB3"/>
<stop offset="0.521964" stop-color="#A8419D"/>
<stop offset="0.7668" stop-color="#FF6899"/>
</linearGradient>
<linearGradient id="paint1_linear_1329_2089" x1="48" y1="48" x2="0.146965" y2="-0.14607" gradientUnits="userSpaceOnUse">
<stop offset="0.156759" stop-color="#701AB3"/>
<stop offset="0.521964" stop-color="#A8419D"/>
<stop offset="0.7668" stop-color="#FF6899"/>
</linearGradient>
<clipPath id="clip0_1329_2089">
<rect width="48" height="48" fill="white"/>
</clipPath>
</defs>
</svg>
