<svg width="48" height="48" viewBox="0 0 48 48" fill="none" xmlns="http://www.w3.org/2000/svg">
<g clip-path="url(#clip0_1300_1448)">
<path d="M0 12C0 5.37258 5.37258 0 12 0H36C42.6274 0 48 5.37258 48 12V36C48 42.6274 42.6274 48 36 48H12C5.37258 48 0 42.6274 0 36V12Z" fill="url(#paint0_linear_1300_1448)"/>
<path fill-rule="evenodd" clip-rule="evenodd" d="M18.7281 18.7275C21.6397 21.6391 26.3603 21.6391 29.2719 18.7275C32.1836 15.8159 32.1836 11.0953 29.2719 8.1837C26.3603 5.2721 21.6397 5.2721 18.7281 8.1837C15.8165 11.0953 15.8165 15.8159 18.7281 18.7275ZM8.1837 29.2719C11.0953 32.1835 15.8159 32.1835 18.7275 29.2719C21.6392 26.3604 21.6392 21.6398 18.7275 18.7281C15.8159 15.8165 11.0953 15.8165 8.1837 18.7281C5.2721 21.6398 5.2721 26.3604 8.1837 29.2719ZM39.8163 29.2719C36.9047 32.1835 32.1841 32.1835 29.2726 29.2719C26.3608 26.3604 26.3608 21.6398 29.2726 18.7281C32.1841 15.8165 36.9047 15.8165 39.8163 18.7281C42.728 21.6398 42.728 26.3604 39.8163 29.2719ZM29.2719 29.2724C26.3603 26.3609 21.6397 26.3609 18.7281 29.2724C15.8165 32.1842 15.8165 36.9048 18.7281 39.8163C21.6397 42.7279 26.3603 42.7279 29.2719 39.8163C32.1836 36.9048 32.1836 32.1842 29.2719 29.2724Z" fill="white"/>
</g>
<defs>
<linearGradient id="paint0_linear_1300_1448" x1="48" y1="48" x2="-2.62577e-05" y2="2.62577e-05" gradientUnits="userSpaceOnUse">
<stop stop-color="#EB3969"/>
<stop offset="1" stop-color="#EE829F"/>
</linearGradient>
<clipPath id="clip0_1300_1448">
<rect width="48" height="48" fill="white"/>
</clipPath>
</defs>
</svg>
