<svg width="48" height="48" viewBox="0 0 48 48" fill="none" xmlns="http://www.w3.org/2000/svg">
<g clip-path="url(#clip0_1320_2691)">
<path d="M0 12C0 5.37258 5.37258 0 12 0H36C42.6274 0 48 5.37258 48 12V36C48 42.6274 42.6274 48 36 48H12C5.37258 48 0 42.6274 0 36V12Z" fill="url(#paint0_linear_1320_2691)"/>
<path d="M15.7284 21.7158L23.5458 8.25262C23.7392 7.91955 24.2177 7.91492 24.4174 8.24418L29.0646 15.9035C29.3879 16.4363 29.1607 17.1325 28.5858 17.371L16.3606 22.4411C15.9121 22.6271 15.4842 22.1362 15.7284 21.7158Z" fill="white"/>
<path d="M38.8937 32.9222L30.7603 19.0754C30.5041 18.6392 29.9666 18.4584 29.4997 18.6514L16.6681 23.9535C16.2413 24.1299 16.0683 24.6436 16.3013 25.0431L21.4189 33.8196C21.5098 33.9756 21.6765 34.0714 21.8567 34.0714H38.2382C38.8266 34.0714 39.1922 33.4305 38.8937 32.9222Z" fill="white"/>
<path d="M19.4717 33.3067L14.8766 25.4262C14.5812 24.9198 13.8497 24.9233 13.5593 25.4326L9.06757 33.311C8.87438 33.6498 9.11849 34.0714 9.50788 34.0714H19.0338C19.4254 34.0714 19.6692 33.6455 19.4717 33.3067Z" fill="white"/>
</g>
<defs>
<linearGradient id="paint0_linear_1320_2691" x1="48" y1="48" x2="-2.71797e-05" y2="2.71797e-05" gradientUnits="userSpaceOnUse">
<stop offset="0.163836" stop-color="#AA41B9"/>
<stop offset="0.53848" stop-color="#4491F3"/>
<stop offset="1" stop-color="#7FF6AF"/>
</linearGradient>
<clipPath id="clip0_1320_2691">
<rect width="48" height="48" fill="white"/>
</clipPath>
</defs>
</svg>
