<svg width="48" height="48" viewBox="0 0 48 48" fill="none" xmlns="http://www.w3.org/2000/svg">
<g clip-path="url(#clip0_1304_961)">
<path d="M0 12C0 5.37258 5.37258 0 12 0H36C42.6274 0 48 5.37258 48 12V36C48 42.6274 42.6274 48 36 48H12C5.37258 48 0 42.6274 0 36V12Z" fill="url(#paint0_linear_1304_961)"/>
<path d="M34.6576 38.5073C39.1105 35.2305 42 29.9528 42 24.0002C42 14.0591 33.9412 6 23.9999 6C14.0588 6 6 14.0591 6 24.0002C6 29.9529 8.88958 35.2307 13.3426 38.5075L22.5405 23.9632H13.1291V20.8627H22.5405V17.6719H13.1291V14.5714H34.871V17.6719H25.4614V20.8627H34.871V23.9632H25.4614L34.6576 38.5073Z" fill="white"/>
<path d="M32.1269 40.0653L23.9999 27.2083L15.8729 40.0653C18.3142 41.3027 21.0756 42 23.9999 42C26.9242 42 29.6856 41.3027 32.1269 40.0653Z" fill="white"/>
</g>
<defs>
<linearGradient id="paint0_linear_1304_961" x1="48" y1="48" x2="-2.71797e-05" y2="2.71797e-05" gradientUnits="userSpaceOnUse">
<stop stop-color="#B01915"/>
<stop offset="1" stop-color="#E73B33"/>
</linearGradient>
<clipPath id="clip0_1304_961">
<rect width="48" height="48" fill="white"/>
</clipPath>
</defs>
</svg>
