<svg width="48" height="48" viewBox="0 0 48 48" fill="none" xmlns="http://www.w3.org/2000/svg">
<g clip-path="url(#clip0_1346_2628)">
<path d="M0 12C0 5.37258 5.37258 0 12 0H36C42.6274 0 48 5.37258 48 12V36C48 42.6274 42.6274 48 36 48H12C5.37258 48 0 42.6274 0 36V12Z" fill="url(#paint0_linear_1346_2628)"/>
<path d="M34.6576 38.5073C39.1105 35.2305 42 29.9528 42 24.0002C42 14.0591 33.9412 6 23.9999 6C14.0588 6 6 14.0591 6 24.0002C6 29.9529 8.88958 35.2307 13.3426 38.5075L22.5405 23.9632H13.1291V20.8627H22.5405V17.6719H13.1291V14.5714H34.871V17.6719H25.4614V20.8627H34.871V23.9632H25.4614L34.6576 38.5073Z" fill="white"/>
<path d="M32.1269 40.0653L23.9999 27.2083L15.8729 40.0653C18.3142 41.3027 21.0756 42 23.9999 42C26.9242 42 29.6856 41.3027 32.1269 40.0653Z" fill="white"/>
<path d="M0 28H8C14.6274 28 20 33.3726 20 40V48H12C5.37258 48 0 42.6274 0 36V28Z" fill="#3F3F3F"/>
<path d="M15.0043 35.0382C14.8338 34.9033 14.6304 34.719 14.2599 34.6729C13.9123 34.6268 13.5581 34.8605 13.3187 35.0151C13.0793 35.1698 12.6268 35.6239 12.4399 35.7622C12.2529 35.9004 11.7742 36.0287 11.0035 36.4927C10.2329 36.9567 7.20934 38.9049 7.20934 38.9049L7.99638 38.9148L4.4875 40.728H4.83839L4.33337 41.113C4.33337 41.113 4.77936 41.2315 5.1532 40.9946V41.1032C5.1532 41.1032 9.33106 39.4512 10.1378 39.879L9.64587 40.0238C9.68851 40.0238 10.4821 40.0764 10.4821 40.0764C10.5014 40.2413 10.5566 40.4 10.6439 40.541C10.7312 40.6821 10.8484 40.8021 10.9871 40.8925C11.4659 41.2085 11.4757 41.3829 11.4757 41.3829C11.4757 41.3829 11.2265 41.4849 11.2265 41.6132C11.2265 41.6132 11.5938 41.5013 11.9348 41.5112C12.1513 41.5195 12.366 41.5537 12.5743 41.6132C12.5743 41.6132 12.5481 41.475 12.2169 41.3829C11.8857 41.2907 11.5577 40.9287 11.397 40.7313C11.2986 40.6056 11.2345 40.4564 11.2109 40.2983C11.1873 40.1402 11.2051 39.9787 11.2626 39.8296C11.3774 39.5301 11.7774 39.3656 12.6038 38.9378C13.5778 38.431 13.8008 38.0559 13.9385 37.763C14.0762 37.4701 14.2796 36.8876 14.3943 36.6145C14.5386 36.2624 14.7157 36.0748 14.8633 35.9629C15.0108 35.851 15.6667 35.6042 15.6667 35.6042C15.6667 35.6042 15.165 35.1665 15.0043 35.0382Z" fill="white"/>
</g>
<defs>
<linearGradient id="paint0_linear_1346_2628" x1="48" y1="48" x2="-2.71797e-05" y2="2.71797e-05" gradientUnits="userSpaceOnUse">
<stop stop-color="#B01915"/>
<stop offset="0.750895" stop-color="#E73B33"/>
</linearGradient>
<clipPath id="clip0_1346_2628">
<rect width="48" height="48" fill="white"/>
</clipPath>
</defs>
</svg>
