<svg width="48" height="48" viewBox="0 0 48 48" fill="none" xmlns="http://www.w3.org/2000/svg">
<g clip-path="url(#clip0_1300_1272)">
<path d="M0 12C0 5.37258 5.37258 0 12 0H36C42.6274 0 48 5.37258 48 12V36C48 42.6274 42.6274 48 36 48H12C5.37258 48 0 42.6274 0 36V12Z" fill="url(#paint0_linear_1300_1272)"/>
<path fill-rule="evenodd" clip-rule="evenodd" d="M30.8149 19.2237C33.6724 15.8183 33.2282 10.741 29.8227 7.88342C26.4295 5.03615 21.3765 5.46686 18.5133 8.83879L18.5054 8.81689C14.3279 10.3374 12.1739 14.9565 13.6944 19.1339C15.2149 23.3115 19.8341 25.4654 24.0115 23.9451L21.2585 16.381L18.5462 8.9292L24.6485 14.0497C26.6659 15.7425 27.2592 16.2403 28.1173 16.9603C28.7078 17.4557 29.4236 18.0563 30.8149 19.2237ZM29.4945 39.1323C33.672 37.6117 35.826 32.9926 34.3054 28.815C32.785 24.6377 28.1659 22.4838 23.9883 24.0041L26.7415 31.5682L27.7619 34.372L29.4945 39.1323ZM18.1456 40.1166C14.74 37.2592 14.2958 32.1819 17.1534 28.7764L19.7166 30.9272L23.3196 33.9504L29.4859 39.1246C26.6284 42.5302 21.5511 42.9743 18.1456 40.1166Z" fill="white"/>
<path d="M0 28H8C14.6274 28 20 33.3726 20 40V48H12C5.37258 48 0 42.6274 0 36V28Z" fill="#3F3F3F"/>
<path d="M15.0042 35.0379C14.8336 34.903 14.6303 34.7187 14.2598 34.6727C13.9121 34.6266 13.558 34.8602 13.3186 35.0149C13.0792 35.1696 12.6267 35.6237 12.4397 35.7619C12.2528 35.9001 11.774 36.0285 11.0034 36.4925C10.2328 36.9565 7.20922 38.9046 7.20922 38.9046L7.99625 38.9145L4.48738 40.7278H4.83827L4.33325 41.1128C4.33325 41.1128 4.77924 41.2312 5.15308 40.9943V41.1029C5.15308 41.1029 9.33094 39.4509 10.1377 39.8787L9.64575 40.0235C9.68838 40.0235 10.482 40.0762 10.482 40.0762C10.5012 40.2411 10.5565 40.3997 10.6438 40.5408C10.7311 40.6818 10.8482 40.8018 10.987 40.8923C11.4658 41.2082 11.4756 41.3826 11.4756 41.3826C11.4756 41.3826 11.2264 41.4846 11.2264 41.613C11.2264 41.613 11.5937 41.5011 11.9347 41.511C12.1512 41.5192 12.3659 41.5535 12.5742 41.613C12.5742 41.613 12.548 41.4748 12.2167 41.3826C11.8855 41.2905 11.5576 40.9285 11.3969 40.731C11.2985 40.6054 11.2343 40.4561 11.2108 40.2981C11.1872 40.14 11.205 39.9785 11.2625 39.8294C11.3772 39.5299 11.7773 39.3654 12.6037 38.9376C13.5777 38.4308 13.8007 38.0556 13.9384 37.7627C14.0761 37.4698 14.2794 36.8874 14.3942 36.6142C14.5385 36.2621 14.7156 36.0745 14.8632 35.9627C15.0107 35.8508 15.6666 35.604 15.6666 35.604C15.6666 35.604 15.1648 35.1663 15.0042 35.0379Z" fill="white"/>
</g>
<defs>
<linearGradient id="paint0_linear_1300_1272" x1="48" y1="48" x2="0" y2="0" gradientUnits="userSpaceOnUse">
<stop stop-color="#1C3816"/>
<stop offset="0.749836" stop-color="#4F6B49"/>
</linearGradient>
<clipPath id="clip0_1300_1272">
<rect width="48" height="48" fill="white"/>
</clipPath>
</defs>
</svg>
