<svg width="48" height="48" viewBox="0 0 48 48" fill="none" xmlns="http://www.w3.org/2000/svg">
<g clip-path="url(#clip0_1300_1249)">
<path d="M0 12C0 5.37258 5.37258 0 12 0H36C42.6274 0 48 5.37258 48 12V36C48 42.6274 42.6274 48 36 48H12C5.37258 48 0 42.6274 0 36V12Z" fill="url(#paint0_linear_1300_1249)"/>
<path fill-rule="evenodd" clip-rule="evenodd" d="M30.8149 19.2237C33.6724 15.8183 33.2282 10.741 29.8227 7.88342C26.4295 5.03615 21.3765 5.46686 18.5133 8.83879L18.5054 8.81689C14.3279 10.3374 12.1739 14.9565 13.6944 19.1339C15.2149 23.3115 19.8341 25.4654 24.0115 23.9451L21.2585 16.381L18.5462 8.9292L24.6485 14.0497C26.6659 15.7425 27.2592 16.2403 28.1173 16.9603C28.7078 17.4557 29.4236 18.0563 30.8149 19.2237ZM29.4945 39.1323C33.672 37.6117 35.826 32.9926 34.3054 28.815C32.785 24.6377 28.1659 22.4838 23.9883 24.0041L26.7415 31.5682L27.7619 34.372L29.4945 39.1323ZM18.1456 40.1166C14.74 37.2592 14.2958 32.1819 17.1534 28.7764L19.7166 30.9272L23.3196 33.9504L29.4859 39.1246C26.6284 42.5302 21.5511 42.9743 18.1456 40.1166Z" fill="white"/>
<path d="M0 28H8C14.6274 28 20 33.3726 20 40V48H12C5.37258 48 0 42.6274 0 36V28Z" fill="#D43079"/>
<path d="M9.99877 34.5169C11.1933 34.5169 12.1616 33.9535 12.1616 33.2585C12.1616 32.5634 11.1933 32 9.99877 32C8.80427 32 7.83594 32.5634 7.83594 33.2585C7.83594 33.9535 8.80427 34.5169 9.99877 34.5169Z" fill="white"/>
<path d="M9.99877 43.9991C11.1933 43.9991 12.1616 43.4357 12.1616 42.7407C12.1616 42.0457 11.1933 41.4822 9.99877 41.4822C8.80427 41.4822 7.83594 42.0457 7.83594 42.7407C7.83594 43.4357 8.80427 43.9991 9.99877 43.9991Z" fill="white"/>
<path d="M6.9847 36.2589C7.58195 35.224 7.57808 34.1032 6.97604 33.7554C6.37401 33.4077 5.4018 33.9647 4.80455 34.9996C4.20729 36.0345 4.21117 37.1554 4.8132 37.5031C5.41524 37.8509 6.38745 37.2938 6.9847 36.2589Z" fill="white"/>
<path d="M15.192 40.9995C15.7893 39.9646 15.7857 38.8439 15.1841 38.4964C14.5825 38.1489 13.6106 38.7061 13.0133 39.741C12.4161 40.7759 12.4196 41.8966 13.0213 42.2441C13.6229 42.5916 14.5948 42.0344 15.192 40.9995Z" fill="white"/>
<path d="M6.97635 42.2438C7.57838 41.896 7.58226 40.7752 6.98501 39.7403C6.38775 38.7054 5.41554 38.1484 4.81351 38.4961C4.21148 38.8438 4.2076 39.9647 4.80485 40.9996C5.4021 42.0345 6.37431 42.5915 6.97635 42.2438Z" fill="white"/>
<path d="M15.1846 37.5034C15.7862 37.1559 15.7898 36.0352 15.1925 35.0003C14.5953 33.9654 13.6234 33.4082 13.0218 33.7557C12.4202 34.1032 12.4166 35.2239 13.0139 36.2588C13.6111 37.2937 14.583 37.8509 15.1846 37.5034Z" fill="white"/>
</g>
<defs>
<linearGradient id="paint0_linear_1300_1249" x1="48" y1="48" x2="0" y2="0" gradientUnits="userSpaceOnUse">
<stop stop-color="#23371A"/>
<stop offset="0.747945" stop-color="#89C62D"/>
</linearGradient>
<clipPath id="clip0_1300_1249">
<rect width="48" height="48" fill="white"/>
</clipPath>
</defs>
</svg>
