<svg width="48" height="48" viewBox="0 0 48 48" fill="none" xmlns="http://www.w3.org/2000/svg">
<g clip-path="url(#clip0_1304_1022)">
<path d="M0 12C0 5.37258 5.37258 0 12 0H36C42.6274 0 48 5.37258 48 12V36C48 42.6274 42.6274 48 36 48H12C5.37258 48 0 42.6274 0 36V12Z" fill="url(#paint0_linear_1304_1022)"/>
<path fill-rule="evenodd" clip-rule="evenodd" d="M28.3743 9.63931C26.9699 9.22352 25.4803 9 23.9375 9H13V16.0592C15.3109 15.5049 24.3102 11.7211 28.3743 9.63931ZM13 19.0147C16.5396 18.1741 27.9024 13.2693 31.8164 11.1354C33.8287 12.3205 35.5401 13.946 36.8117 15.8756C32.1218 18.4816 19.5924 24.5039 13 25.8584V19.0147ZM13 28.8483C18.0976 27.8676 32.7619 21.6773 38.1141 18.32C38.8463 20.072 39.25 21.9898 39.25 24C39.25 24.4421 39.2305 24.8797 39.1922 25.3121C34.0794 28.4402 19.8272 34.3416 13 35.733V28.8483ZM13 38.8675V39H23.9375C30.7438 39 36.5129 34.65 38.5056 28.6332C33.225 31.7982 18.2861 37.689 13 38.8675Z" fill="white"/>
</g>
<defs>
<linearGradient id="paint0_linear_1304_1022" x1="48" y1="48" x2="-2.71797e-05" y2="2.71797e-05" gradientUnits="userSpaceOnUse">
<stop offset="0.151042" stop-color="#7D20BF"/>
<stop offset="0.578125" stop-color="#584DDB"/>
<stop offset="0.942708" stop-color="#51BEF9"/>
</linearGradient>
<clipPath id="clip0_1304_1022">
<rect width="48" height="48" fill="white"/>
</clipPath>
</defs>
</svg>
