<svg width="48" height="48" viewBox="0 0 48 48" fill="none" xmlns="http://www.w3.org/2000/svg">
	<g clip-path="url(#clip0_1300_1221)">
		<path d="M0 12C0 5.37258 5.37258 0 12 0H36C42.6274 0 48 5.37258 48 12V36C48 42.6274 42.6274 48 36 48H12C5.37258 48 0 42.6274 0 36V12Z" fill="url(#paint0_linear_1300_1221)" />
		<path d="M15.3245 36.4L8 14H13.6251L17.8226 27.3997L21.9352 14H26.0478L30.2623 27.3997L34.3749 14H40L32.6925 36.4H28.24L23.9915 22.9848L19.709 36.4H15.3245Z" fill="white" />
	</g>
	<defs>
		<linearGradient id="paint0_linear_1300_1221" x1="48" y1="48" x2="-2.62577e-05" y2="2.62577e-05" gradientUnits="userSpaceOnUse">
			<stop stop-color="#434852" />
			<stop offset="1" stop-color="#787F92" />
		</linearGradient>
		<clipPath id="clip0_1300_1221">
			<rect width="48" height="48" fill="white" />
		</clipPath>
	</defs>
</svg>
