<svg width="48" height="48" viewBox="0 0 48 48" fill="none" xmlns="http://www.w3.org/2000/svg">
<g clip-path="url(#clip0_1300_1280)">
<path d="M0 12C0 5.37258 5.37258 0 12 0H36C42.6274 0 48 5.37258 48 12V36C48 42.6274 42.6274 48 36 48H12C5.37258 48 0 42.6274 0 36V12Z" fill="url(#paint0_linear_1300_1280)"/>
<path fill-rule="evenodd" clip-rule="evenodd" d="M30.8149 19.2237C33.6724 15.8183 33.2282 10.741 29.8227 7.88342C26.4295 5.03615 21.3765 5.46686 18.5133 8.83879L18.5054 8.81689C14.3279 10.3374 12.1739 14.9565 13.6944 19.1339C15.2149 23.3115 19.8341 25.4654 24.0115 23.9451L21.2585 16.381L18.5462 8.9292L24.6485 14.0497C26.6659 15.7425 27.2592 16.2403 28.1173 16.9603C28.7078 17.4557 29.4236 18.0563 30.8149 19.2237ZM29.4945 39.1323C33.672 37.6117 35.826 32.9926 34.3054 28.815C32.785 24.6377 28.1659 22.4838 23.9883 24.0041L26.7415 31.5682L27.7619 34.372L29.4945 39.1323ZM18.1456 40.1166C14.74 37.2592 14.2958 32.1819 17.1534 28.7764L19.7166 30.9272L23.3196 33.9504L29.4859 39.1246C26.6284 42.5302 21.5511 42.9743 18.1456 40.1166Z" fill="white"/>
</g>
<defs>
<linearGradient id="paint0_linear_1300_1280" x1="48" y1="48" x2="-2.62577e-05" y2="2.62577e-05" gradientUnits="userSpaceOnUse">
<stop stop-color="#434852"/>
<stop offset="1" stop-color="#787F92"/>
</linearGradient>
<clipPath id="clip0_1300_1280">
<rect width="48" height="48" fill="white"/>
</clipPath>
</defs>
</svg>
