<svg width="48" height="48" viewBox="0 0 48 48" fill="none" xmlns="http://www.w3.org/2000/svg">
<g clip-path="url(#clip0_1301_868)">
<path d="M0 12C0 5.37258 5.37258 0 12 0H36C42.6274 0 48 5.37258 48 12V36C48 42.6274 42.6274 48 36 48H12C5.37258 48 0 42.6274 0 36V12Z" fill="url(#paint0_linear_1301_868)"/>
<path d="M24.003 6.00003C19.7719 5.99316 15.674 7.47903 12.4305 10.1961H35.5724C32.3305 7.47855 28.2333 5.99257 24.003 6.00003ZM24.003 42C28.1941 42.0077 32.2559 40.549 35.4845 37.8767H12.5184C15.7485 40.5486 19.8111 42.0072 24.003 42ZM32.5952 15.1379H39.6958C39.1108 14.1074 38.4264 13.1367 37.6523 12.2396H10.3658C9.22734 13.5516 8.28571 15.0223 7.57048 16.6054H31.5492L32.5952 15.1379ZM23.8302 25.0581H6.00303C6.08853 26.5411 6.35841 28.0077 6.80646 29.424H22.1627L23.2208 27.9353H41.5967C41.8085 26.9887 41.9434 26.0265 41.9999 25.0581H23.8302ZM27.8413 21.5351H41.8635C41.7309 20.5527 41.5158 19.5831 41.2207 18.6367H6.78221C6.34155 20.0539 6.0788 21.5205 6 23.0025H26.7984L27.8413 21.5351ZM10.4174 35.8332H17.5573L18.6003 34.3658H38.7407C39.3872 33.4542 39.9466 32.4838 40.4113 31.4674H7.59474C8.3189 33.0519 9.26974 34.5225 10.4174 35.8332Z" fill="white"/>
</g>
<defs>
<linearGradient id="paint0_linear_1301_868" x1="48" y1="48" x2="0" y2="0" gradientUnits="userSpaceOnUse">
<stop stop-color="#132849"/>
<stop offset="1" stop-color="#2C5AA6"/>
</linearGradient>
<clipPath id="clip0_1301_868">
<rect width="48" height="48" fill="white"/>
</clipPath>
</defs>
</svg>
